SplineFontDB: 3.0
FontName: Nobile
FullName: Nobile
FamilyName: Nobile
Weight: Light
Copyright: Copyright (c) 2007-2010 by vernon adams. All rights reserved.
Version: 1.000;PS 001.000;hotconv 1.0.38
ItalicAngle: 0
UnderlinePosition: -292
UnderlineWidth: 40
Ascent: 1638
Descent: 410
LayerCount: 2
Layer: 0 1 "Back"  1
Layer: 1 1 "Fore"  0
NeedsXUIDChange: 1
XUID: [1021 579 912382147 5416395]
FSType: 0
OS2Version: 2
OS2_WeightWidthSlopeOnly: 0
OS2_UseTypoMetrics: 1
CreationTime: 1248129682
ModificationTime: 1275298405
PfmFamily: 17
TTFWeight: 250
TTFWidth: 5
LineGap: 0
VLineGap: 0
Panose: 2 0 3 3 0 0 0 0 0 0
OS2TypoAscent: 0
OS2TypoAOffset: 1
OS2TypoDescent: 0
OS2TypoDOffset: 1
OS2TypoLinegap: 0
OS2WinAscent: 0
OS2WinAOffset: 1
OS2WinDescent: 0
OS2WinDOffset: 1
HheadAscent: 0
HheadAOffset: 1
HheadDescent: 0
HheadDOffset: 1
OS2SubXSize: 1331
OS2SubYSize: 1433
OS2SubXOff: 0
OS2SubYOff: 286
OS2SupXSize: 1331
OS2SupYSize: 1433
OS2SupXOff: 0
OS2SupYOff: 983
OS2StrikeYSize: 102
OS2StrikeYPos: 530
OS2Vendor: 'pyrs'
OS2CodePages: 00000001.00000000
OS2UnicodeRanges: 80000087.0000000a.00000000.00000000
DEI: 91125
TtTable: prep
PUSHW_1
 511
SCANCTRL
PUSHB_1
 1
SCANTYPE
SVTCA[y-axis]
MPPEM
PUSHB_1
 8
LT
IF
PUSHB_2
 1
 1
INSTCTRL
EIF
PUSHB_2
 70
 6
CALL
IF
POP
PUSHB_1
 16
EIF
MPPEM
PUSHB_1
 20
GT
IF
POP
PUSHB_1
 128
EIF
SCVTCI
PUSHB_1
 6
CALL
NOT
IF
SVTCA[y-axis]
PUSHB_1
 5
DUP
RCVT
PUSHB_1
 3
CALL
WCVTP
PUSHB_1
 10
DUP
RCVT
PUSHW_3
 5
 265
 2
CALL
PUSHB_1
 3
CALL
WCVTP
PUSHB_1
 9
DUP
RCVT
PUSHB_3
 10
 93
 2
CALL
PUSHB_1
 3
CALL
WCVTP
PUSHB_1
 8
DUP
RCVT
PUSHB_3
 9
 65
 2
CALL
PUSHB_1
 3
CALL
WCVTP
PUSHB_1
 7
DUP
RCVT
PUSHB_3
 8
 51
 2
CALL
PUSHB_1
 3
CALL
WCVTP
PUSHB_1
 6
DUP
RCVT
PUSHB_3
 7
 36
 2
CALL
PUSHB_1
 3
CALL
WCVTP
PUSHB_1
 11
DUP
RCVT
PUSHB_3
 5
 135
 2
CALL
PUSHB_1
 3
CALL
WCVTP
SVTCA[x-axis]
PUSHB_1
 12
DUP
RCVT
PUSHB_1
 3
CALL
WCVTP
PUSHB_1
 14
DUP
RCVT
PUSHB_3
 12
 135
 2
CALL
PUSHB_2
 3
 70
SROUND
CALL
WCVTP
PUSHB_1
 13
DUP
RCVT
PUSHB_3
 14
 38
 2
CALL
PUSHB_2
 3

StartChar: .notdef
Encoding: 65536 -1 0
Width: 748
Flags: W
HStem: 0 68<136 544> 1297 68<136 544>
VStem: 68 68<68 1297> 544 68<68 1297>
LayerCount: 2
Fore
SplineSet
68 0 m 1,0,-1
 68 1365 l 1,1,-1
 612 1365 l 1,2,-1
 612 0 l 1,3,-1
 68 0 l 1,0,-1
136 68 m 1,4,-1
 544 68 l 1,5,-1
 544 1297 l 1,6,-1
 136 1297 l 1,7,-1
 136 68 l 1,4,-1
EndSplineSet
EndChar

StartChar: exclam
Encoding: 33 33 4
Width: 790
Flags: W
HStem: -16 202<293 502> 1559 20G<289.915 517>
VStem: 289 228<1291.52 1578> 293 209<-16 186> 343 115<399 685.477>
LayerCount: 2
Fore
SplineSet
502 186 m 1,0,-1
 502 -16 l 1,1,-1
 293 -16 l 1,2,-1
 293 186 l 1,3,-1
 502 186 l 1,0,-1
458 399 m 1,4,-1
 343 399 l 1,5,-1
 289 1579 l 1,6,-1
 517 1578 l 1,7,-1
 458 399 l 1,4,-1
EndSplineSet
EndChar

StartChar: quotedbl
Encoding: 34 34 5
Width: 634
Flags: W
HStem: 1058 521<96 204 434 542>
VStem: 36 228<1400.48 1579> 374 228<1400.48 1579>
LayerCount: 2
Fore
SplineSet
374 1508 m 1,0,-1
 374 1579 l 1,1,-1
 602 1579 l 1,2,-1
 602 1508 l 1,3,-1
 542 1058 l 1,4,-1
 434 1058 l 1,5,-1
 374 1508 l 1,0,-1
36 1508 m 1,6,-1
 36 1579 l 1,7,-1
 264 1579 l 1,8,-1
 264 1508 l 1,9,-1
 204 1058 l 1,10,-1
 96 1058 l 1,11,-1
 36 1508 l 1,6,-1
EndSplineSet
EndChar

StartChar: numbersign
Encoding: 35 35 6
Width: 1234
Flags: W
HStem: 561 123<230 396 549 723 875 1051> 905 125<258 433 586 758 914 1074>
LayerCount: 2
Fore
SplineSet
723 561 m 1,0,-1
 537 561 l 1,1,-1
 504 295 l 1,2,-1
 363 295 l 1,3,-1
 396 561 l 1,4,-1
 230 561 l 1,5,-1
 230 684 l 1,6,-1
 406 684 l 1,7,-1
 433 905 l 1,8,-1
 258 905 l 1,9,-1
 258 1030 l 1,10,-1
 447 1030 l 1,11,-1
 478 1309 l 1,12,-1
 617 1309 l 1,13,-1
 586 1030 l 1,14,-1
 775 1030 l 1,15,-1
 803 1307 l 1,16,-1
 945 1307 l 1,17,-1
 914 1030 l 1,18,-1
 1074 1030 l 1,19,-1
 1074 905 l 1,20,-1
 902 905 l 1,21,-1
 875 684 l 1,22,-1
 1051 684 l 1,23,-1
 1051 561 l 1,24,-1
 863 561 l 1,25,-1
 832 295 l 1,26,-1
 691 295 l 1,27,-1
 723 561 l 1,0,-1
549 684 m 1,28,-1
 732 684 l 1,29,-1
 758 905 l 1,30,-1
 576 905 l 1,31,-1
 549 684 l 1,28,-1
EndSplineSet
EndChar

StartChar: dollar
Encoding: 36 36 7
Width: 1139
Flags: W
HStem: -20 149<300.594 540 643 783.501> 1099 137<349.172 540 643 901.479>
VStem: 127 167<830.371 1044.12> 540 103<-178 -16.6492 134 539 739 1099 1240 1390> 864 165<205.468 446.901>
LayerCount: 2
Fore
SplineSet
935 1044 m 1,0,1
 842 1078 842 1078 643 1099 c 1,2,-1
 643 709 l 1,3,-1
 675 698 l 1,4,5
 932 607 932 607 994 492 c 0,6,7
 1029 426 1029 426 1029 340.5 c 128,-1,8
 1029 255 1029 255 1006.5 199 c 0,9,10
 965 95 965 95 864.954 43.7413 c 0,11,12
 765 -8 765 -8 643 -18 c 1,13,-1
 643 -178 l 1,14,-1
 540 -178 l 1,15,-1
 540 -20 l 1,16,17
 385 -9 385 -9 312 15 c 6,18,-1
 166 63 l 5,19,-1
 215 207 l 5,20,-1
 318 167 l 5,21,22
 411 140 411 140 540 129 c 1,23,-1
 540 568 l 1,24,-1
 434 595 l 2,25,26
 127 673 127 673 127 929 c 0,27,28
 127 1011 127 1011 166.5 1069 c 128,-1,29
 206 1127 206 1127 248 1159 c 1,30,31
 340 1232 340 1232 540 1240 c 1,32,-1
 540 1390 l 1,33,-1
 643 1390 l 1,34,-1
 643 1236 l 1,35,36
 806 1233 806 1233 924 1194 c 1,37,38
 976.137 1177.96 976.137 1177.96 974 1171 c 2,39,-1
 935 1044 l 1,0,1
643 539 m 1,40,-1
 643 134 l 1,41,42
 743 135 743 135 803.5 189 c 128,-1,43
 864 243 864 243 864 329 c 0,44,45
 864 416.631 864 416.631 798.5 465 c 0,46,47
 755.339 496.873 755.339 496.873 643 539 c 1,40,-1
540 739 m 1,48,-1
 540 1099 l 1,49,50
 385 1100 385 1100 336.5 1042 c 0,51,52
 294 991 294 991 294 932 c 128,-1,53
 294 873 294 873 329.5 834 c 128,-1,54
 365 795 365 795 464 759 c 1,55,-1
 540 739 l 1,48,-1
EndSplineSet
EndChar

StartChar: percent
Encoding: 37 37 8
Width: 1724
Flags: W
HStem: -21 110<1202.16 1437.84> 678 110<291.162 526.838 1192.52 1447.48> 1391 104<294.177 523.823>
VStem: 88 133<864.71 1312.1> 597 133<864.71 1312.1> 999 133<165.71 613.098> 1508 133<165.71 613.098>
LayerCount: 2
Fore
SplineSet
1320 89 m 128,-1,1
 1229 89 1229 89 1180.5 159.5 c 128,-1,2
 1132 230 1132 230 1132 393 c 0,3,4
 1132 692 1132 692 1320 692 c 128,-1,5
 1508 692 1508 692 1508 393 c 0,6,7
 1508 230 1508 230 1459.5 159.5 c 128,-1,0
 1411 89 1411 89 1320 89 c 128,-1,1
1320 796 m 128,-1,9
 1170 796 1170 796 1084.5 693.5 c 128,-1,10
 999 591 999 591 999 372 c 0,11,12
 999 322 999 322 1007 272.5 c 128,-1,13
 1015 223 1015 223 1037.5 168.5 c 128,-1,14
 1060 114 1060 114 1094.5 73.5 c 128,-1,15
 1129 33 1129 33 1187.5 6 c 128,-1,16
 1246 -21 1246 -21 1320 -21 c 128,-1,17
 1394 -21 1394 -21 1452.5 6 c 128,-1,18
 1511 33 1511 33 1545.5 73.5 c 128,-1,19
 1580 114 1580 114 1602.5 168.5 c 128,-1,20
 1625 223 1625 223 1633 272.5 c 128,-1,21
 1641 322 1641 322 1641 372 c 0,22,23
 1641 591 1641 591 1555.5 693.5 c 128,-1,8
 1470 796 1470 796 1320 796 c 128,-1,9
409 788 m 128,-1,25
 318 788 318 788 269.5 858.5 c 128,-1,26
 221 929 221 929 221 1092 c 0,27,28
 221 1391 221 1391 409 1391 c 128,-1,29
 597 1391 597 1391 597 1092 c 0,30,31
 597 929 597 929 548.5 858.5 c 128,-1,24
 500 788 500 788 409 788 c 128,-1,25
409 1495 m 128,-1,33
 259 1495 259 1495 173.5 1392.5 c 128,-1,34
 88 1290 88 1290 88 1071 c 0,35,36
 88 1021 88 1021 96 971.5 c 128,-1,37
 104 922 104 922 126.5 867.5 c 128,-1,38
 149 813 149 813 183.5 772.5 c 128,-1,39
 218 732 218 732 276.5 705 c 128,-1,40
 335 678 335 678 409 678 c 128,-1,41
 483 678 483 678 541.5 705 c 128,-1,42
 600 732 600 732 634.5 772.5 c 128,-1,43
 669 813 669 813 691.5 867.5 c 128,-1,44
 714 922 714 922 722 971.5 c 128,-1,45
 730 1021 730 1021 730 1071 c 0,46,47
 730 1290 730 1290 644.5 1392.5 c 128,-1,32
 559 1495 559 1495 409 1495 c 128,-1,33
454 37 m 1,48,-1
 1136 1497 l 1,49,-1
 1265 1430 l 1,50,-1
 584 -22 l 1,51,-1
 454 37 l 1,48,-1
EndSplineSet
EndChar

StartChar: ampersand
Encoding: 38 38 9
Width: 1658
Flags: W
HStem: -39 139<468.349 1016.48> -7 21G<1463.16 1503.86> 1310 135<504.673 847.98>
VStem: 148 182<227.482 596.948> 280 166<1004.17 1250.74> 920 160<991.451 1242> 1230 164<397.374 796>
LayerCount: 2
Fore
SplineSet
920 1119 m 0,0,1
 920 1211 920 1211 854.5 1260.5 c 128,-1,2
 789 1310 789 1310 679 1310 c 0,3,4
 567 1310 567 1310 511 1270.5 c 128,-1,5
 455 1231 455 1231 446 1131 c 0,6,7
 446 1126 446 1126 446 1121 c 0,8,9
 446 1099 446 1099 452 1077.5 c 128,-1,10
 458 1056 458 1056 469 1037 c 128,-1,11
 480 1018 480 1018 494 1000 c 128,-1,12
 508 982 508 982 523 967 c 128,-1,13
 538 952 538 952 553.5 938.5 c 128,-1,14
 569 925 569 925 583 915 c 128,-1,15
 597 905 597 905 607.5 898 c 128,-1,16
 618 891 618 891 624.5 887 c 128,-1,17
 631 883 631 883 631 883 c 1,18,19
 701 904 701 904 744 920 c 128,-1,20
 787 936 787 936 824.5 955.5 c 128,-1,21
 862 975 862 975 881 997.5 c 128,-1,22
 900 1020 900 1020 910 1049.5 c 128,-1,23
 920 1079 920 1079 920 1119 c 0,0,1
715 -39 m 0,24,25
 446 -39 446 -39 297 79 c 128,-1,26
 148 197 148 197 148 396 c 0,27,28
 148 557 148 557 230.5 665 c 128,-1,29
 313 773 313 773 482 822 c 1,30,31
 474 827 474 827 459.5 837.5 c 128,-1,32
 445 848 445 848 411 879 c 128,-1,33
 377 910 377 910 350 943 c 128,-1,34
 323 976 323 976 301.5 1022.5 c 128,-1,35
 280 1069 280 1069 280 1113 c 0,36,37
 280 1261 280 1261 384 1353 c 128,-1,38
 488 1445 488 1445 679 1445 c 0,39,40
 776 1445 776 1445 852.5 1420 c 128,-1,41
 929 1395 929 1395 978.5 1350 c 128,-1,42
 1028 1305 1028 1305 1054 1245.5 c 128,-1,43
 1080 1186 1080 1186 1080 1115 c 0,44,45
 1080 1059 1080 1059 1064.5 1014.5 c 128,-1,46
 1049 970 1049 970 1021 937 c 128,-1,47
 993 904 993 904 946.5 875.5 c 128,-1,48
 900 847 900 847 848 825.5 c 128,-1,49
 796 804 796 804 721 781 c 1,50,-1
 1216 391 l 1,51,52
 1230 595 1230 595 1230 796 c 1,53,-1
 1394 796 l 1,54,55
 1394 666 1394 666 1382 536 c 128,-1,56
 1370 406 1370 406 1359 341 c 1,57,-1
 1347 277 l 1,58,-1
 1573 95 l 1,59,-1
 1487 -7 l 1,60,-1
 1276 170 l 1,61,62
 1248 117 1248 117 1185 75 c 128,-1,63
 1122 33 1122 33 1042 9 c 128,-1,64
 962 -15 962 -15 878.5 -27 c 128,-1,65
 795 -39 795 -39 715 -39 c 0,24,25
330 418 m 0,66,67
 330 250 330 250 419 175 c 128,-1,68
 508 100 508 100 715 100 c 0,69,70
 1065 100 1065 100 1164 256 c 1,71,-1
 576 726 l 1,72,73
 330 674 330 674 330 418 c 0,66,67
EndSplineSet
EndChar

StartChar: quotesingle
Encoding: 39 39 10
Width: 634
Flags: W
HStem: 1058 521<265 373>
VStem: 205 228<1400.48 1579>
LayerCount: 2
Fore
SplineSet
205 1508 m 1,0,-1
 205 1579 l 1,1,-1
 433 1579 l 1,2,-1
 433 1508 l 1,3,-1
 373 1058 l 1,4,-1
 265 1058 l 1,5,-1
 205 1508 l 1,0,-1
EndSplineSet
EndChar

StartChar: parenleft
Encoding: 40 40 11
Width: 864
Flags: W
HStem: 1575 20G<638 681.765>
VStem: 283 186<335.351 1041.04>
LayerCount: 2
Fore
SplineSet
771 1493 m 1,0,1
 734 1461 734 1461 695.5 1413.5 c 128,-1,2
 657 1366 657 1366 615.5 1291.5 c 128,-1,3
 574 1217 574 1217 542 1131 c 128,-1,4
 510 1045 510 1045 489.5 930.5 c 128,-1,5
 469 816 469 816 469 694 c 0,6,7
 469 568 469 568 489 451 c 128,-1,8
 509 334 509 334 539 248.5 c 128,-1,9
 569 163 569 163 608.5 90.5 c 128,-1,10
 648 18 648 18 684.5 -26.5 c 128,-1,11
 721 -71 721 -71 755 -97 c 1,12,-1
 672 -205 l 1,13,14
 640 -185 640 -185 603.5 -150.5 c 128,-1,15
 567 -116 567 -116 521.5 -61 c 128,-1,16
 476 -6 476 -6 435 70 c 128,-1,17
 394 146 394 146 359 237 c 128,-1,18
 324 328 324 328 303.5 447.5 c 128,-1,19
 283 567 283 567 283 696 c 0,20,21
 283 840 283 840 309.5 973 c 128,-1,22
 336 1106 336 1106 376.5 1202.5 c 128,-1,23
 417 1299 417 1299 469.5 1381.5 c 128,-1,24
 522 1464 522 1464 569 1513.5 c 128,-1,25
 616 1563 616 1563 660 1595 c 1,26,-1
 771 1493 l 1,0,1
EndSplineSet
EndChar

StartChar: parenright
Encoding: 41 41 12
Width: 864
Flags: W
HStem: 1579 20G<177.63 204.5>
VStem: 395 187<350.146 1058.57>
LayerCount: 2
Fore
SplineSet
395 694 m 0,0,1
 395 819 395 819 376 934.5 c 128,-1,2
 357 1050 357 1050 327 1136 c 128,-1,3
 297 1222 297 1222 258 1295 c 128,-1,4
 219 1368 219 1368 182.5 1414.5 c 128,-1,5
 146 1461 146 1461 110 1491 c 1,6,-1
 193 1599 l 1,7,8
 216 1584 216 1584 248 1555 c 128,-1,9
 280 1526 280 1526 326.5 1474 c 128,-1,10
 373 1422 373 1422 416 1347 c 128,-1,11
 459 1272 459 1272 497.5 1181.5 c 128,-1,12
 536 1091 536 1091 559 967.5 c 128,-1,13
 582 844 582 844 582 710 c 0,14,15
 582 554 582 554 554.5 414 c 128,-1,16
 527 274 527 274 485.5 178 c 128,-1,17
 444 82 444 82 389 1 c 128,-1,18
 334 -80 334 -80 287 -126 c 128,-1,19
 240 -172 240 -172 193 -205 c 1,20,-1
 93 -99 l 1,21,22
 129 -68 129 -68 166.5 -21.5 c 128,-1,23
 204 25 204 25 246 98.5 c 128,-1,24
 288 172 288 172 320.5 257 c 128,-1,25
 353 342 353 342 374 457 c 128,-1,26
 395 572 395 572 395 694 c 0,0,1
EndSplineSet
EndChar

StartChar: asterisk
Encoding: 42 42 13
Width: 933
Flags: W
HStem: 1145 92<25 334 506 815>
LayerCount: 2
Fore
SplineSet
420 1292 m 1,0,-1
 559 1567 l 1,1,-1
 662 1509 l 1,2,-1
 504 1237 l 1,3,-1
 815 1237 l 1,4,-1
 815 1145 l 1,5,-1
 506 1145 l 1,6,-1
 676 872 l 1,7,-1
 574 815 l 1,8,-1
 420 1090 l 1,9,-1
 266 815 l 1,10,-1
 164 872 l 1,11,-1
 334 1145 l 1,12,-1
 25 1145 l 1,13,-1
 25 1237 l 1,14,-1
 336 1237 l 1,15,-1
 178 1509 l 1,16,-1
 281 1567 l 1,17,-1
 420 1292 l 1,0,-1
EndSplineSet
EndChar

StartChar: plus
Encoding: 43 43 14
Width: 1040
Flags: W
HStem: 518 133<166 479 620 934>
VStem: 479 141<174 518 651 995>
LayerCount: 2
Fore
SplineSet
934 518 m 1,0,-1
 620 518 l 1,1,-1
 620 174 l 1,2,-1
 479 174 l 1,3,-1
 479 518 l 1,4,-1
 166 518 l 1,5,-1
 166 651 l 1,6,-1
 479 651 l 1,7,-1
 479 995 l 1,8,-1
 620 995 l 1,9,-1
 620 651 l 1,10,-1
 934 651 l 1,11,-1
 934 518 l 1,0,-1
EndSplineSet
EndChar

StartChar: comma
Encoding: 44 44 15
Width: 537
Flags: W
HStem: -253 546
VStem: 114 281<2.60352 293> 245 150<-97.9299 0>
LayerCount: 2
Fore
SplineSet
114 0 m 1,0,-1
 114 293 l 1,1,-1
 395 293 l 1,2,-1
 395 44 l 2,3,4
 395 -70 395 -70 336.5 -145.5 c 128,-1,5
 278 -221 278 -221 166 -253 c 1,6,-1
 115 -159 l 1,7,8
 190 -133 190 -133 217.5 -99 c 128,-1,9
 245 -65 245 -65 245 0 c 1,10,-1
 114 0 l 1,0,-1
EndSplineSet
EndChar

StartChar: hyphen
Encoding: 45 45 16
Width: 944
Flags: W
HStem: 508 157<134 810>
VStem: 134 676<508 665>
LayerCount: 2
Fore
SplineSet
810 508 m 1,0,-1
 134 508 l 1,1,-1
 134 665 l 1,2,-1
 810 665 l 1,3,-1
 810 508 l 1,0,-1
EndSplineSet
EndChar

StartChar: period
Encoding: 46 46 17
Width: 518
Flags: W
HStem: -17 230<165.489 322.058>
VStem: 133 220<18.0657 177.934>
LayerCount: 2
Fore
SplineSet
245 213 m 0,0,1
 293 213 293 213 323 179.5 c 128,-1,2
 353 146 353 146 353 98 c 128,-1,3
 353 50 353 50 323 16.5 c 128,-1,4
 293 -17 293 -17 245 -17 c 0,5,6
 196 -17 196 -17 164.5 17 c 128,-1,7
 133 51 133 51 133 98 c 128,-1,8
 133 145 133 145 164.5 179 c 128,-1,9
 196 213 196 213 245 213 c 0,0,1
EndSplineSet
EndChar

StartChar: slash
Encoding: 47 47 18
Width: 1043
Flags: W
LayerCount: 2
Fore
SplineSet
193 -117 m 1,0,-1
 818 1731 l 1,1,-1
 987 1669 l 1,2,-1
 363 -179 l 1,3,-1
 193 -117 l 1,0,-1
EndSplineSet
EndChar

StartChar: zero
Encoding: 48 48 19
Width: 1356
Flags: W
HStem: -31 142<494.893 873.764> 1069 141<490.419 874.11>
VStem: 115 186<329.404 856.142> 1067 186<332.405 854.067>
LayerCount: 2
Fore
SplineSet
682 1069 m 0,0,1
 594 1069 594 1069 526 1041.5 c 128,-1,2
 458 1014 458 1014 416 969 c 128,-1,3
 374 924 374 924 347.5 860.5 c 128,-1,4
 321 797 321 797 311 732 c 128,-1,5
 301 667 301 667 301 592 c 0,6,7
 301 473 301 473 326.5 383.5 c 128,-1,8
 352 294 352 294 390.5 243.5 c 128,-1,9
 429 193 429 193 482.5 162 c 128,-1,10
 536 131 536 131 583 121 c 128,-1,11
 630 111 630 111 682 111 c 0,12,13
 771 111 771 111 840 139.5 c 128,-1,14
 909 168 909 168 951 214 c 128,-1,15
 993 260 993 260 1020 326 c 128,-1,16
 1047 392 1047 392 1057 459.5 c 128,-1,17
 1067 527 1067 527 1067 606 c 0,18,19
 1067 673 1067 673 1057.5 733 c 128,-1,20
 1048 793 1048 793 1021.5 856.5 c 128,-1,21
 995 920 995 920 953.5 965.5 c 128,-1,22
 912 1011 912 1011 842 1040 c 128,-1,23
 772 1069 772 1069 682 1069 c 0,0,1
1253 590 m 0,24,25
 1253 487 1253 487 1230.5 394.5 c 128,-1,26
 1208 302 1208 302 1161.5 224 c 128,-1,27
 1115 146 1115 146 1048 89.5 c 128,-1,28
 981 33 981 33 887.5 1 c 128,-1,29
 794 -31 794 -31 682 -31 c 0,30,31
 552 -31 552 -31 449.5 11.5 c 128,-1,32
 347 54 347 54 286 118.5 c 128,-1,33
 225 183 225 183 185 269 c 128,-1,34
 145 355 145 355 130 433.5 c 128,-1,35
 115 512 115 512 115 590 c 0,36,37
 115 723 115 723 151 835 c 128,-1,38
 187 947 187 947 256 1031 c 128,-1,39
 325 1115 325 1115 434.5 1162.5 c 128,-1,40
 544 1210 544 1210 682 1210 c 0,41,42
 813 1210 813 1210 916 1168.5 c 128,-1,43
 1019 1127 1019 1127 1081 1063 c 128,-1,44
 1143 999 1143 999 1183 914 c 128,-1,45
 1223 829 1223 829 1238 749.5 c 128,-1,46
 1253 670 1253 670 1253 590 c 0,24,25
EndSplineSet
EndChar

StartChar: one
Encoding: 49 49 20
Width: 744
Flags: W
HStem: 0 21G<314 501>
VStem: 314 187<0 1057>
LayerCount: 2
Fore
SplineSet
314 0 m 1,0,-1
 314 1057 l 1,1,-1
 107 957 l 1,2,-1
 54 1083 l 1,3,-1
 311 1202 l 1,4,-1
 501 1202 l 1,5,-1
 501 0 l 1,6,-1
 314 0 l 1,0,-1
EndSplineSet
EndChar

StartChar: two
Encoding: 50 50 21
Width: 1104
Flags: W
HStem: 0 152<342 938> 1059 139<284.341 688.35>
VStem: 776 162<688.499 977.629>
LayerCount: 2
Fore
SplineSet
342 152 m 1,0,-1
 938 152 l 1,1,-1
 938 0 l 1,2,-1
 123 0 l 1,3,-1
 123 146 l 1,4,-1
 531 480 l 1,5,6
 679 605 679 605 727.5 681.5 c 128,-1,7
 776 758 776 758 776 846 c 0,8,9
 776 949 776 949 704 1004 c 128,-1,10
 632 1059 632 1059 500 1059 c 0,11,12
 442 1059 442 1059 375.5 1042.5 c 128,-1,13
 309 1026 309 1026 272 1009 c 2,14,-1
 235 992 l 1,15,-1
 182 1108 l 1,16,17
 186 1112 186 1112 194.5 1118 c 128,-1,18
 203 1124 203 1124 234 1139.5 c 128,-1,19
 265 1155 265 1155 301 1167 c 128,-1,20
 337 1179 337 1179 396.5 1188.5 c 128,-1,21
 456 1198 456 1198 522 1198 c 0,22,23
 617 1198 617 1198 691.5 1177 c 128,-1,24
 766 1156 766 1156 811.5 1122 c 128,-1,25
 857 1088 857 1088 886.5 1041 c 128,-1,26
 916 994 916 994 927 946.5 c 128,-1,27
 938 899 938 899 938 845 c 0,28,29
 938 767 938 767 910.5 699 c 128,-1,30
 883 631 883 631 813 551 c 128,-1,31
 743 471 743 471 621 376 c 1,32,-1
 342 152 l 1,0,-1
EndSplineSet
EndChar

StartChar: three
Encoding: 51 51 22
Width: 1136
Flags: W
HStem: -198 139<270.997 701.509> 1063 143<246.418 691.717>
VStem: 775 165<706.177 984.005> 799 180<33.8334 338.078>
LayerCount: 2
Fore
SplineSet
775 843 m 0,0,1
 775 957 775 957 703.5 1010 c 128,-1,2
 632 1063 632 1063 486 1063 c 0,3,4
 413 1063 413 1063 339 1045.5 c 128,-1,5
 265 1028 265 1028 227 1010 c 2,6,-1
 189 992 l 1,7,-1
 139 1125 l 1,8,9
 158 1134 158 1134 190.5 1147.5 c 128,-1,10
 223 1161 223 1161 315.5 1183.5 c 128,-1,11
 408 1206 408 1206 492 1206 c 0,12,13
 551 1206 551 1206 607.5 1197.5 c 128,-1,14
 664 1189 664 1189 726 1166 c 128,-1,15
 788 1143 788 1143 834 1106.5 c 128,-1,16
 880 1070 880 1070 910 1008 c 128,-1,17
 940 946 940 946 940 866 c 0,18,19
 940 797 940 797 918.5 740 c 128,-1,20
 897 683 897 683 864.5 648 c 128,-1,21
 832 613 832 613 791.5 588.5 c 128,-1,22
 751 564 751 564 715.5 554.5 c 128,-1,23
 680 545 680 545 651 545 c 1,24,25
 692 537 692 537 730 523.5 c 128,-1,26
 768 510 768 510 815.5 480.5 c 128,-1,27
 863 451 863 451 897.5 412 c 128,-1,28
 932 373 932 373 955.5 308.5 c 128,-1,29
 979 244 979 244 979 166 c 0,30,31
 979 93 979 93 952 31.5 c 128,-1,32
 925 -30 925 -30 879.5 -71.5 c 128,-1,33
 834 -113 834 -113 773 -142 c 128,-1,34
 712 -171 712 -171 646 -184.5 c 128,-1,35
 580 -198 580 -198 511 -198 c 0,36,37
 408 -198 408 -198 307 -174 c 128,-1,38
 206 -150 206 -150 156 -126 c 2,39,-1
 106 -102 l 1,40,-1
 160 31 l 1,41,42
 180 21 180 21 214 6 c 128,-1,43
 248 -9 248 -9 341.5 -34 c 128,-1,44
 435 -59 435 -59 515 -59 c 0,45,46
 654 -59 654 -59 726.5 4 c 128,-1,47
 799 67 799 67 799 186 c 0,48,49
 799 434 799 434 463 471 c 1,50,-1
 463 614 l 1,51,52
 523 614 523 614 575 625 c 128,-1,53
 627 636 627 636 674 660.5 c 128,-1,54
 721 685 721 685 748 731.5 c 128,-1,55
 775 778 775 778 775 843 c 0,0,1
EndSplineSet
EndChar

StartChar: four
Encoding: 52 52 23
Width: 1199
Flags: W
HStem: 68 137<263 755 924 1110>
VStem: 755 169<-260 68 207 930>
LayerCount: 2
Fore
SplineSet
762 1208 m 1,0,-1
 924 1169 l 1,1,-1
 924 207 l 1,2,-1
 1110 207 l 1,3,-1
 1110 68 l 1,4,-1
 924 68 l 1,5,-1
 924 -260 l 1,6,-1
 755 -260 l 5,7,-1
 755 68 l 5,8,-1
 106 68 l 1,9,-1
 78 205 l 1,10,-1
 762 1208 l 1,0,-1
755 930 m 5,11,-1
 263 205 l 1,12,-1
 755 205 l 5,13,-1
 755 930 l 5,11,-1
EndSplineSet
EndChar

StartChar: five
Encoding: 53 53 24
Width: 1102
Flags: W
HStem: -207 151<286.521 713.628> 562 136<360.355 708.683> 1018 151<316 919>
VStem: 171 145<622 1018> 835 172<63.1396 432.125>
LayerCount: 2
Fore
SplineSet
518 -56 m 0,0,1
 835 -56 835 -56 835 244 c 0,2,3
 835 394 835 394 758 478 c 128,-1,4
 681 562 681 562 538 562 c 0,5,6
 433 562 433 562 239 468 c 1,7,-1
 171 537 l 1,8,-1
 171 1169 l 1,9,-1
 919 1169 l 1,10,-1
 919 1018 l 1,11,-1
 316 1018 l 1,12,-1
 316 622 l 2,13,14
 316 625 316 625 339.5 642 c 128,-1,15
 363 659 363 659 423 678.5 c 128,-1,16
 483 698 483 698 556 698 c 0,17,18
 759 698 759 698 883 575.5 c 128,-1,19
 1007 453 1007 453 1007 248 c 0,20,21
 1007 38 1007 38 877 -84.5 c 128,-1,22
 747 -207 747 -207 516 -207 c 0,23,24
 429 -207 429 -207 334 -183.5 c 128,-1,25
 239 -160 239 -160 187 -138.5 c 128,-1,26
 135 -117 135 -117 135 -115 c 2,27,-1
 186 31 l 1,28,-1
 192 28 l 2,29,30
 198 25 198 25 209.5 20 c 128,-1,31
 221 15 221 15 236.5 8.5 c 128,-1,32
 252 2 252 2 271.5 -5.5 c 128,-1,33
 291 -13 291 -13 313 -20 c 128,-1,34
 335 -27 335 -27 360 -33.5 c 128,-1,35
 385 -40 385 -40 410.5 -45 c 128,-1,36
 436 -50 436 -50 464 -53 c 128,-1,37
 492 -56 492 -56 518 -56 c 0,0,1
EndSplineSet
EndChar

StartChar: six
Encoding: 54 54 25
Width: 1234
Flags: W
HStem: -156 142<447.132 796.124> 657 136<444.337 817.053> 1174 145<729.442 836.251>
VStem: 117 178<157.332 623.84> 946 176<146.843 524.892>
LayerCount: 2
Fore
SplineSet
946 335 m 0,0,1
 946 273 946 273 929 215 c 128,-1,2
 912 157 912 157 876.5 104 c 128,-1,3
 841 51 841 51 775 18.5 c 128,-1,4
 709 -14 709 -14 622 -14 c 0,5,6
 543 -14 543 -14 482.5 12.5 c 128,-1,7
 422 39 422 39 387.5 79.5 c 128,-1,8
 353 120 353 120 331 177.5 c 128,-1,9
 309 235 309 235 302 288 c 128,-1,10
 295 341 295 341 295 401 c 0,11,12
 295 486 295 486 301 523 c 1,13,14
 331 558 331 558 434 607.5 c 128,-1,15
 537 657 537 657 656 657 c 0,16,17
 778 657 778 657 862 577 c 128,-1,18
 946 497 946 497 946 335 c 0,0,1
117 425 m 0,19,20
 117 156 117 156 246 0 c 128,-1,21
 375 -156 375 -156 622 -156 c 0,22,23
 742 -156 742 -156 839 -116.5 c 128,-1,24
 936 -77 936 -77 997 -8.5 c 128,-1,25
 1058 60 1058 60 1090 147.5 c 128,-1,26
 1122 235 1122 235 1122 335 c 0,27,28
 1122 538 1122 538 997 665.5 c 128,-1,29
 872 793 872 793 656 793 c 0,30,31
 436 793 436 793 315 649 c 1,32,33
 332 743 332 743 376 824.5 c 128,-1,34
 420 906 420 906 476.5 963 c 128,-1,35
 533 1020 533 1020 604 1064.5 c 128,-1,36
 675 1109 675 1109 741.5 1134.5 c 128,-1,37
 808 1160 808 1160 875 1174 c 1,38,-1
 832 1319 l 1,39,40
 716 1292 716 1292 612.5 1242 c 128,-1,41
 509 1192 509 1192 417.5 1113.5 c 128,-1,42
 326 1035 326 1035 260 936 c 128,-1,43
 194 837 194 837 155.5 705.5 c 128,-1,44
 117 574 117 574 117 425 c 0,19,20
EndSplineSet
EndChar

StartChar: seven
Encoding: 55 55 26
Width: 1132
Flags: W
HStem: 1074 155<145 823>
LayerCount: 2
Fore
SplineSet
981 1229 m 1,0,-1
 1038 1107 l 1,1,-1
 466 -176 l 1,2,-1
 298 -100 l 1,3,-1
 823 1074 l 1,4,-1
 145 1074 l 1,5,-1
 145 1229 l 1,6,-1
 981 1229 l 1,0,-1
EndSplineSet
EndChar

StartChar: eight
Encoding: 56 56 27
Width: 1262
Flags: W
HStem: -148 139<431.518 837.276> 575 116<478.415 790.498> 1199 135<436.629 830.02>
VStem: 158 178<85.9186 429.208 820.475 1106.69> 926 178<78.7494 432.8 815.604 1109.87>
LayerCount: 2
Fore
SplineSet
637 1334 m 0,0,1
 430 1334 430 1334 294 1238 c 128,-1,2
 158 1142 158 1142 158 968 c 0,3,4
 158 897 158 897 181.5 838.5 c 128,-1,5
 205 780 205 780 245.5 741 c 128,-1,6
 286 702 286 702 328 677.5 c 128,-1,7
 370 653 370 653 420 636 c 1,8,9
 296 597 296 597 227 494 c 128,-1,10
 158 391 158 391 158 233 c 0,11,12
 158 138 158 138 195.5 64 c 128,-1,13
 233 -10 233 -10 299 -55.5 c 128,-1,14
 365 -101 365 -101 450.5 -124.5 c 128,-1,15
 536 -148 536 -148 637 -148 c 0,16,17
 845 -148 845 -148 974.5 -52 c 128,-1,18
 1104 44 1104 44 1104 231 c 0,19,20
 1104 389 1104 389 1035 492 c 128,-1,21
 966 595 966 595 842 634 c 1,22,23
 892 651 892 651 934 675.5 c 128,-1,24
 976 700 976 700 1016.5 739 c 128,-1,25
 1057 778 1057 778 1080.5 836.5 c 128,-1,26
 1104 895 1104 895 1104 966 c 0,27,28
 1104 1141 1104 1141 973 1237.5 c 128,-1,29
 842 1334 842 1334 637 1334 c 0,0,1
637 -9 m 0,30,31
 469 -9 469 -9 402.5 59 c 128,-1,32
 336 127 336 127 336 255 c 0,33,34
 336 395 336 395 422 485 c 128,-1,35
 508 575 508 575 637 575 c 0,36,37
 763 575 763 575 844.5 484 c 128,-1,38
 926 393 926 393 926 253 c 0,39,40
 926 190 926 190 914 145.5 c 128,-1,41
 902 101 902 101 871 64.5 c 128,-1,42
 840 28 840 28 782 9.5 c 128,-1,43
 724 -9 724 -9 637 -9 c 0,30,31
637 691 m 0,44,45
 515 691 515 691 425.5 770 c 128,-1,46
 336 849 336 849 336 966 c 0,47,48
 336 1020 336 1020 354 1062 c 128,-1,49
 372 1104 372 1104 401 1129.5 c 128,-1,50
 430 1155 430 1155 470.5 1171 c 128,-1,51
 511 1187 511 1187 551 1193 c 128,-1,52
 591 1199 591 1199 637 1199 c 0,53,54
 695 1199 695 1199 743 1188 c 128,-1,55
 791 1177 791 1177 834 1152.5 c 128,-1,56
 877 1128 877 1128 901.5 1079.5 c 128,-1,57
 926 1031 926 1031 926 964 c 0,58,59
 926 847 926 847 841 769 c 128,-1,60
 756 691 756 691 637 691 c 0,44,45
EndSplineSet
EndChar

StartChar: nine
Encoding: 57 57 28
Width: 1234
Flags: W
HStem: -161 145<402.749 509.558> 365 136<421.947 794.415> 1172 142<442.876 791.868>
VStem: 117 176<633.108 1011.16> 944 178<534.16 1000.67>
LayerCount: 2
Fore
SplineSet
293 823 m 0,0,1
 293 885 293 885 310 943 c 128,-1,2
 327 1001 327 1001 362.5 1054 c 128,-1,3
 398 1107 398 1107 464 1139.5 c 128,-1,4
 530 1172 530 1172 617 1172 c 0,5,6
 696 1172 696 1172 756.5 1145.5 c 128,-1,7
 817 1119 817 1119 851.5 1078.5 c 128,-1,8
 886 1038 886 1038 908 980.5 c 128,-1,9
 930 923 930 923 937 870 c 128,-1,10
 944 817 944 817 944 757 c 0,11,12
 944 672 944 672 938 635 c 1,13,14
 908 600 908 600 805 550.5 c 128,-1,15
 702 501 702 501 583 501 c 0,16,17
 461 501 461 501 377 581 c 128,-1,18
 293 661 293 661 293 823 c 0,0,1
1122 733 m 0,19,20
 1122 1002 1122 1002 993 1158 c 128,-1,21
 864 1314 864 1314 617 1314 c 0,22,23
 497 1314 497 1314 400 1274.5 c 128,-1,24
 303 1235 303 1235 242 1166.5 c 128,-1,25
 181 1098 181 1098 149 1010.5 c 128,-1,26
 117 923 117 923 117 823 c 0,27,28
 117 620 117 620 242 492.5 c 128,-1,29
 367 365 367 365 583 365 c 0,30,31
 802 365 802 365 924 509 c 1,32,33
 907 415 907 415 863 333.5 c 128,-1,34
 819 252 819 252 762.5 195 c 128,-1,35
 706 138 706 138 635 93.5 c 128,-1,36
 564 49 564 49 497.5 23.5 c 128,-1,37
 431 -2 431 -2 364 -16 c 1,38,-1
 407 -161 l 1,39,40
 523 -134 523 -134 626.5 -84 c 128,-1,41
 730 -34 730 -34 821.5 44.5 c 128,-1,42
 913 123 913 123 979 222 c 128,-1,43
 1045 321 1045 321 1083.5 452.5 c 128,-1,44
 1122 584 1122 584 1122 733 c 0,19,20
EndSplineSet
EndChar

StartChar: colon
Encoding: 58 58 29
Width: 596
Flags: W
HStem: 0 281<180 450> 583 281<180 450>
VStem: 180 270<0 281 583 864>
LayerCount: 2
Fore
SplineSet
180 281 m 1,0,-1
 450 281 l 1,1,-1
 450 0 l 1,2,-1
 180 0 l 1,3,-1
 180 281 l 1,0,-1
180 864 m 1,4,-1
 450 864 l 1,5,-1
 450 583 l 1,6,-1
 180 583 l 1,7,-1
 180 864 l 1,4,-1
EndSplineSet
EndChar

StartChar: semicolon
Encoding: 59 59 30
Width: 596
Flags: W
HStem: 583 281<174 454>
VStem: 173 281<2.60352 293 583 864> 304 150<-97.9299 0>
LayerCount: 2
Fore
SplineSet
174 864 m 1,0,-1
 454 864 l 1,1,-1
 454 583 l 1,2,-1
 174 583 l 1,3,-1
 174 864 l 1,0,-1
173 0 m 1,4,-1
 173 293 l 1,5,-1
 454 293 l 1,6,-1
 454 44 l 2,7,8
 454 -70 454 -70 395.5 -145.5 c 128,-1,9
 337 -221 337 -221 225 -253 c 1,10,-1
 174 -159 l 1,11,12
 249 -133 249 -133 276.5 -99 c 128,-1,13
 304 -65 304 -65 304 0 c 1,14,-1
 173 0 l 1,4,-1
EndSplineSet
EndChar

StartChar: less
Encoding: 60 60 31
Width: 1507
Flags: W
LayerCount: 2
Fore
SplineSet
333 663 m 1,0,-1
 988 1266 l 1,1,-1
 1090 1156 l 1,2,-1
 539 663 l 1,3,-1
 1090 170 l 1,4,-1
 988 60 l 1,5,-1
 333 663 l 1,0,-1
EndSplineSet
EndChar

StartChar: equal
Encoding: 61 61 32
Width: 864
Flags: W
HStem: 280 131<94 682> 508 131<94 682>
VStem: 94 588<280 411 508 639>
LayerCount: 2
Fore
SplineSet
682 508 m 1,0,-1
 94 508 l 1,1,-1
 94 639 l 1,2,-1
 682 639 l 1,3,-1
 682 508 l 1,0,-1
682 280 m 1,4,-1
 94 280 l 1,5,-1
 94 411 l 1,6,-1
 682 411 l 1,7,-1
 682 280 l 1,4,-1
EndSplineSet
EndChar

StartChar: greater
Encoding: 62 62 33
Width: 1507
Flags: W
LayerCount: 2
Fore
SplineSet
1090 663 m 1,0,-1
 435 1266 l 1,1,-1
 333 1156 l 1,2,-1
 884 663 l 1,3,-1
 333 170 l 1,4,-1
 435 60 l 1,5,-1
 1090 663 l 1,0,-1
EndSplineSet
EndChar

StartChar: question
Encoding: 63 63 34
Width: 1232
Flags: W
HStem: -40 209<295.971 441.028> 1332 21G<162.748 171> 1418 161<254.391 727.757>
VStem: 264 209<-8.54358 137.544> 287 180<292 690.702> 810 191<1046.59 1343.1>
LayerCount: 2
Fore
SplineSet
467 675 m 1,0,-1
 467 292 l 1,1,-1
 287 292 l 1,2,-1
 287 777 l 1,3,4
 397 815 397 815 474 847.5 c 128,-1,5
 551 880 551 880 618.5 918.5 c 128,-1,6
 686 957 686 957 725.5 997 c 128,-1,7
 765 1037 765 1037 787.5 1087 c 128,-1,8
 810 1137 810 1137 810 1197 c 0,9,10
 810 1319 810 1319 736.5 1368.5 c 128,-1,11
 663 1418 663 1418 499 1418 c 0,12,13
 445 1418 445 1418 391.5 1409.5 c 128,-1,14
 338 1401 338 1401 300 1389 c 128,-1,15
 262 1377 262 1377 231.5 1364 c 128,-1,16
 201 1351 201 1351 186 1342.5 c 128,-1,17
 171 1334 171 1334 171 1332 c 2,18,-1
 112 1475 l 2,19,20
 112 1476 112 1476 131.5 1486 c 128,-1,21
 151 1496 151 1496 189.5 1512 c 128,-1,22
 228 1528 228 1528 275.5 1542.5 c 128,-1,23
 323 1557 323 1557 388.5 1568 c 128,-1,24
 454 1579 454 1579 518 1579 c 0,25,26
 602 1579 602 1579 673.5 1566.5 c 128,-1,27
 745 1554 745 1554 806 1526.5 c 128,-1,28
 867 1499 867 1499 910 1457.5 c 128,-1,29
 953 1416 953 1416 977 1354.5 c 128,-1,30
 1001 1293 1001 1293 1001 1216 c 0,31,32
 1001 1161 1001 1161 990 1111.5 c 128,-1,33
 979 1062 979 1062 960.5 1022 c 128,-1,34
 942 982 942 982 913 944.5 c 128,-1,35
 884 907 884 907 854.5 879 c 128,-1,36
 825 851 825 851 783.5 823.5 c 128,-1,37
 742 796 742 796 707.5 777 c 128,-1,38
 673 758 673 758 626 737.5 c 128,-1,39
 579 717 579 717 546 704 c 128,-1,40
 513 691 513 691 467 675 c 1,0,-1
368 -40 m 0,41,42
 326 -40 326 -40 295 -9.5 c 128,-1,43
 264 21 264 21 264 65 c 0,44,45
 264 108 264 108 294.5 138.5 c 128,-1,46
 325 169 325 169 368 169 c 128,-1,47
 411 169 411 169 442 138.5 c 128,-1,48
 473 108 473 108 473 64 c 128,-1,49
 473 20 473 20 442 -10 c 128,-1,50
 411 -40 411 -40 368 -40 c 0,41,42
EndSplineSet
EndChar

StartChar: at
Encoding: 64 64 35
Width: 1927
Flags: W
HStem: -155 139<676.207 1282.43> 199 131<707.124 1021.45 1385 1535.18> 1008 120<869.049 1235.58> 1317 139<734.623 1293.99>
VStem: 138 159<328.94 866.435> 478 155<406.503 771.941> 1236 149<602.572 987> 1258 127<317 548> 1639 160<492.065 1002.56>
LayerCount: 2
Fore
SplineSet
1237 987 m 1,0,1
 1237 987 1237 987 1212 992 c 256,2,3
 1187 997 1187 997 1143 1002.5 c 128,-1,4
 1099 1008 1099 1008 1061 1008 c 0,5,6
 945 1008 945 1008 847.5 953 c 128,-1,7
 750 898 750 898 691.5 797.5 c 128,-1,8
 633 697 633 697 633 573 c 0,9,10
 633 330 633 330 858 330 c 0,11,12
 935 330 935 330 1001 363 c 128,-1,13
 1067 396 1067 396 1120 463 c 128,-1,14
 1173 530 1173 530 1203.5 643.5 c 128,-1,15
 1234 757 1234 757 1236 906 c 2,16,-1
 1237 987 l 1,0,1
1470 134 m 1,17,-1
 1561 42 l 1,18,19
 1561 42 1561 42 1559 40 c 0,20,21
 1474 -54 1474 -54 1309 -107 c 0,22,23
 1160 -155 1160 -155 973 -155 c 0,24,25
 801 -155 801 -155 660.5 -116 c 128,-1,26
 520 -77 520 -77 424 -10 c 128,-1,27
 328 57 328 57 262.5 150.5 c 128,-1,28
 197 244 197 244 167.5 351 c 128,-1,29
 138 458 138 458 138 578 c 0,30,31
 138 744 138 744 186 887.5 c 128,-1,32
 234 1031 234 1031 316 1134 c 128,-1,33
 398 1237 398 1237 507 1310.5 c 128,-1,34
 616 1384 616 1384 739 1420 c 128,-1,35
 862 1456 862 1456 990 1456 c 0,36,37
 1123 1456 1123 1456 1242.5 1429 c 128,-1,38
 1362 1402 1362 1402 1464 1345.5 c 128,-1,39
 1566 1289 1566 1289 1640.5 1207.5 c 128,-1,40
 1715 1126 1715 1126 1757 1010 c 128,-1,41
 1799 894 1799 894 1799 756 c 0,42,43
 1799 631 1799 631 1768 531 c 128,-1,44
 1737 431 1737 431 1690 370.5 c 128,-1,45
 1643 310 1643 310 1582 270 c 128,-1,46
 1521 230 1521 230 1465.5 214.5 c 128,-1,47
 1410 199 1410 199 1358 199 c 0,48,49
 1324 199 1324 199 1302.5 208 c 128,-1,50
 1281 217 1281 217 1272 236.5 c 128,-1,51
 1263 256 1263 256 1260.5 272.5 c 128,-1,52
 1258 289 1258 289 1258 316 c 2,53,-1
 1258 546 l 1,54,-1
 1258 548 l 1,55,56
 1248 499 1248 499 1227.5 451 c 128,-1,57
 1207 403 1207 403 1171 357 c 128,-1,58
 1135 311 1135 311 1089.5 276.5 c 128,-1,59
 1044 242 1044 242 979.5 220.5 c 128,-1,60
 915 199 915 199 842 199 c 0,61,62
 670 199 670 199 574 304 c 128,-1,63
 478 409 478 409 478 590 c 0,64,65
 478 687 478 687 521.5 784 c 128,-1,66
 565 881 565 881 639 957 c 128,-1,67
 713 1033 713 1033 820 1080.5 c 128,-1,68
 927 1128 927 1128 1045 1128 c 0,69,70
 1081 1128 1081 1128 1152 1120 c 128,-1,71
 1223 1112 1223 1112 1276 1104 c 2,72,-1
 1330 1096 l 1,73,-1
 1385 987 l 1,74,-1
 1385 317 l 1,75,76
 1507 317 1507 317 1573 419.5 c 128,-1,77
 1639 522 1639 522 1639 758 c 0,78,79
 1639 887 1639 887 1601 987 c 128,-1,80
 1563 1087 1563 1087 1501.5 1148 c 128,-1,81
 1440 1209 1440 1209 1353.5 1248.5 c 128,-1,82
 1267 1288 1267 1288 1180.5 1302.5 c 128,-1,83
 1094 1317 1094 1317 996 1317 c 0,84,85
 846 1317 846 1317 718 1266.5 c 128,-1,86
 590 1216 590 1216 496.5 1123 c 128,-1,87
 403 1030 403 1030 350 890 c 128,-1,88
 297 750 297 750 297 578 c 0,89,90
 297 300 297 300 471.5 142.5 c 128,-1,91
 646 -15 646 -15 983 -16 c 0,92,93
 1039 -16 1039 -16 1091.5 -11 c 128,-1,94
 1144 -6 1144 -6 1185.5 2.5 c 128,-1,95
 1227 11 1227 11 1264 22.5 c 128,-1,96
 1301 34 1301 34 1329.5 46.5 c 128,-1,97
 1358 59 1358 59 1381.5 71.5 c 128,-1,98
 1405 84 1405 84 1421 95.5 c 128,-1,99
 1437 107 1437 107 1448 115.5 c 128,-1,100
 1459 124 1459 124 1464 129 c 2,101,-1
 1470 134 l 1,17,-1
EndSplineSet
EndChar

StartChar: A
Encoding: 65 65 36
Width: 1536
Flags: W
HStem: 0 21G<102 301.423 1234.58 1434> 383 102<451 1085> 1559 20G<611.464 924.536>
LayerCount: 2
Fore
SplineSet
1085 485 m 1,0,-1
 768 1460 l 1,1,-1
 451 485 l 1,2,-1
 1085 485 l 1,0,-1
1118 383 m 1,3,-1
 418 383 l 1,4,-1
 295 0 l 1,5,-1
 102 0 l 1,6,-1
 618 1579 l 1,7,-1
 918 1579 l 1,8,-1
 1434 0 l 1,9,-1
 1241 0 l 1,10,-1
 1118 383 l 1,3,-1
EndSplineSet
EndChar

StartChar: B
Encoding: 66 66 37
Width: 1468
Flags: W
HStem: 0 143<391 968.433> 786 129<391 906.093> 1436 143<391 935.555>
VStem: 197 194<143 786 915 1436> 1070 165<1024.18 1332.46> 1135 182<280.677 642.441>
LayerCount: 2
Fore
SplineSet
1070 1188 m 0,0,1
 1070 1280 1070 1280 1028.5 1331.5 c 128,-1,2
 987 1383 987 1383 876 1409.5 c 128,-1,3
 765 1436 765 1436 562 1436 c 2,4,-1
 391 1436 l 1,5,-1
 391 915 l 1,6,-1
 650 915 l 2,7,8
 779 915 779 915 864 933.5 c 128,-1,9
 949 952 949 952 993 990.5 c 128,-1,10
 1037 1029 1037 1029 1053.5 1075 c 128,-1,11
 1070 1121 1070 1121 1070 1188 c 0,0,1
617 143 m 2,12,13
 758 143 758 143 851 157 c 128,-1,14
 944 171 944 171 1010 207.5 c 128,-1,15
 1076 244 1076 244 1105.5 307 c 128,-1,16
 1135 370 1135 370 1135 466 c 0,17,18
 1135 642 1135 642 1021.5 714 c 128,-1,19
 908 786 908 786 654 786 c 2,20,-1
 391 786 l 1,21,-1
 391 143 l 1,22,-1
 617 143 l 2,12,13
910 862 m 1,23,24
 1317 815 1317 815 1317 434 c 0,25,26
 1317 333 1317 333 1280.5 256 c 128,-1,27
 1244 179 1244 179 1182.5 131 c 128,-1,28
 1121 83 1121 83 1029.5 53 c 128,-1,29
 938 23 938 23 839 11.5 c 128,-1,30
 740 0 740 0 617 0 c 2,31,-1
 197 0 l 1,32,-1
 197 1579 l 1,33,-1
 558 1579 l 2,34,35
 728 1579 728 1579 850.5 1560 c 128,-1,36
 973 1541 973 1541 1047 1509.5 c 128,-1,37
 1121 1478 1121 1478 1163.5 1426.5 c 128,-1,38
 1206 1375 1206 1375 1220.5 1319.5 c 128,-1,39
 1235 1264 1235 1264 1235 1188 c 0,40,41
 1235 1146 1235 1146 1229.5 1111.5 c 128,-1,42
 1224 1077 1224 1077 1204.5 1034.5 c 128,-1,43
 1185 992 1185 992 1151.5 960.5 c 128,-1,44
 1118 929 1118 929 1056 902 c 128,-1,45
 994 875 994 875 910 862 c 1,23,24
EndSplineSet
EndChar

StartChar: C
Encoding: 67 67 38
Width: 1267
Flags: W
HStem: -41 152<589.395 1024.94> 1458 152<587.943 1085.92>
VStem: 129 201<430.198 1141.25>
LayerCount: 2
Fore
SplineSet
1089 1412 m 2,0,1
 1086 1413 1086 1413 1062 1420.5 c 128,-1,2
 1038 1428 1038 1428 1026.5 1431 c 128,-1,3
 1015 1434 1015 1434 987.5 1440.5 c 128,-1,4
 960 1447 960 1447 937 1450 c 128,-1,5
 914 1453 914 1453 879.5 1455.5 c 128,-1,6
 845 1458 845 1458 809 1458 c 0,7,8
 676 1458 676 1458 582 1411 c 128,-1,9
 488 1364 488 1364 433.5 1273 c 128,-1,10
 379 1182 379 1182 354.5 1063.5 c 128,-1,11
 330 945 330 945 330 788 c 0,12,13
 330 635 330 635 353 518 c 128,-1,14
 376 401 376 401 417 324.5 c 128,-1,15
 458 248 458 248 519.5 199.5 c 128,-1,16
 581 151 581 151 651.5 131 c 128,-1,17
 722 111 722 111 809 111 c 0,18,19
 826 111 826 111 845 113 c 128,-1,20
 864 115 864 115 881 117.5 c 128,-1,21
 898 120 898 120 918 124.5 c 128,-1,22
 938 129 938 129 953 133 c 128,-1,23
 968 137 968 137 988 143.5 c 128,-1,24
 1008 150 1008 150 1019.5 154 c 128,-1,25
 1031 158 1031 158 1048.5 164.5 c 128,-1,26
 1066 171 1066 171 1073 173.5 c 128,-1,27
 1080 176 1080 176 1094.5 182 c 128,-1,28
 1109 188 1109 188 1110 189 c 2,29,-1
 1183 218 l 1,30,-1
 1239 79 l 1,31,-1
 1170 51 l 2,32,33
 1169 51 1169 51 1137 36 c 128,-1,34
 1105 21 1105 21 1077 11 c 128,-1,35
 1049 1 1049 1 1003.5 -12.5 c 128,-1,36
 958 -26 958 -26 902.5 -33.5 c 128,-1,37
 847 -41 847 -41 789 -41 c 0,38,39
 679 -41 679 -41 586.5 -16 c 128,-1,40
 494 9 494 9 427 52 c 128,-1,41
 360 95 360 95 308 157.5 c 128,-1,42
 256 220 256 220 222.5 291 c 128,-1,43
 189 362 189 362 167.5 446.5 c 128,-1,44
 146 531 146 531 137.5 614 c 128,-1,45
 129 697 129 697 129 788 c 0,46,47
 129 936 129 936 153 1058 c 128,-1,48
 177 1180 177 1180 216 1264 c 128,-1,49
 255 1348 255 1348 311.5 1411.5 c 128,-1,50
 368 1475 368 1475 426.5 1512 c 128,-1,51
 485 1549 485 1549 555.5 1572 c 128,-1,52
 626 1595 626 1595 685.5 1602.5 c 128,-1,53
 745 1610 745 1610 809 1610 c 0,54,55
 870 1610 870 1610 924.5 1603.5 c 128,-1,56
 979 1597 979 1597 1006 1590.5 c 128,-1,57
 1033 1584 1033 1584 1074 1571.5 c 128,-1,58
 1115 1559 1115 1559 1125 1556 c 2,59,-1
 1211 1530 l 1,60,-1
 1166 1385 l 1,61,-1
 1089 1412 l 2,0,1
EndSplineSet
EndChar

StartChar: D
Encoding: 68 68 39
Width: 1569
Flags: W
HStem: 0 143<317 905.064> 1436 143<317 905.064>
VStem: 123 194<143 1436> 1156 201<439.068 1138.25>
LayerCount: 2
Fore
SplineSet
1156 789 m 128,-1,1
 1156 909 1156 909 1143 1004 c 128,-1,2
 1130 1099 1130 1099 1097.5 1182 c 128,-1,3
 1065 1265 1065 1265 1013.5 1319.5 c 128,-1,4
 962 1374 962 1374 882.5 1405 c 128,-1,5
 803 1436 803 1436 698 1436 c 2,6,-1
 317 1436 l 1,7,-1
 317 143 l 1,8,-1
 698 143 l 2,9,10
 803 143 803 143 882.5 174 c 128,-1,11
 962 205 962 205 1013.5 259 c 128,-1,12
 1065 313 1065 313 1097 395.5 c 128,-1,13
 1129 478 1129 478 1142.5 573.5 c 128,-1,0
 1156 669 1156 669 1156 789 c 128,-1,1
698 1579 m 2,14,15
 1357 1579 1357 1579 1357 788 c 0,16,17
 1357 0 1357 0 698 0 c 2,18,-1
 123 0 l 1,19,-1
 123 1579 l 1,20,-1
 698 1579 l 2,14,15
EndSplineSet
EndChar

StartChar: E
Encoding: 69 69 40
Width: 1183
Flags: W
HStem: 0 143<340 1129> 776 115<340 1018> 1436 143<340 1116>
VStem: 146 194<143 776 891 1436>
LayerCount: 2
Fore
SplineSet
1129 0 m 1,0,-1
 146 0 l 1,1,-1
 146 1579 l 1,2,-1
 1116 1579 l 1,3,-1
 1116 1436 l 1,4,-1
 340 1436 l 1,5,-1
 340 891 l 1,6,-1
 1018 891 l 1,7,-1
 1018 776 l 1,8,-1
 340 776 l 1,9,-1
 340 143 l 1,10,-1
 1129 143 l 1,11,-1
 1129 0 l 1,0,-1
EndSplineSet
EndChar

StartChar: F
Encoding: 70 70 41
Width: 1095
Flags: W
HStem: 0 21G<146 342> 762 117<342 1006> 1436 143<342 1067>
VStem: 146 196<0 762 879 1436>
LayerCount: 2
Fore
SplineSet
342 762 m 1,0,-1
 342 0 l 1,1,-1
 146 0 l 1,2,-1
 146 1579 l 1,3,-1
 1067 1579 l 1,4,-1
 1067 1436 l 1,5,-1
 342 1436 l 1,6,-1
 342 879 l 1,7,-1
 1006 879 l 1,8,-1
 1006 762 l 1,9,-1
 342 762 l 1,0,-1
EndSplineSet
EndChar

StartChar: G
Encoding: 71 71 42
Width: 1508
Flags: W
HStem: -41 152<580.711 1023.17> 0 21G<1269.02 1362> 684 127<775 1177> 1457.5 152.5<578.669 1049.11>
VStem: 123 201<444.217 1143.14> 1177 185<241.674 684> 1274 88<0 57.6145>
LayerCount: 2
Fore
SplineSet
754 -41 m 0,0,1
 559 -41 559 -41 415.5 62.5 c 128,-1,2
 272 166 272 166 197.5 352.5 c 128,-1,3
 123 539 123 539 123 786 c 0,4,5
 123 1203 123 1203 304 1410 c 0,6,7
 479 1610 479 1610 797 1610 c 0,8,9
 1038 1610 1038 1610 1228 1493 c 1,10,-1
 1253 1476 l 1,11,-1
 1187 1341 l 1,12,13
 1106.16 1410.29 1106.16 1410.29 931 1444.5 c 0,14,15
 867 1457 867 1457 777.5 1457.5 c 128,-1,16
 688 1458 688 1458 606 1425.5 c 128,-1,17
 524 1393 524 1393 471 1335.5 c 128,-1,18
 418 1278 418 1278 384.5 1191.5 c 0,19,20
 324 1035 324 1035 324 782 c 0,21,22
 324 397 324 397 468 238.5 c 0,23,24
 584 111 584 111 801 111 c 0,25,26
 972 111 972 111 1074.5 183.5 c 128,-1,27
 1177 256 1177 256 1177 399 c 2,28,-1
 1177 684 l 1,29,-1
 775 684 l 1,30,-1
 775 811 l 1,31,-1
 1362 811 l 1,32,-1
 1362 0 l 1,33,-1
 1274 0 l 1,34,-1
 1221 213 l 1,35,36
 1175 22 1175 22 912.5 -27 c 0,37,38
 838 -41 838 -41 754 -41 c 0,0,1
EndSplineSet
EndChar

StartChar: H
Encoding: 72 72 43
Width: 1512
Flags: W
HStem: 0 21G<146 340 1172 1366> 764 115<340 1172> 1559 20G<146 340 1172 1366>
VStem: 146 194<0 764 879 1579> 1172 194<0 764 879 1579>
LayerCount: 2
Fore
SplineSet
1172 0 m 1,0,-1
 1172 764 l 1,1,-1
 340 764 l 1,2,-1
 340 0 l 1,3,-1
 146 0 l 1,4,-1
 146 1579 l 1,5,-1
 340 1579 l 1,6,-1
 340 879 l 1,7,-1
 1172 879 l 1,8,-1
 1172 1579 l 1,9,-1
 1366 1579 l 1,10,-1
 1366 0 l 1,11,-1
 1172 0 l 1,0,-1
EndSplineSet
EndChar

StartChar: I
Encoding: 73 73 44
Width: 983
Flags: W
HStem: 0 112<195 399 582 788> 1461 118<195 399 582 788>
VStem: 399 183<112 1461>
LayerCount: 2
Fore
SplineSet
195 112 m 1,0,-1
 399 112 l 1,1,-1
 399 1461 l 1,2,-1
 195 1461 l 1,3,-1
 195 1579 l 1,4,-1
 788 1579 l 1,5,-1
 788 1461 l 1,6,-1
 582 1461 l 1,7,-1
 582 112 l 1,8,-1
 788 112 l 1,9,-1
 788 0 l 1,10,-1
 195 0 l 1,11,-1
 195 112 l 1,0,-1
EndSplineSet
EndChar

StartChar: J
Encoding: 74 74 45
Width: 782
Flags: W
HStem: -90 125<110 224.17> 1559 20G<385 577>
VStem: 385 192<176.754 1579>
LayerCount: 2
Fore
SplineSet
110 -90 m 1,0,-1
 59 35 l 1,1,2
 220 59 220 59 284 114 c 1,3,4
 346 165 346 165 365.5 233 c 128,-1,5
 385 301 385 301 385 479 c 2,6,-1
 385 1579 l 1,7,-1
 577 1579 l 1,8,-1
 577 514 l 2,9,10
 577 314 577 314 548.5 203.5 c 128,-1,11
 520 93 520 93 434 10 c 0,12,13
 329 -90 329 -90 110 -90 c 1,0,-1
EndSplineSet
EndChar

StartChar: K
Encoding: 75 75 46
Width: 1367
Flags: W
HStem: 0 21G<194 388 1143.14 1361> 747 107<388 603> 1559 20G<194 388 1087.48 1294>
VStem: 194 194<0 747 854 1579>
LayerCount: 2
Fore
SplineSet
388 747 m 1,0,-1
 388 0 l 1,1,-1
 194 0 l 1,2,-1
 194 1579 l 1,3,-1
 388 1579 l 1,4,-1
 388 854 l 1,5,-1
 611 854 l 1,6,-1
 1101 1579 l 1,7,-1
 1294 1579 l 1,8,-1
 765 798 l 1,9,-1
 1361 0 l 1,10,-1
 1158 0 l 1,11,-1
 603 747 l 1,12,-1
 388 747 l 1,0,-1
EndSplineSet
EndChar

StartChar: L
Encoding: 76 76 47
Width: 1076
Flags: W
HStem: 0 143<340 1086> 1559 20G<146 340>
VStem: 146 194<143 1579>
LayerCount: 2
Fore
SplineSet
1086 0 m 1,0,-1
 146 0 l 1,1,-1
 146 1579 l 1,2,-1
 340 1579 l 1,3,-1
 340 143 l 1,4,-1
 1086 143 l 1,5,-1
 1086 0 l 1,0,-1
EndSplineSet
EndChar

StartChar: M
Encoding: 77 77 48
Width: 1862
Flags: W
HStem: 0 21G<165 320 826.201 1035.8 1542 1697> 1559 20G<165 462.733 1399.27 1697>
VStem: 165 155<0 1509> 1542 155<0 1509>
LayerCount: 2
Fore
SplineSet
833 0 m 1,0,-1
 320 1509 l 1,1,-1
 320 0 l 1,2,-1
 165 0 l 1,3,-1
 165 1579 l 1,4,-1
 456 1579 l 1,5,-1
 931 168 l 1,6,-1
 1406 1579 l 1,7,-1
 1697 1579 l 1,8,-1
 1697 0 l 1,9,-1
 1542 0 l 1,10,-1
 1542 1509 l 1,11,-1
 1029 0 l 1,12,-1
 833 0 l 1,0,-1
EndSplineSet
EndChar

StartChar: N
Encoding: 78 78 49
Width: 1665
Flags: W
HStem: 0 21G<206 368 1185.44 1459> 1559 20G<206 479.562 1297 1459>
VStem: 206 162<0 1434> 1297 162<145 1579>
LayerCount: 2
Fore
SplineSet
1297 145 m 1,0,-1
 1297 1579 l 1,1,-1
 1459 1579 l 1,2,-1
 1459 0 l 1,3,-1
 1197 0 l 1,4,-1
 368 1434 l 1,5,-1
 368 0 l 1,6,-1
 206 0 l 1,7,-1
 206 1579 l 1,8,-1
 468 1579 l 1,9,-1
 1297 145 l 1,0,-1
EndSplineSet
EndChar

StartChar: O
Encoding: 79 79 50
Width: 1558
Flags: W
HStem: -41 152<573.226 987.738> 1458 152<572.69 987.869>
VStem: 124 200<422.044 1146.71> 1234 200<420.082 1149.55>
LayerCount: 2
Fore
SplineSet
1434 784 m 0,0,1
 1434 639 1434 639 1413 517 c 128,-1,2
 1392 395 1392 395 1342 290.5 c 128,-1,3
 1292 186 1292 186 1217 113.5 c 128,-1,4
 1142 41 1142 41 1031 0 c 128,-1,5
 920 -41 920 -41 778 -41 c 0,6,7
 716 -41 716 -41 659 -33.5 c 128,-1,8
 602 -26 602 -26 534 -3 c 128,-1,9
 466 20 466 20 410 57 c 128,-1,10
 354 94 354 94 299 158 c 128,-1,11
 244 222 244 222 207 306 c 128,-1,12
 170 390 170 390 147 512.5 c 128,-1,13
 124 635 124 635 124 784 c 0,14,15
 124 930 124 930 146 1050.5 c 128,-1,16
 168 1171 168 1171 205 1255 c 128,-1,17
 242 1339 242 1339 295 1403.5 c 128,-1,18
 348 1468 348 1468 404 1506.5 c 128,-1,19
 460 1545 460 1545 526 1569 c 128,-1,20
 592 1593 592 1593 648 1601.5 c 128,-1,21
 704 1610 704 1610 764 1610 c 0,22,23
 910 1610 910 1610 1024 1569.5 c 128,-1,24
 1138 1529 1138 1529 1214 1457 c 128,-1,25
 1290 1385 1290 1385 1340 1280.5 c 128,-1,26
 1390 1176 1390 1176 1412 1053.5 c 128,-1,27
 1434 931 1434 931 1434 784 c 0,0,1
1234 784 m 0,28,29
 1234 972 1234 972 1202 1105 c 128,-1,30
 1170 1238 1170 1238 1108 1314 c 128,-1,31
 1046 1390 1046 1390 966 1424 c 128,-1,32
 886 1458 886 1458 780 1458 c 128,-1,33
 674 1458 674 1458 593 1423 c 128,-1,34
 512 1388 512 1388 462 1328.5 c 128,-1,35
 412 1269 412 1269 380 1181 c 128,-1,36
 348 1093 348 1093 336 997.5 c 128,-1,37
 324 902 324 902 324 784 c 0,38,39
 324 601 324 601 356 469 c 128,-1,40
 388 337 388 337 450 259.5 c 128,-1,41
 512 182 512 182 593 146.5 c 128,-1,42
 674 111 674 111 780 111 c 0,43,44
 868 111 868 111 939 135 c 128,-1,45
 1010 159 1010 159 1059 205 c 128,-1,46
 1108 251 1108 251 1143 310.5 c 128,-1,47
 1178 370 1178 370 1197 448 c 128,-1,48
 1216 526 1216 526 1225 607 c 128,-1,49
 1234 688 1234 688 1234 784 c 0,28,29
EndSplineSet
EndChar

StartChar: P
Encoding: 80 80 51
Width: 1376
Flags: W
HStem: 0 21G<188 382> 639 145<382 917.062> 1436 143<382 948.031>
VStem: 188 194<0 639 784 1436> 1103 182<923.003 1308.77>
LayerCount: 2
Fore
SplineSet
552 784 m 2,0,1
 686 784 686 784 784 798.5 c 128,-1,2
 882 813 882 813 943 837.5 c 128,-1,3
 1004 862 1004 862 1040 901 c 128,-1,4
 1076 940 1076 940 1089.5 983 c 128,-1,5
 1103 1026 1103 1026 1103 1084 c 0,6,7
 1103 1138 1103 1138 1099.5 1175 c 128,-1,8
 1096 1212 1096 1212 1084.5 1252 c 128,-1,9
 1073 1292 1073 1292 1051 1318 c 128,-1,10
 1029 1344 1029 1344 992 1368.5 c 128,-1,11
 955 1393 955 1393 901.5 1406.5 c 128,-1,12
 848 1420 848 1420 772 1428 c 128,-1,13
 696 1436 696 1436 597 1436 c 2,14,-1
 382 1436 l 1,15,-1
 382 784 l 1,16,-1
 552 784 l 2,0,1
1285 1108 m 0,17,18
 1285 997 1285 997 1250.5 915 c 128,-1,19
 1216 833 1216 833 1135 769 c 128,-1,20
 1054 705 1054 705 908 672 c 128,-1,21
 762 639 762 639 552 639 c 2,22,-1
 382 639 l 1,23,-1
 382 0 l 1,24,-1
 188 0 l 1,25,-1
 188 1579 l 1,26,-1
 585 1579 l 2,27,28
 790 1579 790 1579 927.5 1549.5 c 128,-1,29
 1065 1520 1065 1520 1143 1457.5 c 128,-1,30
 1221 1395 1221 1395 1253 1311.5 c 128,-1,31
 1285 1228 1285 1228 1285 1108 c 0,17,18
EndSplineSet
EndChar

StartChar: Q
Encoding: 81 81 52
Width: 1563
Flags: W
HStem: 1458 152<573.85 989.514>
VStem: 118 201<429.768 1139.38> 1245 200<427.534 1140.59>
LayerCount: 2
Fore
SplineSet
782 1458 m 128,-1,1
 674 1458 674 1458 592 1422 c 128,-1,2
 510 1386 510 1386 459 1325.5 c 128,-1,3
 408 1265 408 1265 376 1176.5 c 128,-1,4
 344 1088 344 1088 331.5 993.5 c 128,-1,5
 319 899 319 899 319 784 c 128,-1,6
 319 669 319 669 331.5 574.5 c 128,-1,7
 344 480 344 480 376 391.5 c 128,-1,8
 408 303 408 303 459 243 c 128,-1,9
 510 183 510 183 592 147 c 128,-1,10
 674 111 674 111 782 111 c 128,-1,11
 890 111 890 111 972 147 c 128,-1,12
 1054 183 1054 183 1105 243 c 128,-1,13
 1156 303 1156 303 1188 391.5 c 128,-1,14
 1220 480 1220 480 1232.5 574.5 c 128,-1,15
 1245 669 1245 669 1245 784 c 128,-1,16
 1245 899 1245 899 1232.5 993.5 c 128,-1,17
 1220 1088 1220 1088 1188 1176.5 c 128,-1,18
 1156 1265 1156 1265 1105 1325.5 c 128,-1,19
 1054 1386 1054 1386 972 1422 c 128,-1,0
 890 1458 890 1458 782 1458 c 128,-1,1
1445 784 m 0,20,21
 1445 614 1445 614 1414.5 477.5 c 128,-1,22
 1384 341 1384 341 1321 234.5 c 128,-1,23
 1258 128 1258 128 1156 60.5 c 128,-1,24
 1054 -7 1054 -7 917 -29 c 1,25,-1
 1296 -293 l 1,26,-1
 1177 -424 l 1,27,-1
 684 -35 l 1,28,29
 402 -3 402 -3 260 207.5 c 128,-1,30
 118 418 118 418 118 792 c 0,31,32
 118 937 118 937 142 1060 c 128,-1,33
 166 1183 166 1183 218 1285 c 128,-1,34
 270 1387 270 1387 347 1459 c 128,-1,35
 424 1531 424 1531 534.5 1570.5 c 128,-1,36
 645 1610 645 1610 782 1610 c 0,37,38
 844 1610 844 1610 902.5 1601.5 c 128,-1,39
 961 1593 961 1593 1029 1569.5 c 128,-1,40
 1097 1546 1097 1546 1154.5 1508 c 128,-1,41
 1212 1470 1212 1470 1267 1405.5 c 128,-1,42
 1322 1341 1322 1341 1360.5 1257 c 128,-1,43
 1399 1173 1399 1173 1422 1052 c 128,-1,44
 1445 931 1445 931 1445 784 c 0,20,21
EndSplineSet
EndChar

StartChar: R
Encoding: 82 82 53
Width: 1345
Flags: W
HStem: 0 21G<129 323 1038 1220> 733 129<323 807.41> 1436 143<323 911.643>
VStem: 129 194<0 733 862 1436> 1038 182<0 593.031 978.926 1339.72>
LayerCount: 2
Fore
SplineSet
809 797 m 1,0,1
 907 786 907 786 980 760.5 c 128,-1,2
 1053 735 1053 735 1108.5 689 c 128,-1,3
 1164 643 1164 643 1192 570 c 128,-1,4
 1220 497 1220 497 1220 397 c 2,5,-1
 1220 0 l 1,6,-1
 1038 0 l 1,7,-1
 1038 412 l 2,8,9
 1038 497 1038 497 1015 554 c 128,-1,10
 992 611 992 611 933.5 653 c 128,-1,11
 875 695 875 695 769.5 714 c 128,-1,12
 664 733 664 733 503 733 c 2,13,-1
 323 733 l 1,14,-1
 323 0 l 1,15,-1
 129 0 l 1,16,-1
 129 1579 l 1,17,-1
 505 1579 l 2,18,19
 770 1579 770 1579 897 1551 c 0,20,21
 1134 1499 1134 1499 1197 1321 c 0,22,23
 1222 1251 1222 1251 1222 1160 c 0,24,25
 1222 1000 1222 1000 1108.5 898.5 c 128,-1,26
 995 797 995 797 809 797 c 1,0,1
477 862 m 2,27,28
 532 862 532 862 564.5 862.5 c 128,-1,29
 597 863 597 863 651 865.5 c 128,-1,30
 705 868 705 868 739 873 c 128,-1,31
 773 878 773 878 820 888 c 128,-1,32
 867 898 867 898 896.5 912.5 c 128,-1,33
 926 927 926 927 958.5 949 c 128,-1,34
 991 971 991 971 1009.5 999 c 128,-1,35
 1028 1027 1028 1027 1040 1065.5 c 128,-1,36
 1052 1104 1052 1104 1052 1150 c 0,37,38
 1052 1206 1052 1206 1040.5 1248 c 128,-1,39
 1029 1290 1029 1290 1010 1320.5 c 128,-1,40
 991 1351 991 1351 954.5 1372 c 128,-1,41
 918 1393 918 1393 879 1405.5 c 128,-1,42
 840 1418 840 1418 777.5 1425 c 128,-1,43
 715 1432 715 1432 654.5 1434 c 128,-1,44
 594 1436 594 1436 505 1436 c 2,45,-1
 323 1436 l 1,46,-1
 323 862 l 1,47,-1
 477 862 l 2,27,28
EndSplineSet
EndChar

StartChar: S
Encoding: 83 83 54
Width: 1314
Flags: W
HStem: -41 152<333.885 857.226> 1458 152<399.279 898.25>
VStem: 101 183<1078.38 1355.97> 1011 184<244.198 572.436>
LayerCount: 2
Fore
SplineSet
170 72 m 1,0,-1
 190 222 l 1,1,2
 255 188 255 188 300 168.5 c 128,-1,3
 345 149 345 149 427.5 130 c 128,-1,4
 510 111 510 111 600 111 c 0,5,6
 695 111 695 111 767.5 126.5 c 128,-1,7
 840 142 840 142 896 176.5 c 128,-1,8
 952 211 952 211 981.5 271 c 128,-1,9
 1011 331 1011 331 1011 416 c 0,10,11
 1011 478 1011 478 993 524.5 c 128,-1,12
 975 571 975 571 937.5 604.5 c 128,-1,13
 900 638 900 638 856.5 660.5 c 128,-1,14
 813 683 813 683 750 705 c 2,15,-1
 459 807 l 2,16,17
 357 843 357 843 285.5 889 c 128,-1,18
 214 935 214 935 174.5 988.5 c 128,-1,19
 135 1042 135 1042 118 1097 c 128,-1,20
 101 1152 101 1152 101 1217 c 0,21,22
 101 1307 101 1307 136 1378 c 128,-1,23
 171 1449 171 1449 223.5 1491.5 c 128,-1,24
 276 1534 276 1534 345.5 1561.5 c 128,-1,25
 415 1589 415 1589 477.5 1599.5 c 128,-1,26
 540 1610 540 1610 600 1610 c 0,27,28
 870 1610 870 1610 1093 1484 c 1,29,-1
 1063 1337 l 1,30,31
 996 1380 996 1380 886.5 1419 c 128,-1,32
 777 1458 777 1458 662 1458 c 0,33,34
 553 1458 553 1458 477.5 1440.5 c 128,-1,35
 402 1423 402 1423 360.5 1388.5 c 128,-1,36
 319 1354 319 1354 301.5 1310.5 c 128,-1,37
 284 1267 284 1267 284 1208 c 0,38,39
 284 1118 284 1118 339 1067 c 128,-1,40
 394 1016 394 1016 524 974 c 2,41,-1
 807 882 l 2,42,43
 846 869 846 869 876 858 c 128,-1,44
 906 847 906 847 948.5 825.5 c 128,-1,45
 991 804 991 804 1022.5 781 c 128,-1,46
 1054 758 1054 758 1088.5 722.5 c 128,-1,47
 1123 687 1123 687 1145 646 c 128,-1,48
 1167 605 1167 605 1181 548 c 128,-1,49
 1195 491 1195 491 1195 426 c 0,50,51
 1195 383 1195 383 1188.5 341 c 128,-1,52
 1182 299 1182 299 1165 251.5 c 128,-1,53
 1148 204 1148 204 1121.5 163.5 c 128,-1,54
 1095 123 1095 123 1050.5 84.5 c 128,-1,55
 1006 46 1006 46 949 19 c 128,-1,56
 892 -8 892 -8 811 -24.5 c 128,-1,57
 730 -41 730 -41 632 -41 c 0,58,59
 499 -41 499 -41 372.5 -8 c 128,-1,60
 246 25 246 25 170 72 c 1,0,-1
EndSplineSet
EndChar

StartChar: T
Encoding: 84 84 55
Width: 1083
Flags: W
HStem: 0 21G<448 638> 1436 143<-12 448 638 1096>
VStem: 448 190<0 1436>
LayerCount: 2
Fore
SplineSet
1096 1436 m 1,0,-1
 638 1436 l 1,1,-1
 638 0 l 1,2,-1
 448 0 l 1,3,-1
 448 1436 l 1,4,-1
 -12 1436 l 1,5,-1
 -12 1579 l 1,6,-1
 1096 1579 l 1,7,-1
 1096 1436 l 1,0,-1
EndSplineSet
EndChar

StartChar: U
Encoding: 85 85 56
Width: 1664
Flags: W
HStem: -41 141<599.276 1060.74> 1559 20G<204 396 1264 1460>
VStem: 204 192<355.22 1579> 1264 196<356.41 1579>
LayerCount: 2
Fore
SplineSet
830 -41 m 0,0,1
 662 -41 662 -41 541 8.5 c 128,-1,2
 420 58 420 58 346 157 c 128,-1,3
 272 256 272 256 238 393 c 128,-1,4
 204 530 204 530 204 715 c 2,5,-1
 204 1579 l 1,6,-1
 396 1579 l 1,7,-1
 396 711 l 2,8,9
 396 582 396 582 410 484 c 128,-1,10
 424 386 424 386 452 320 c 128,-1,11
 480 254 480 254 516 210 c 128,-1,12
 552 166 552 166 603 142 c 128,-1,13
 654 118 654 118 707 109 c 128,-1,14
 760 100 760 100 830 100 c 0,15,16
 916 100 916 100 977 113 c 128,-1,17
 1038 126 1038 126 1095 165 c 128,-1,18
 1152 204 1152 204 1187 270.5 c 128,-1,19
 1222 337 1222 337 1243 447.5 c 128,-1,20
 1264 558 1264 558 1264 711 c 2,21,-1
 1264 1579 l 1,22,-1
 1460 1579 l 1,23,-1
 1460 715 l 2,24,25
 1460 582 1460 582 1443 474.5 c 128,-1,26
 1426 367 1426 367 1383 268.5 c 128,-1,27
 1340 170 1340 170 1270 103.5 c 128,-1,28
 1200 37 1200 37 1089 -2 c 128,-1,29
 978 -41 978 -41 830 -41 c 0,0,1
EndSplineSet
EndChar

StartChar: V
Encoding: 86 86 57
Width: 1375
Flags: W
HStem: 0 21G<559.718 816.257> 1559 20G<70 260.204 1115.8 1304>
LayerCount: 2
Fore
SplineSet
566 0 m 1,0,-1
 70 1579 l 1,1,-1
 254 1579 l 1,2,-1
 688 180 l 1,3,-1
 1122 1579 l 1,4,-1
 1304 1579 l 1,5,-1
 810 0 l 1,6,-1
 566 0 l 1,0,-1
EndSplineSet
EndChar

StartChar: W
Encoding: 87 87 58
Width: 1997
Flags: W
HStem: 0 21G<408.744 703.405 1292.58 1588.26> 1559 20G<77 261.294 1734.71 1920>
LayerCount: 2
Fore
SplineSet
1135 1489 m 1,0,-1
 1429 135 l 1,1,-1
 1739 1579 l 1,2,-1
 1920 1579 l 1,3,-1
 1584 0 l 1,4,-1
 1297 0 l 1,5,-1
 1061 1067 l 1,6,-1
 998 1373 l 1,7,-1
 934 1067 l 1,8,-1
 699 0 l 1,9,-1
 413 0 l 1,10,-1
 77 1579 l 1,11,-1
 257 1579 l 1,12,-1
 567 135 l 1,13,-1
 861 1489 l 1,14,-1
 1135 1489 l 1,0,-1
EndSplineSet
EndChar

StartChar: X
Encoding: 88 88 59
Width: 1300
Flags: W
HStem: 0 21G<44 274.391 1025.61 1256> 1559 20G<46 254.439 1045.56 1254>
LayerCount: 2
Fore
SplineSet
630 594 m 1,0,-1
 262 0 l 1,1,-1
 44 0 l 1,2,-1
 541 800 l 1,3,-1
 46 1579 l 1,4,-1
 242 1579 l 1,5,-1
 650 923 l 1,6,-1
 1058 1579 l 1,7,-1
 1254 1579 l 1,8,-1
 759 800 l 1,9,-1
 1256 0 l 1,10,-1
 1038 0 l 1,11,-1
 670 594 l 1,12,-1
 650 626 l 1,13,-1
 630 594 l 1,0,-1
EndSplineSet
EndChar

StartChar: Y
Encoding: 89 89 60
Width: 1272
Flags: W
HStem: 0 21G<541 731> 1559 20G<27 233.159 1044.82 1245>
VStem: 541 190<0 485>
LayerCount: 2
Fore
SplineSet
641 677 m 1,0,-1
 699 806 l 1,1,-1
 1054 1579 l 1,2,-1
 1245 1579 l 1,3,-1
 731 485 l 1,4,-1
 731 0 l 1,5,-1
 541 0 l 1,6,-1
 541 485 l 1,7,-1
 27 1579 l 1,8,-1
 224 1579 l 1,9,-1
 578 806 l 1,10,-1
 641 677 l 1,0,-1
EndSplineSet
EndChar

StartChar: Z
Encoding: 90 90 61
Width: 1193
Flags: W
HStem: 0 143<281 1116> 1447 132<84 913>
LayerCount: 2
Fore
SplineSet
1114 1579 m 1,0,-1
 1114 1419 l 1,1,-1
 281 143 l 1,2,-1
 1116 143 l 1,3,-1
 1116 0 l 1,4,-1
 84 0 l 1,5,-1
 84 180 l 1,6,-1
 913 1447 l 1,7,-1
 84 1447 l 1,8,-1
 84 1579 l 1,9,-1
 1114 1579 l 1,0,-1
EndSplineSet
EndChar

StartChar: bracketleft
Encoding: 91 91 62
Width: 1054
Flags: W
HStem: 0 143<462 933> 1436 143<462 933>
VStem: 269 193<143 1436>
LayerCount: 2
Fore
SplineSet
269 1579 m 1,0,-1
 933 1579 l 1,1,-1
 933 1436 l 1,2,-1
 462 1436 l 1,3,-1
 462 143 l 1,4,-1
 933 143 l 1,5,-1
 933 0 l 1,6,-1
 269 0 l 1,7,-1
 269 1579 l 1,0,-1
EndSplineSet
EndChar

StartChar: backslash
Encoding: 92 92 63
Width: 1031
Flags: W
LayerCount: 2
Fore
SplineSet
275 1731 m 1,0,-1
 898 -114 l 1,1,-1
 738 -172 l 1,2,-1
 117 1679 l 1,3,-1
 275 1731 l 1,0,-1
EndSplineSet
EndChar

StartChar: bracketright
Encoding: 93 93 64
Width: 1114
Flags: W
HStem: 0 143<161 632> 1436 143<161 632>
VStem: 632 193<143 1436>
LayerCount: 2
Fore
SplineSet
161 1579 m 1,0,-1
 825 1579 l 1,1,-1
 825 0 l 1,2,-1
 161 0 l 1,3,-1
 161 143 l 1,4,-1
 632 143 l 1,5,-1
 632 1436 l 1,6,-1
 161 1436 l 1,7,-1
 161 1579 l 1,0,-1
EndSplineSet
EndChar

StartChar: asciicircum
Encoding: 94 94 65
Width: 1428
Flags: W
LayerCount: 2
Fore
SplineSet
714 809 m 1,0,-1
 926 432 l 1,1,-1
 1054 510 l 1,2,-1
 762 1011 l 1,3,-1
 666 1011 l 1,4,-1
 374 510 l 1,5,-1
 502 432 l 1,6,-1
 714 809 l 1,0,-1
EndSplineSet
EndChar

StartChar: underscore
Encoding: 95 95 66
Width: 1265
Flags: W
HStem: -111 144<127 1067>
LayerCount: 2
Fore
SplineSet
1067 -111 m 1,0,-1
 127 -111 l 1,1,-1
 127 33 l 1,2,-1
 1067 33 l 1,3,-1
 1067 -111 l 1,0,-1
EndSplineSet
EndChar

StartChar: grave
Encoding: 96 96 67
Width: 778
Flags: W
HStem: 330 644
VStem: 68 395
LayerCount: 2
Fore
SplineSet
463 356 m 1,0,-1
 396 330 l 1,1,-1
 68 885 l 1,2,-1
 310 974 l 1,3,-1
 463 356 l 1,0,-1
EndSplineSet
EndChar

StartChar: a
Encoding: 97 97 68
Width: 1249
Flags: W
HStem: -23 142<366.219 712.992> 0 21G<924.854 1068> 569 96<644.077 878> 590 125<385.363 863.014> 1047 143<389.424 789.373>
VStem: 103 191<192.237 500.75> 878 190<235.375 575.598 665 955.321> 928 140<0 91.136>
LayerCount: 2
Fore
SplineSet
542 119 m 0,0,1
 716 119 716 119 878 271 c 1,2,-1
 878 569 l 1,3,4
 750 590 750 590 637 590 c 128,-1,5
 524 590 524 590 459 574 c 128,-1,6
 394 558 394 558 358.5 525.5 c 0,7,8
 294 466.451 294 466.451 294 347.225 c 128,-1,9
 294 228 294 228 353.5 173.5 c 128,-1,10
 413 119 413 119 542 119 c 0,0,1
878 665 m 1,11,-1
 878 713 l 2,12,13
 878 813 878 813 869 872 c 128,-1,14
 860 931 860 931 822.5 973 c 128,-1,15
 785 1015 785 1015 736 1031 c 128,-1,16
 687 1047 687 1047 619.5 1047 c 128,-1,17
 552 1047 552 1047 494.5 1034.5 c 128,-1,18
 437 1022 437 1022 394.5 1004.5 c 128,-1,19
 352 987 352 987 316 970 c 0,20,21
 257 940 257 940 243 928 c 5,22,-1
 175 1060 l 1,23,-1
 219.5 1085 l 1,24,25
 395 1190 395 1190 596 1190 c 0,26,27
 868 1190 868 1190 968 1075 c 128,-1,28
 1068 960 1068 960 1068 686 c 2,29,-1
 1068 0 l 1,30,-1
 928 0 l 1,31,-1
 900 178 l 1,32,33
 754 -23 754 -23 495 -23 c 0,34,35
 309 -23 309 -23 206 70 c 128,-1,36
 103 163 103 163 103 339 c 2,37,-1
 103 343 l 2,38,39
 103 521 103 521 224 618 c 128,-1,40
 345 715 345 715 547 715 c 0,41,42
 619 715 619 715 722 700.5 c 128,-1,43
 825 686 825 686 878 665 c 1,11,-1
EndSplineSet
EndChar

StartChar: b
Encoding: 98 98 69
Width: 1362
Flags: W
HStem: -20 143<555.668 891.097> 0 21G<198 341.146> 1047 143<552.523 890.193>
VStem: 198 190<237.844 936.565 1030 1579> 198 140<0 91.136> 1030 182<297.448 866.534>
LayerCount: 2
Fore
SplineSet
736 -20 m 0,0,1
 627 -20 627 -20 531.5 37.5 c 128,-1,2
 436 95 436 95 366 178 c 1,3,-1
 338 0 l 1,4,-1
 198 0 l 1,5,-1
 198 1579 l 1,6,-1
 388 1614 l 1,7,-1
 388 1030 l 1,8,9
 399 1042 399 1042 426.5 1064.5 c 128,-1,10
 454 1087 454 1087 500.5 1117 c 128,-1,11
 547 1147 547 1147 610.5 1168.5 c 128,-1,12
 674 1190 674 1190 736 1190 c 0,13,14
 845 1190 845 1190 931 1150 c 128,-1,15
 1017 1110 1017 1110 1068.5 1048 c 128,-1,16
 1120 986 1120 986 1153.5 903 c 128,-1,17
 1187 820 1187 820 1199.5 742 c 128,-1,18
 1212 664 1212 664 1212 584 c 0,19,20
 1212 487 1212 487 1196 400.5 c 128,-1,21
 1180 314 1180 314 1143.5 236 c 128,-1,22
 1107 158 1107 158 1052.5 102 c 128,-1,23
 998 46 998 46 917 13 c 128,-1,24
 836 -20 836 -20 736 -20 c 0,0,1
1030 584 m 0,25,26
 1030 1047 1030 1047 743 1047 c 0,27,28
 640 1047 640 1047 539.5 998.5 c 128,-1,29
 439 950 439 950 388 902 c 1,30,-1
 388 273 l 1,31,32
 546 123 546 123 743 123 c 0,33,34
 810 123 810 123 861 149.5 c 128,-1,35
 912 176 912 176 943.5 219.5 c 128,-1,36
 975 263 975 263 995 324.5 c 128,-1,37
 1015 386 1015 386 1022.5 448.5 c 128,-1,38
 1030 511 1030 511 1030 584 c 0,25,26
EndSplineSet
EndChar

StartChar: c
Encoding: 99 99 70
Width: 1122
Flags: W
HStem: -23 150<459.105 839.729> 1040 150<461.761 839.486>
VStem: 108 190<312.683 850.923>
LayerCount: 2
Fore
SplineSet
298 580 m 0,0,1
 298 815 298 815 385.5 927.5 c 128,-1,2
 473 1040 473 1040 636 1040 c 0,3,4
 817 1040 817 1040 950 924 c 1,5,-1
 1007 1057 l 1,6,7
 819 1190 819 1190 619 1190 c 0,8,9
 552 1190 552 1190 486.5 1173.5 c 128,-1,10
 421 1157 421 1157 351 1114 c 128,-1,11
 281 1071 281 1071 228.5 1004.5 c 128,-1,12
 176 938 176 938 142 828.5 c 128,-1,13
 108 719 108 719 108 580 c 0,14,15
 108 440 108 440 142 331 c 128,-1,16
 176 222 176 222 228.5 157 c 128,-1,17
 281 92 281 92 351 50 c 128,-1,18
 421 8 421 8 485.5 -7.5 c 128,-1,19
 550 -23 550 -23 616 -23 c 0,20,21
 820 -23 820 -23 1007 111 c 1,22,-1
 950 245 l 1,23,24
 823 127 823 127 621 127 c 0,25,26
 555 127 555 127 499.5 150 c 128,-1,27
 444 173 444 173 397.5 223 c 128,-1,28
 351 273 351 273 324.5 364 c 128,-1,29
 298 455 298 455 298 580 c 0,0,1
EndSplineSet
EndChar

StartChar: d
Encoding: 100 100 71
Width: 1285
Flags: W
HStem: -20 143<435.246 768.984> 0 21G<980.872 1125> 1047 143<432.981 770.346>
VStem: 108 182<302.539 869.329> 935 190<235.203 932.777 1028 1579> 984 141<0 91.648>
LayerCount: 2
Fore
SplineSet
108 584 m 0,0,1
 108 754 108 754 159.5 889.5 c 128,-1,2
 211 1025 211 1025 317.5 1107.5 c 128,-1,3
 424 1190 424 1190 570 1190 c 0,4,5
 688 1190 688 1190 787.5 1139 c 128,-1,6
 887 1088 887 1088 935 1028 c 1,7,-1
 935 1614 l 1,8,-1
 1125 1579 l 1,9,-1
 1125 0 l 1,10,-1
 984 0 l 1,11,-1
 956 179 l 1,12,13
 897 103 897 103 799 41.5 c 128,-1,14
 701 -20 701 -20 592 -20 c 0,15,16
 466 -20 466 -20 370.5 29 c 128,-1,17
 275 78 275 78 219 164 c 128,-1,18
 163 250 163 250 135.5 355.5 c 128,-1,19
 108 461 108 461 108 584 c 0,0,1
290 587 m 0,20,21
 290 123 290 123 588 123 c 0,22,23
 697 123 697 123 790.5 172 c 128,-1,24
 884 221 884 221 935 275 c 1,25,-1
 935 903 l 1,26,27
 746 1047 746 1047 582 1047 c 0,28,29
 541 1047 541 1047 506 1038.5 c 128,-1,30
 471 1030 471 1030 429.5 1001 c 128,-1,31
 388 972 388 972 358.5 924 c 128,-1,32
 329 876 329 876 309.5 789.5 c 128,-1,33
 290 703 290 703 290 587 c 0,20,21
EndSplineSet
EndChar

StartChar: e
Encoding: 101 101 72
Width: 1145
Flags: W
HStem: -23 150<450.97 838.715> 567 115<298 898> 1057 133<447.839 781.57>
VStem: 108 190<301.461 567 682 853.906> 898 168<682 932.445>
LayerCount: 2
Fore
SplineSet
898 717 m 2,0,1
 898 802 898 802 879.5 865.5 c 128,-1,2
 861 929 861 929 833.5 964.5 c 128,-1,3
 806 1000 806 1000 767.5 1022 c 128,-1,4
 729 1044 729 1044 695.5 1050.5 c 128,-1,5
 662 1057 662 1057 624 1057 c 0,6,7
 581 1057 581 1057 541 1049 c 128,-1,8
 501 1041 501 1041 455 1016 c 128,-1,9
 409 991 409 991 375.5 951 c 128,-1,10
 342 911 342 911 320 842 c 128,-1,11
 298 773 298 773 298 682 c 1,12,-1
 898 682 l 1,13,-1
 898 717 l 2,0,1
298 567 m 1,14,15
 298 465 298 465 313.5 390 c 128,-1,16
 329 315 329 315 366.5 253 c 128,-1,17
 404 191 404 191 473.5 159 c 128,-1,18
 543 127 543 127 644 127 c 0,19,20
 814 127 814 127 950 244 c 1,21,-1
 1012 99 l 1,22,23
 934 42 934 42 821.5 9.5 c 128,-1,24
 709 -23 709 -23 632 -23 c 0,25,26
 381 -23 381 -23 244.5 138 c 128,-1,27
 108 299 108 299 108 578 c 0,28,29
 108 723 108 723 147 839.5 c 128,-1,30
 186 956 186 956 255 1032.5 c 128,-1,31
 324 1109 324 1109 418 1149.5 c 128,-1,32
 512 1190 512 1190 623 1190 c 0,33,34
 837 1190 837 1190 951.5 1050.5 c 128,-1,35
 1066 911 1066 911 1066 676 c 0,36,37
 1066 628 1066 628 1058 567 c 1,38,-1
 298 567 l 1,14,15
EndSplineSet
EndChar

StartChar: f
Encoding: 102 102 73
Width: 825
Flags: W
HStem: 0 21G<261 451> 1064 105<66 261 451 799> 1516 143<481.04 733.619>
VStem: 261 190<0 1064 1169 1486.15>
LayerCount: 2
Fore
SplineSet
616 1516 m 0,0,1
 511 1516 511 1516 479 1469 c 0,2,3
 453 1431 453 1431 451 1316 c 0,4,5
 451 1296 451 1296 451 1257 c 2,6,-1
 451 1243 l 1,7,-1
 451 1169 l 1,8,-1
 799 1169 l 1,9,-1
 799 1064 l 1,10,-1
 451 1064 l 1,11,-1
 451 0 l 1,12,-1
 261 0 l 1,13,-1
 261 1064 l 1,14,-1
 66 1064 l 1,15,-1
 66 1169 l 1,16,-1
 261 1169 l 1,17,-1
 261 1198 l 2,18,19
 261 1308 261 1308 276.5 1389 c 128,-1,20
 292 1470 292 1470 319.5 1521.5 c 128,-1,21
 347 1573 347 1573 390 1604 c 128,-1,22
 433 1635 433 1635 481 1647 c 128,-1,23
 529 1659 529 1659 592 1659 c 0,24,25
 640 1659 640 1659 699.5 1638.5 c 128,-1,26
 759 1618 759 1618 796.5 1596 c 128,-1,27
 834 1574 834 1574 834 1567 c 1,28,-1
 771 1442 l 1,29,30
 688 1516 688 1516 616 1516 c 0,0,1
EndSplineSet
EndChar

StartChar: g
Encoding: 103 103 74
Width: 1273
Flags: W
HStem: -427 150<396.013 959.419> 126 134<429 976.298> 1026 147<988.891 1226> 1058 132<440.359 844.988>
VStem: 157 145<300.994 428.923> 174 158<-214.905 44.4204> 190 161<714.541 975.696> 904 165<688.188 985.638> 1046 162<-203.559 60.3529>
LayerCount: 2
Fore
SplineSet
332 -80 m 0,0,1
 332 -188 332 -188 396 -232.5 c 128,-1,2
 460 -277 460 -277 612 -277 c 2,3,-1
 701 -277 l 2,4,5
 883 -277 883 -277 963 -232 c 1,6,7
 1046 -188 1046 -188 1046 -81 c 0,8,9
 1046 33 1046 33 982 78 c 0,10,11
 913 126 913 126 751 126 c 2,12,-1
 429 126 l 1,13,14
 425 123 425 123 418.5 118 c 128,-1,15
 412 113 412 113 395.5 94.5 c 128,-1,16
 379 76 379 76 366 54.5 c 128,-1,17
 353 33 353 33 342.5 -3.5 c 128,-1,18
 332 -40 332 -40 332 -80 c 0,0,1
351 845 m 0,19,20
 351 798 351 798 372 755 c 128,-1,21
 393 712 393 712 423 683.5 c 128,-1,22
 453 655 453 655 482.5 633.5 c 128,-1,23
 512 612 512 612 533 602 c 2,24,-1
 554 592 l 1,25,-1
 696 613 l 2,26,27
 750 621 750 621 788.5 638.5 c 128,-1,28
 827 656 827 656 849 677 c 128,-1,29
 871 698 871 698 884 730 c 128,-1,30
 897 762 897 762 900.5 791 c 128,-1,31
 904 820 904 820 904 860 c 0,32,33
 904 970 904 970 845 1014 c 128,-1,34
 786 1058 786 1058 647 1058 c 0,35,36
 351 1058 351 1058 351 845 c 0,19,20
161 358 m 0,37,38
 157 385 157 385 157 386 c 0,39,40
 157 451 157 451 188 496 c 0,41,42
 216 535 216 535 318 554 c 2,43,-1
 404 570 l 1,44,45
 297 607 297 607 244 681 c 128,-1,46
 191 755 191 755 190 854 c 1,47,48
 190 1008 190 1008 318.5 1098.5 c 128,-1,49
 447 1189 447 1189 651 1190 c 1,50,-1
 654 1190 l 2,51,52
 705 1190 705 1190 751.5 1182 c 128,-1,53
 798 1174 798 1174 827.5 1163 c 128,-1,54
 857 1152 857 1152 879 1141 c 128,-1,55
 901 1130 901 1130 911 1122 c 2,56,-1
 921 1114 l 1,57,-1
 1000 1153 l 1,58,59
 1043 1173 1043 1173 1196 1173 c 2,60,-1
 1226 1173 l 1,61,-1
 1226 1025 l 1,62,-1
 988 1026 l 1,63,-1
 1018 995 l 1,64,65
 1048 951 1048 951 1058.5 929 c 128,-1,66
 1069 907 1069 907 1069 865 c 0,67,68
 1069 812 1069 812 1061.5 767.5 c 128,-1,69
 1054 723 1054 723 1031 674.5 c 128,-1,70
 1008 626 1008 626 970 589.5 c 128,-1,71
 932 553 932 553 866 524 c 0,72,73
 796 493 796 493 712 482 c 2,74,-1
 302 427 l 1,75,-1
 321 260 l 1,76,-1
 713 260 l 2,77,78
 972 260 972 260 1090 180.5 c 128,-1,79
 1208 101 1208 101 1208 -76 c 0,80,81
 1208 -241 1208 -241 1069 -337 c 0,82,83
 939 -427 939 -427 684 -427 c 2,84,-1
 601 -427 l 2,85,86
 396 -427 396 -427 285 -342.5 c 128,-1,87
 174 -258 174 -258 174 -95 c 0,88,89
 174 -48 174 -48 190.5 -8.5 c 128,-1,90
 207 31 207 31 226 53.5 c 128,-1,91
 245 76 245 76 275 95 c 128,-1,92
 305 114 305 114 315 118 c 128,-1,93
 325 122 325 122 340 127 c 1,94,-1
 342 128 l 1,95,96
 302 137 302 137 259.5 154.5 c 128,-1,97
 217 172 217 172 201 199 c 0,98,99
 177 239 177 239 176 251 c 0,100,101
 176 252 176 252 161 358 c 0,37,38
EndSplineSet
EndChar

StartChar: h
Encoding: 104 104 75
Width: 1299
Flags: W
HStem: 0 21G<160 350 957 1147> 1047 143<538.096 867.422>
VStem: 160 190<0 926.311 989 1579> 957 190<0 950.65>
LayerCount: 2
Fore
SplineSet
957 727 m 2,0,1
 957 901 957 901 897 974 c 128,-1,2
 837 1047 837 1047 725 1047 c 0,3,4
 659 1047 659 1047 593 1028 c 128,-1,5
 527 1009 527 1009 478 980.5 c 128,-1,6
 429 952 429 952 397.5 928.5 c 128,-1,7
 366 905 366 905 350 888 c 1,8,-1
 350 0 l 1,9,-1
 160 0 l 1,10,-1
 160 1579 l 1,11,-1
 350 1616 l 1,12,-1
 350 989 l 1,13,14
 390 1032 390 1032 420 1059.5 c 128,-1,15
 450 1087 450 1087 498.5 1121 c 128,-1,16
 547 1155 547 1155 604 1172.5 c 128,-1,17
 661 1190 661 1190 725 1190 c 0,18,19
 823 1190 823 1190 898 1166 c 128,-1,20
 973 1142 973 1142 1030 1089 c 128,-1,21
 1087 1036 1087 1036 1117 945 c 128,-1,22
 1147 854 1147 854 1147 727 c 2,23,-1
 1147 0 l 1,24,-1
 957 0 l 1,25,-1
 957 727 l 2,0,1
EndSplineSet
EndChar

StartChar: i
Encoding: 105 105 76
Width: 634
Flags: W
HStem: 0 21G<224 406> 1149 20G<224 406> 1347 230<239.489 396.058>
VStem: 207 220<1382.07 1541.93> 224 182<0 1169>
LayerCount: 2
Fore
SplineSet
406 0 m 1,0,-1
 224 0 l 1,1,-1
 224 1169 l 1,2,-1
 406 1169 l 1,3,-1
 406 0 l 1,0,-1
319 1577 m 0,4,5
 367 1577 367 1577 397 1543.5 c 128,-1,6
 427 1510 427 1510 427 1462 c 256,7,8
 427 1414 427 1414 397 1380.5 c 128,-1,9
 367 1347 367 1347 319 1347 c 0,10,11
 270 1347 270 1347 238.5 1381 c 128,-1,12
 207 1415 207 1415 207 1462 c 128,-1,13
 207 1509 207 1509 238.5 1543 c 128,-1,14
 270 1577 270 1577 319 1577 c 0,4,5
EndSplineSet
EndChar

StartChar: j
Encoding: 106 106 77
Width: 588
Flags: W
HStem: 1149 20G<208 398> 1347 230<222.489 379.058>
VStem: 190 220<1382.07 1541.93> 208 190<-106.921 1169>
LayerCount: 2
Fore
SplineSet
20 -258 m 1,0,1
 70 -226 70 -226 104 -190.5 c 128,-1,2
 138 -155 138 -155 158.5 -119 c 128,-1,3
 179 -83 179 -83 190 -34 c 128,-1,4
 201 15 201 15 204.5 61.5 c 128,-1,5
 208 108 208 108 208 176 c 2,6,-1
 208 1169 l 1,7,-1
 398 1169 l 1,8,-1
 398 154 l 2,9,10
 398 41 398 41 371 -53.5 c 128,-1,11
 344 -148 344 -148 297 -212 c 128,-1,12
 250 -276 250 -276 191.5 -316.5 c 128,-1,13
 133 -357 133 -357 67 -373 c 1,14,-1
 20 -258 l 1,0,1
302 1577 m 0,15,16
 350 1577 350 1577 380 1543.5 c 128,-1,17
 410 1510 410 1510 410 1462 c 128,-1,18
 410 1414 410 1414 380 1380.5 c 128,-1,19
 350 1347 350 1347 302 1347 c 0,20,21
 253 1347 253 1347 221.5 1381 c 128,-1,22
 190 1415 190 1415 190 1462 c 128,-1,23
 190 1509 190 1509 221.5 1543 c 128,-1,24
 253 1577 253 1577 302 1577 c 0,15,16
EndSplineSet
EndChar

StartChar: k
Encoding: 107 107 78
Width: 1136
Flags: W
HStem: 0 21G<162 352 930.703 1169> 1149 20G<890.373 1136>
VStem: 162 190<0 459 627 1579>
LayerCount: 2
Fore
SplineSet
1136 1169 m 1,0,-1
 583 648 l 1,1,-1
 1169 0 l 1,2,-1
 948 0 l 1,3,-1
 468 555 l 1,4,-1
 352 459 l 1,5,-1
 352 0 l 1,6,-1
 162 0 l 1,7,-1
 162 1579 l 1,8,-1
 352 1614 l 1,9,-1
 352 627 l 1,10,-1
 911 1169 l 1,11,-1
 1136 1169 l 1,0,-1
EndSplineSet
EndChar

StartChar: l
Encoding: 108 108 79
Width: 590
Flags: W
HStem: 0 21G<213 403>
VStem: 213 190<0 1579>
LayerCount: 2
Fore
SplineSet
213 0 m 1,0,-1
 213 1579 l 1,1,-1
 403 1614 l 1,2,-1
 403 0 l 1,3,-1
 213 0 l 1,0,-1
EndSplineSet
EndChar

StartChar: m
Encoding: 109 109 80
Width: 2052
Flags: W
HStem: 0 21G<190 380 912 1102 1658 1848> 1047 143<563.498 850.488 1289.79 1595.34> 1149 20G<190 333.621>
VStem: 190 190<0 898.669> 190 141<1059.62 1169> 912 190<0 897.083> 1658 190<0 981.506>
LayerCount: 2
Fore
SplineSet
1072 967 m 1,0,1
 1143 1070 1143 1070 1258 1130 c 128,-1,2
 1373 1190 1373 1190 1492 1190 c 0,3,4
 1662 1190 1662 1190 1755 1075 c 128,-1,5
 1848 960 1848 960 1848 766 c 2,6,-1
 1848 0 l 1,7,-1
 1658 0 l 1,8,-1
 1658 768 l 2,9,10
 1658 852 1658 852 1644.5 908 c 128,-1,11
 1631 964 1631 964 1604 993.5 c 128,-1,12
 1577 1023 1577 1023 1544 1035 c 128,-1,13
 1511 1047 1511 1047 1464 1047 c 0,14,15
 1284 1047 1284 1047 1102 858 c 1,16,-1
 1102 0 l 1,17,-1
 912 0 l 1,18,-1
 912 768 l 2,19,20
 912 853 912 853 899 909.5 c 128,-1,21
 886 966 886 966 858.5 995.5 c 128,-1,22
 831 1025 831 1025 799 1036 c 128,-1,23
 767 1047 767 1047 720 1047 c 0,24,25
 567 1047 567 1047 380 860 c 1,26,-1
 380 0 l 1,27,-1
 190 0 l 1,28,-1
 190 1169 l 1,29,-1
 331 1169 l 1,30,-1
 358 963 l 1,31,32
 418 1061 418 1061 520.5 1125.5 c 128,-1,33
 623 1190 623 1190 751 1190 c 0,34,35
 883 1190 883 1190 961.5 1125.5 c 128,-1,36
 1040 1061 1040 1061 1072 967 c 1,0,1
EndSplineSet
EndChar

StartChar: n
Encoding: 110 110 81
Width: 1371
Flags: W
HStem: 0 21G<191 381 985 1175> 1047 141<589.787 901.234> 1149 20G<191 333.567>
VStem: 191 190<0 915.461> 191 140<1057.3 1169> 985 190<0 953.708>
LayerCount: 2
Fore
SplineSet
381 880 m 1,0,-1
 381 0 l 1,1,-1
 191 0 l 1,2,-1
 191 1169 l 1,3,-1
 331 1169 l 1,4,-1
 355 982 l 1,5,6
 417 1060 417 1060 546 1124 c 128,-1,7
 675 1188 675 1188 804 1188 c 0,8,9
 854 1188 854 1188 900 1178.5 c 128,-1,10
 946 1169 946 1169 998 1139 c 128,-1,11
 1050 1109 1050 1109 1087.5 1060 c 128,-1,12
 1125 1011 1125 1011 1150 925.5 c 128,-1,13
 1175 840 1175 840 1175 727 c 2,14,-1
 1175 0 l 1,15,-1
 985 0 l 1,16,-1
 985 727 l 2,17,18
 985 800 985 800 974 856 c 128,-1,19
 963 912 963 912 938.5 956.5 c 128,-1,20
 914 1001 914 1001 869 1024 c 128,-1,21
 824 1047 824 1047 761 1047 c 0,22,23
 659 1047 659 1047 542.5 985.5 c 128,-1,24
 426 924 426 924 381 880 c 1,0,-1
EndSplineSet
EndChar

StartChar: o
Encoding: 111 111 82
Width: 1313
Flags: W
HStem: -20 137<478.539 832.18> 1051 139<480.831 831.052>
VStem: 126 182<319.694 845.732> 1004 183<317.997 845.175>
LayerCount: 2
Fore
SplineSet
308 582 m 128,-1,1
 308 479 308 479 328 396 c 128,-1,2
 348 313 348 313 388.5 249.5 c 128,-1,3
 429 186 429 186 497 151.5 c 128,-1,4
 565 117 565 117 656 117 c 128,-1,5
 747 117 747 117 815 151.5 c 128,-1,6
 883 186 883 186 924 249.5 c 128,-1,7
 965 313 965 313 984.5 396 c 128,-1,8
 1004 479 1004 479 1004 582 c 128,-1,9
 1004 685 1004 685 984 768.5 c 128,-1,10
 964 852 964 852 923.5 916 c 128,-1,11
 883 980 883 980 815 1015.5 c 128,-1,12
 747 1051 747 1051 656 1051 c 128,-1,13
 565 1051 565 1051 497 1016 c 128,-1,14
 429 981 429 981 388.5 916.5 c 128,-1,15
 348 852 348 852 328 768.5 c 128,-1,0
 308 685 308 685 308 582 c 128,-1,1
126 582 m 0,16,17
 126 708 126 708 158.5 816.5 c 128,-1,18
 191 925 191 925 254.5 1009 c 128,-1,19
 318 1093 318 1093 421 1141.5 c 128,-1,20
 524 1190 524 1190 656 1190 c 0,21,22
 762 1190 762 1190 850 1158.5 c 128,-1,23
 938 1127 938 1127 1000 1071 c 128,-1,24
 1062 1015 1062 1015 1104.5 938.5 c 128,-1,25
 1147 862 1147 862 1167 772 c 128,-1,26
 1187 682 1187 682 1187 582 c 0,27,28
 1187 456 1187 456 1154.5 348 c 128,-1,29
 1122 240 1122 240 1058 157 c 128,-1,30
 994 74 994 74 891 27 c 128,-1,31
 788 -20 788 -20 656 -20 c 0,32,33
 550 -20 550 -20 462 11 c 128,-1,34
 374 42 374 42 312.5 96.5 c 128,-1,35
 251 151 251 151 208.5 227 c 128,-1,36
 166 303 166 303 146 392 c 128,-1,37
 126 481 126 481 126 582 c 0,16,17
EndSplineSet
EndChar

StartChar: p
Encoding: 112 112 83
Width: 1354
Flags: W
HStem: -487 21G<203 375.727> -20 143<566.441 900.999> 1047 143<575.532 894.592> 1149 20G<203 347.333>
VStem: 203 190<-465 164 247.004 926.995> 203 141<1082.98 1169> 1039 182<302.158 858.272>
LayerCount: 2
Fore
SplineSet
752 -20 m 0,0,1
 645 -20 645 -20 549.5 33.5 c 128,-1,2
 454 87 454 87 393 164 c 1,3,-1
 393 -465 l 1,4,-1
 203 -487 l 1,5,-1
 203 1169 l 1,6,-1
 344 1169 l 1,7,-1
 377 971 l 1,8,9
 445 1060 445 1060 541.5 1125 c 128,-1,10
 638 1190 638 1190 751 1190 c 0,11,12
 829 1190 829 1190 895 1169 c 128,-1,13
 961 1148 961 1148 1008.5 1113 c 128,-1,14
 1056 1078 1056 1078 1093.5 1029 c 128,-1,15
 1131 980 1131 980 1154.5 926.5 c 128,-1,16
 1178 873 1178 873 1193.5 812 c 128,-1,17
 1209 751 1209 751 1215 695.5 c 128,-1,18
 1221 640 1221 640 1221 584 c 0,19,20
 1221 490 1221 490 1204.5 404 c 128,-1,21
 1188 318 1188 318 1151 240 c 128,-1,22
 1114 162 1114 162 1060.5 105 c 128,-1,23
 1007 48 1007 48 928 14 c 128,-1,24
 849 -20 849 -20 752 -20 c 0,0,1
1039 543 m 0,25,26
 1039 615 1039 615 1033 678 c 128,-1,27
 1027 741 1027 741 1008.5 812 c 128,-1,28
 990 883 990 883 960 932.5 c 128,-1,29
 930 982 930 982 876.5 1014.5 c 128,-1,30
 823 1047 823 1047 752 1047 c 0,31,32
 692 1047 692 1047 628.5 1027 c 128,-1,33
 565 1007 565 1007 517 978.5 c 128,-1,34
 469 950 469 950 437.5 927 c 128,-1,35
 406 904 406 904 393 890 c 1,36,-1
 393 285 l 1,37,38
 401 276 401 276 429 253.5 c 128,-1,39
 457 231 457 231 503 200 c 128,-1,40
 549 169 549 169 612 146 c 128,-1,41
 675 123 675 123 733 123 c 0,42,43
 763 123 763 123 786.5 125.5 c 128,-1,44
 810 128 810 128 846.5 140.5 c 128,-1,45
 883 153 883 153 910.5 174.5 c 128,-1,46
 938 196 938 196 966 239.5 c 128,-1,47
 994 283 994 283 1010 343 c 0,48,49
 1039 451 1039 451 1039 543 c 0,25,26
EndSplineSet
EndChar

StartChar: q
Encoding: 113 113 84
Width: 1285
Flags: W
HStem: -502 21G<935 1100.22> -20 143<428.751 762.642> 1047 143<425.761 752.21> 1149 20G<982.566 1125>
VStem: 108 182<299.794 875.828> 935 190<-479 164 232.081 930.183> 986 139<1085.51 1169>
LayerCount: 2
Fore
SplineSet
569 1190 m 0,0,1
 685 1190 685 1190 788.5 1125.5 c 128,-1,2
 892 1061 892 1061 952 971 c 1,3,-1
 986 1169 l 1,4,-1
 1125 1169 l 1,5,-1
 1125 -479 l 1,6,-1
 935 -502 l 1,7,-1
 935 164 l 1,8,9
 874 87 874 87 780 33.5 c 128,-1,10
 686 -20 686 -20 579 -20 c 0,11,12
 481 -20 481 -20 400.5 14.5 c 128,-1,13
 320 49 320 49 266.5 106.5 c 128,-1,14
 213 164 213 164 176.5 242.5 c 128,-1,15
 140 321 140 321 124 406.5 c 128,-1,16
 108 492 108 492 108 584 c 0,17,18
 108 680 108 680 123.5 766.5 c 128,-1,19
 139 853 139 853 174.5 931.5 c 128,-1,20
 210 1010 210 1010 262.5 1066.5 c 128,-1,21
 315 1123 315 1123 393.5 1156.5 c 128,-1,22
 472 1190 472 1190 569 1190 c 0,0,1
290 584 m 0,23,24
 290 501 290 501 300 432.5 c 128,-1,25
 310 364 310 364 326.5 317 c 128,-1,26
 343 270 343 270 367 234 c 128,-1,27
 391 198 391 198 416 177.5 c 128,-1,28
 441 157 441 157 471 144 c 128,-1,29
 501 131 501 131 526 127 c 128,-1,30
 551 123 551 123 579 123 c 0,31,32
 687 123 687 123 788.5 173 c 128,-1,33
 890 223 890 223 935 268 c 1,34,-1
 935 891 l 1,35,36
 865 961 865 961 758.5 1004 c 128,-1,37
 652 1047 652 1047 569 1047 c 0,38,39
 290 1047 290 1047 290 584 c 0,23,24
EndSplineSet
EndChar

StartChar: r
Encoding: 114 114 85
Width: 885
Flags: W
HStem: 0 21G<195 385> 1030 160<545.068 790> 1149 20G<195 341.125>
VStem: 195 190<0 927.592> 195 143<1077.25 1169>
LayerCount: 2
Fore
SplineSet
690 1190 m 0,0,1
 749 1190 749 1190 790 1178 c 1,2,-1
 790 1026 l 1,3,4
 785 1030 785 1030 728 1030 c 0,5,6
 653 1030 653 1030 570 997.5 c 128,-1,7
 487 965 487 965 444.5 937.5 c 128,-1,8
 402 910 402 910 385 894 c 1,9,-1
 385 0 l 1,10,-1
 195 0 l 1,11,-1
 195 1169 l 1,12,-1
 338 1169 l 1,13,-1
 368 977 l 1,14,15
 531 1190 531 1190 690 1190 c 0,0,1
EndSplineSet
EndChar

StartChar: s
Encoding: 115 115 86
Width: 995
Flags: W
HStem: -23 150<296.169 681.291> 1042 148<319.886 701.05>
VStem: 102 160<798.43 985.86> 762 172<198.694 430.899>
LayerCount: 2
Fore
SplineSet
112 100 m 1,0,-1
 176 245 l 1,1,2
 239 191 239 191 327 159 c 128,-1,3
 415 127 415 127 483 127 c 0,4,5
 605 127 605 127 683.5 172.5 c 128,-1,6
 762 218 762 218 762 314 c 0,7,8
 762 394 762 394 714 434 c 128,-1,9
 666 474 666 474 571 505 c 2,10,-1
 397 562 l 2,11,12
 305 592 305 592 246 626 c 128,-1,13
 187 660 187 660 155.5 701.5 c 128,-1,14
 124 743 124 743 113 786.5 c 128,-1,15
 102 830 102 830 102 891 c 0,16,17
 102 929 102 929 114 968 c 128,-1,18
 126 1007 126 1007 155 1048 c 128,-1,19
 184 1089 184 1089 228 1119.5 c 128,-1,20
 272 1150 272 1150 342 1170 c 128,-1,21
 412 1190 412 1190 499 1190 c 0,22,23
 609 1190 609 1190 723 1147.5 c 128,-1,24
 837 1105 837 1105 881 1067 c 1,25,-1
 819 924 l 1,26,27
 669 1042 669 1042 510 1042 c 0,28,29
 376 1042 376 1042 319 997 c 128,-1,30
 262 952 262 952 262 880 c 0,31,32
 262 833 262 833 295 802.5 c 128,-1,33
 328 772 328 772 426 737 c 2,34,-1
 594 678 l 2,35,36
 702 640 702 640 771.5 599 c 128,-1,37
 841 558 841 558 875.5 510.5 c 128,-1,38
 910 463 910 463 922 417.5 c 128,-1,39
 934 372 934 372 934 309 c 0,40,41
 934 235 934 235 907.5 176.5 c 128,-1,42
 881 118 881 118 838 81.5 c 128,-1,43
 795 45 795 45 736.5 20.5 c 128,-1,44
 678 -4 678 -4 619 -13.5 c 128,-1,45
 560 -23 560 -23 496 -23 c 0,46,47
 395 -23 395 -23 279.5 16.5 c 128,-1,48
 164 56 164 56 112 100 c 1,0,-1
EndSplineSet
EndChar

StartChar: t
Encoding: 116 116 87
Width: 828
Flags: W
HStem: -16 147<431.048 649.149> 1065 104<27 210 400 733>
VStem: 210 190<146.367 1065> 238 162<1169 1530>
LayerCount: 2
Fore
SplineSet
494 -16 m 0,0,1
 340 -16 340 -16 275 67.5 c 128,-1,2
 210 151 210 151 210 350 c 2,3,-1
 210 1065 l 1,4,-1
 27 1065 l 1,5,-1
 27 1169 l 1,6,-1
 238 1169 l 1,7,-1
 238 1530 l 1,8,-1
 400 1576 l 1,9,-1
 400 1169 l 1,10,-1
 733 1169 l 1,11,-1
 733 1065 l 1,12,-1
 400 1065 l 1,13,-1
 400 298 l 2,14,15
 400 232 400 232 411.5 194.5 c 128,-1,16
 423 157 423 157 443 144 c 128,-1,17
 463 131 463 131 498 131 c 0,18,19
 576 131 576 131 686 196 c 1,20,-1
 724 217 l 1,21,-1
 791 94 l 1,22,-1
 744 64 l 2,23,24
 729 55 729 55 697.5 39.5 c 128,-1,25
 666 24 666 24 603.5 4 c 128,-1,26
 541 -16 541 -16 494 -16 c 0,0,1
EndSplineSet
EndChar

StartChar: u
Encoding: 117 117 88
Width: 1264
Flags: W
HStem: -20 143<408.781 740.085> 0 21G<953.932 1098> 1149 20G<132 322 908 1098>
VStem: 132 190<218.827 1169> 908 190<238.609 1169> 957 141<0 93.4495>
LayerCount: 2
Fore
SplineSet
322 442 m 2,0,1
 322 288 322 288 374.5 205.5 c 128,-1,2
 427 123 427 123 554 123 c 0,3,4
 747 123 747 123 908 274 c 1,5,-1
 908 1169 l 1,6,-1
 1098 1169 l 1,7,-1
 1098 0 l 1,8,-1
 957 0 l 1,9,-1
 930 176 l 1,10,11
 840 75 840 75 747 27.5 c 128,-1,12
 654 -20 654 -20 544 -20 c 0,13,14
 349 -20 349 -20 240.5 91 c 128,-1,15
 132 202 132 202 132 442 c 2,16,-1
 132 1169 l 1,17,-1
 322 1169 l 1,18,-1
 322 442 l 2,0,1
EndSplineSet
EndChar

StartChar: v
Encoding: 118 118 89
Width: 1170
Flags: W
HStem: 0 21G<478.677 679.357> 1149 20G<58 252.928 905.196 1102>
LayerCount: 2
Fore
SplineSet
672 0 m 1,0,-1
 486 0 l 1,1,-1
 58 1169 l 1,2,-1
 246 1169 l 1,3,-1
 582 199 l 1,4,-1
 912 1169 l 1,5,-1
 1102 1169 l 1,6,-1
 672 0 l 1,0,-1
EndSplineSet
EndChar

StartChar: w
Encoding: 119 119 90
Width: 1709
Flags: W
HStem: 0 21G<370.525 586.784 1078.69 1295.47> 1149 20G<56 244.478 727.062 938.776 1419.42 1610>
LayerCount: 2
Fore
SplineSet
820 995 m 1,0,-1
 582 0 l 1,1,-1
 376 0 l 1,2,-1
 56 1169 l 1,3,-1
 240 1169 l 1,4,-1
 474 124 l 1,5,-1
 732 1169 l 1,6,-1
 934 1169 l 1,7,-1
 1184 122 l 1,8,-1
 1424 1169 l 1,9,-1
 1610 1169 l 1,10,-1
 1290 0 l 1,11,-1
 1084 0 l 1,12,-1
 820 995 l 1,0,-1
EndSplineSet
EndChar

StartChar: x
Encoding: 120 120 91
Width: 1177
Flags: W
HStem: 0 21G<94 318.075 864.176 1080> 1149 20G<90 318.077 865.58 1088>
LayerCount: 2
Fore
SplineSet
90 1169 m 1,0,-1
 306 1169 l 1,1,-1
 588 702 l 1,2,-1
 878 1169 l 1,3,-1
 1088 1169 l 1,4,-1
 682 584 l 1,5,-1
 1080 0 l 1,6,-1
 876 0 l 1,7,-1
 594 477 l 1,8,-1
 306 0 l 1,9,-1
 94 0 l 1,10,-1
 502 584 l 1,11,-1
 90 1169 l 1,0,-1
EndSplineSet
EndChar

StartChar: y
Encoding: 121 121 92
Width: 1223
Flags: W
HStem: -459 21G<246.84 289> 1149 20G<93 282.717 924.457 1126>
LayerCount: 2
Fore
SplineSet
630 249 m 1,0,-1
 931 1169 l 1,1,-1
 1126 1169 l 1,2,-1
 689 -37 l 2,3,4
 641 -169 641 -169 626 -203 c 0,5,6
 537 -393 537 -393 381 -441 c 0,7,8
 323 -459 323 -459 255 -459 c 1,9,-1
 204 -334 l 1,10,11
 355 -308 355 -308 421 -239 c 128,-1,12
 487 -170 487 -170 544 23 c 1,13,-1
 93 1169 l 1,14,-1
 275 1169 l 1,15,-1
 630 249 l 1,0,-1
EndSplineSet
EndChar

StartChar: z
Encoding: 122 122 93
Width: 1008
Flags: W
HStem: 0 145<278 904> 1029 140<132 740>
LayerCount: 2
Fore
SplineSet
904 1169 m 1,0,-1
 904 1004 l 1,1,-1
 278 145 l 1,2,-1
 904 145 l 1,3,-1
 904 0 l 1,4,-1
 102 0 l 1,5,-1
 102 166 l 1,6,-1
 740 1029 l 1,7,-1
 132 1029 l 1,8,-1
 132 1169 l 1,9,-1
 904 1169 l 1,0,-1
EndSplineSet
EndChar

StartChar: braceleft
Encoding: 123 123 94
Width: 823
Flags: W
HStem: -209 169<554.014 722> 571 188<75 220.031> 1370 169<554.014 722>
VStem: 313 170<32.6907 467.038 862.962 1297.31>
CounterMasks: 1 e0
LayerCount: 2
Fore
SplineSet
75 571 m 1,0,1
 313 571 313 571 313 263 c 0,2,3
 313 102 313 102 358 -6 c 1,4,5
 445 -209 445 -209 722 -209 c 1,6,-1
 723 -40 l 1,7,8
 661 -40 661 -40 621 -32 c 128,-1,9
 581 -24 581 -24 546 9 c 0,10,11
 529 25 529 25 519 49.5 c 128,-1,12
 509 74 509 74 497 118.5 c 128,-1,13
 485 163 485 163 483 288 c 1,14,15
 483 602 483 602 242 665 c 1,16,17
 483 728 483 728 483 1042 c 1,18,19
 485 1167 485 1167 497 1211.5 c 128,-1,20
 509 1256 509 1256 519 1280.5 c 128,-1,21
 529 1305 529 1305 546 1321 c 0,22,23
 581 1354 581 1354 621 1362 c 128,-1,24
 661 1370 661 1370 723 1370 c 1,25,-1
 722 1539 l 1,26,27
 445 1539 445 1539 358 1336 c 1,28,29
 313 1228 313 1228 313 1067 c 0,30,31
 313 759 313 759 75 759 c 1,32,-1
 75 571 l 1,0,1
EndSplineSet
EndChar

StartChar: bar
Encoding: 124 124 95
Width: 625
Flags: W
VStem: 224 178<-111 1696>
LayerCount: 2
Fore
SplineSet
224 -111 m 1,0,-1
 224 1696 l 1,1,-1
 402 1696 l 1,2,-1
 402 -111 l 1,3,-1
 224 -111 l 1,0,-1
EndSplineSet
EndChar

StartChar: braceright
Encoding: 125 125 96
Width: 827
Flags: W
HStem: -209 169<131 298.868> 571 188<632.969 778> 1370 169<131 298.868>
VStem: 370 170<32.6907 467.038 862.962 1297.31>
CounterMasks: 1 e0
LayerCount: 2
Fore
SplineSet
778 571 m 1,0,1
 540 571 540 571 540 263 c 0,2,3
 540 102 540 102 494 -6 c 0,4,5
 408 -209 408 -209 131 -209 c 1,6,-1
 130 -40 l 1,7,8
 192 -40 192 -40 232 -32 c 128,-1,9
 272 -24 272 -24 307 9 c 0,10,11
 324 25 324 25 334 49.5 c 128,-1,12
 344 74 344 74 356 118.5 c 128,-1,13
 368 163 368 163 370 288 c 1,14,15
 370 602 370 602 611 665 c 1,16,17
 370 728 370 728 370 1042 c 1,18,19
 368 1167 368 1167 356 1211.5 c 128,-1,20
 344 1256 344 1256 334 1280.5 c 128,-1,21
 324 1305 324 1305 307 1321 c 0,22,23
 272 1354 272 1354 232 1362 c 128,-1,24
 192 1370 192 1370 130 1370 c 1,25,-1
 131 1539 l 1,26,27
 408 1539 408 1539 494 1336 c 0,28,29
 540 1228 540 1228 540 1067 c 0,30,31
 540 759 540 759 778 759 c 1,32,-1
 778 571 l 1,0,1
EndSplineSet
EndChar

StartChar: asciitilde
Encoding: 126 126 97
Width: 899
Flags: W
HStem: 390 139<514.677 688.162> 509 145<261.276 428.933>
VStem: 93 156<394 483.724> 697 156<531.857 640>
LayerCount: 2
Fore
SplineSet
661 390 m 0,0,1
 612 390 612 390 555 408.5 c 128,-1,2
 498 427 498 427 457 449.5 c 128,-1,3
 416 472 416 472 373.5 490.5 c 128,-1,4
 331 509 331 509 308 509 c 0,5,6
 279 509 279 509 264 484.5 c 128,-1,7
 249 460 249 460 249 394 c 1,8,-1
 93 394 l 1,9,10
 93 654 93 654 294 654 c 0,11,12
 344 654 344 654 396.5 634.5 c 128,-1,13
 449 615 449 615 485.5 591.5 c 128,-1,14
 522 568 522 568 564 548.5 c 128,-1,15
 606 529 606 529 638 529 c 0,16,17
 697 529 697 529 697 640 c 1,18,-1
 853 640 l 1,19,20
 853 526 853 526 801 458 c 128,-1,21
 749 390 749 390 661 390 c 0,0,1
EndSplineSet
EndChar

StartChar: exclamdown
Encoding: 161 161 98
Width: 790
Flags: W
VStem: 289 228<1 287.477> 343 115<893.523 1180>
LayerCount: 2
Fore
SplineSet
502 1393 m 1,0,-1
 502 1595 l 1,1,-1
 293 1595 l 1,2,-1
 293 1393 l 1,3,-1
 502 1393 l 1,0,-1
458 1180 m 1,4,-1
 343 1180 l 1,5,-1
 289 0 l 1,6,-1
 517 1 l 1,7,-1
 458 1180 l 1,4,-1
EndSplineSet
EndChar

StartChar: cent
Encoding: 162 162 99
Width: 1138
Flags: W
HStem: -9 138<487.734 616 778.5 922.516> 1037 152<491.75 616 719 899.217>
VStem: 142 190<312.062 850.788>
LayerCount: 2
Fore
SplineSet
616 -159 m 1,0,-1
 719 -159 l 1,1,-1
 719 -19 l 1,2,3
 762 -19 762 -19 809.5 -9.5 c 128,-1,4
 857 0 857 0 895 12.5 c 128,-1,5
 933 25 933 25 964 37.5 c 128,-1,6
 995 50 995 50 1013 59 c 128,-1,7
 1031 68 1031 68 1030 68 c 2,8,-1
 984 205 l 1,9,10
 984 205 984 205 977 201 c 128,-1,11
 970 197 970 197 956.5 190 c 128,-1,12
 943 183 943 183 925 175 c 128,-1,13
 907 167 907 167 883 159 c 128,-1,14
 859 151 859 151 834 144.5 c 128,-1,15
 809 138 809 138 778.5 134 c 128,-1,16
 748 130 748 130 719 130 c 1,17,-1
 719 1038 l 1,18,19
 741 1038 741 1038 764 1034.5 c 128,-1,20
 787 1031 787 1031 807.5 1026 c 128,-1,21
 828 1021 828 1021 848 1014 c 128,-1,22
 868 1007 868 1007 885 999 c 128,-1,23
 902 991 902 991 917.5 983 c 128,-1,24
 933 975 933 975 945 968 c 128,-1,25
 957 961 957 961 965.5 955.5 c 128,-1,26
 974 950 974 950 979 947 c 128,-1,27
 984 944 984 944 984 944 c 1,28,-1
 1041 1077 l 1,29,30
 1041 1077 1041 1077 1022 1087.5 c 128,-1,31
 1003 1098 1003 1098 970 1114 c 128,-1,32
 937 1130 937 1130 898 1146 c 128,-1,33
 859 1162 859 1162 810 1174 c 128,-1,34
 761 1186 761 1186 719 1186 c 1,35,-1
 719 1329 l 1,36,-1
 616 1329 l 1,37,-1
 616 1189 l 1,38,39
 570 1185 570 1185 525.5 1174.5 c 128,-1,40
 481 1164 481 1164 433.5 1141.5 c 128,-1,41
 386 1119 386 1119 344.5 1087 c 128,-1,42
 303 1055 303 1055 265 1006 c 128,-1,43
 227 957 227 957 200.5 897.5 c 128,-1,44
 174 838 174 838 158 756.5 c 128,-1,45
 142 675 142 675 142 580 c 0,46,47
 142 484 142 484 158 402.5 c 128,-1,48
 174 321 174 321 201 261.5 c 128,-1,49
 228 202 228 202 266 154 c 128,-1,50
 304 106 304 106 345.5 75 c 128,-1,51
 387 44 387 44 435 22.5 c 128,-1,52
 483 1 483 1 527 -9 c 128,-1,53
 571 -19 571 -19 616 -22 c 1,54,-1
 616 -159 l 1,0,-1
616 129 m 1,55,56
 569 134 569 134 528.5 151 c 128,-1,57
 488 168 488 168 451 203 c 128,-1,58
 414 238 414 238 388 288 c 128,-1,59
 362 338 362 338 347 412.5 c 128,-1,60
 332 487 332 487 332 580 c 0,61,62
 332 1000 332 1000 616 1037 c 1,63,-1
 616 129 l 1,55,56
EndSplineSet
EndChar

StartChar: sterling
Encoding: 163 163 100
Width: 1128
Flags: W
HStem: 1180 142<475.797 659 757.5 882.962>
VStem: 209 182<801.732 1102.16> 344 150<298.986 504.5>
LayerCount: 2
Fore
SplineSet
207 126 m 1,0,-1
 207 0 l 1,1,-1
 1004 0 l 1,2,-1
 1004 132 l 1,3,-1
 388 132 l 1,4,5
 393 139 393 139 401 151.5 c 128,-1,6
 409 164 409 164 429.5 208.5 c 128,-1,7
 450 253 450 253 465.5 303.5 c 128,-1,8
 481 354 481 354 494 435 c 128,-1,9
 507 516 507 516 507 603 c 1,10,-1
 935 603 l 1,11,-1
 935 706 l 1,12,-1
 507 706 l 1,13,-1
 476 741 l 1,14,15
 391 851 391 851 391 959 c 0,16,17
 391 1180 391 1180 659 1180 c 0,18,19
 706 1180 706 1180 757.5 1170.5 c 128,-1,20
 809 1161 809 1161 848.5 1147.5 c 128,-1,21
 888 1134 888 1134 921 1120.5 c 128,-1,22
 954 1107 954 1107 971 1097 c 1,23,-1
 989 1088 l 1,24,-1
 1039 1219 l 1,25,26
 1039 1219 1039 1219 1022.5 1228.5 c 128,-1,27
 1006 1238 1006 1238 969 1254 c 128,-1,28
 932 1270 932 1270 883 1285 c 128,-1,29
 834 1300 834 1300 758.5 1311 c 128,-1,30
 683 1322 683 1322 600 1322 c 0,31,32
 498 1322 498 1322 408 1275 c 128,-1,33
 318 1228 318 1228 263.5 1143 c 128,-1,34
 209 1058 209 1058 209 956 c 0,35,36
 209 915 209 915 221 874 c 128,-1,37
 233 833 233 833 250 803.5 c 128,-1,38
 267 774 267 774 284 750.5 c 128,-1,39
 301 727 301 727 312.5 715.5 c 128,-1,40
 324 704 324 704 325 706 c 1,41,-1
 152 706 l 1,42,-1
 152 603 l 1,43,-1
 349 603 l 1,44,45
 349 553 349 553 344 504.5 c 128,-1,46
 339 456 339 456 331 416.5 c 128,-1,47
 323 377 323 377 312.5 340.5 c 128,-1,48
 302 304 302 304 290 275.5 c 128,-1,49
 278 247 278 247 266.5 222.5 c 128,-1,50
 255 198 255 198 244 180.5 c 128,-1,51
 233 163 233 163 225 151 c 128,-1,52
 217 139 217 139 212 132 c 2,53,-1
 207 126 l 1,0,-1
EndSplineSet
EndChar

StartChar: currency
Encoding: 164 164 101
Width: 1366
Flags: W
HStem: 558 141<523.66 818.029> 1266 143<538.448 834.525>
VStem: 253 143<827.51 1123.76> 962 142<842.948 1138.84>
LayerCount: 2
Fore
SplineSet
483 1177 m 0,0,1
 396 1089 396 1089 396 975 c 0,2,3
 396 863 396 863 478 781 c 256,4,5
 560 699 560 699 670 699 c 0,6,7
 785 699 785 699 873 787 c 0,8,9
 962 876 962 876 962 992 c 0,10,11
 962 1103 962 1103 881 1184 c 0,12,13
 799 1266 799 1266 688 1266 c 0,14,15
 572 1266 572 1266 483 1177 c 0,0,1
321 742 m 1,16,17
 253 844 253 844 253 967 c 0,18,19
 253 1097 253 1097 328 1208 c 1,20,-1
 134 1402 l 1,21,-1
 258 1526 l 1,22,-1
 452 1333 l 1,23,24
 564 1409 564 1409 695 1409 c 0,25,26
 818 1409 818 1409 920 1341 c 1,27,-1
 1106 1526 l 1,28,-1
 1230 1402 l 1,29,-1
 1043 1215 l 1,30,31
 1104 1117 1104 1117 1104 1000 c 0,32,33
 1104 869 1104 869 1028 757 c 1,34,-1
 1230 555 l 1,35,-1
 1106 430 l 1,36,-1
 903 633 l 1,37,38
 793 558 793 558 663 558 c 0,39,40
 546 558 546 558 447 619 c 1,41,-1
 258 430 l 1,42,-1
 134 555 l 1,43,-1
 321 742 l 1,16,17
EndSplineSet
EndChar

StartChar: yen
Encoding: 165 165 102
Width: 1277
Flags: W
HStem: 0 21G<565 755> 389 99<263 565 755 1051> 584 104<263 524 788 1051> 1559 20G<41 245.619 1064.38 1269>
VStem: 565 190<0 389 488 584>
LayerCount: 2
Fore
SplineSet
524 688 m 1,0,-1
 41 1579 l 1,1,-1
 235 1579 l 1,2,-1
 655 788 l 1,3,-1
 1075 1579 l 1,4,-1
 1269 1579 l 1,5,-1
 788 688 l 1,6,-1
 1051 688 l 1,7,-1
 1051 584 l 1,8,-1
 755 584 l 1,9,-1
 755 488 l 1,10,-1
 1051 488 l 1,11,-1
 1051 389 l 1,12,-1
 755 389 l 1,13,-1
 755 0 l 1,14,-1
 565 0 l 1,15,-1
 565 389 l 1,16,-1
 263 389 l 1,17,-1
 263 488 l 1,18,-1
 565 488 l 1,19,-1
 565 584 l 1,20,-1
 263 584 l 1,21,-1
 263 688 l 1,22,-1
 524 688 l 1,0,-1
EndSplineSet
EndChar

StartChar: brokenbar
Encoding: 166 166 103
Width: 640
Flags: W
HStem: 0 21G<249 437> 1559 20G<249 437>
VStem: 249 188<0 690 889 1579>
LayerCount: 2
Fore
SplineSet
249 889 m 1,0,-1
 249 1579 l 1,1,-1
 437 1579 l 1,2,-1
 437 889 l 1,3,-1
 249 889 l 1,0,-1
249 0 m 1,4,-1
 249 690 l 1,5,-1
 437 690 l 1,6,-1
 437 0 l 1,7,-1
 249 0 l 1,4,-1
EndSplineSet
EndChar

StartChar: section
Encoding: 167 167 104
Width: 1192
Flags: W
HStem: -96 146<397.344 780.494> 1424 145<428.435 801.634>
VStem: 225 154<648.733 858.552 1197.25 1374.81> 846 169<111.406 336.352 647.186 862.956>
LayerCount: 2
Fore
SplineSet
235 20 m 1,0,-1
 296 158 l 1,1,2
 354 107 354 107 437.5 78.5 c 128,-1,3
 521 50 521 50 587 50 c 0,4,5
 642 50 642 50 687.5 59 c 128,-1,6
 733 68 733 68 769.5 88 c 128,-1,7
 806 108 806 108 826 142.5 c 128,-1,8
 846 177 846 177 846 223 c 0,9,10
 846 263 846 263 833.5 292.5 c 128,-1,11
 821 322 821 322 793.5 343 c 128,-1,12
 766 364 766 364 737.5 377 c 128,-1,13
 709 390 709 390 665 405 c 2,14,-1
 505 459 l 2,15,16
 418 488 418 488 362 520 c 128,-1,17
 306 552 306 552 276.5 591.5 c 128,-1,18
 247 631 247 631 236 672 c 128,-1,19
 225 713 225 713 225 771 c 0,20,21
 225 797 225 797 232 823 c 128,-1,22
 239 849 239 849 257 877.5 c 128,-1,23
 275 906 275 906 302.5 929 c 128,-1,24
 330 952 330 952 376 970 c 128,-1,25
 422 988 422 988 480 995 c 1,26,27
 399 1026 399 1026 347.5 1058.5 c 128,-1,28
 296 1091 296 1091 270 1128.5 c 128,-1,29
 244 1166 244 1166 234.5 1201.5 c 128,-1,30
 225 1237 225 1237 225 1285 c 0,31,32
 225 1321 225 1321 236.5 1358 c 128,-1,33
 248 1395 248 1395 275.5 1433.5 c 128,-1,34
 303 1472 303 1472 344.5 1501.5 c 128,-1,35
 386 1531 386 1531 452.5 1550 c 128,-1,36
 519 1569 519 1569 602 1569 c 0,37,38
 706 1569 706 1569 814.5 1528.5 c 128,-1,39
 923 1488 923 1488 964 1452 c 1,40,-1
 906 1316 l 1,41,42
 841 1367 841 1367 765 1395.5 c 128,-1,43
 689 1424 689 1424 612 1424 c 0,44,45
 381 1424 381 1424 381 1275 c 0,46,47
 381 1230 381 1230 412.5 1201 c 128,-1,48
 444 1172 444 1172 537 1139 c 2,49,-1
 692 1083 l 2,50,51
 775 1053 775 1053 833.5 1021.5 c 128,-1,52
 892 990 892 990 926.5 960 c 128,-1,53
 961 930 961 930 980.5 893.5 c 128,-1,54
 1000 857 1000 857 1006.5 823.5 c 128,-1,55
 1013 790 1013 790 1013 746 c 0,56,57
 1013 657 1013 657 945 594 c 128,-1,58
 877 531 877 531 764 522 c 1,59,60
 828 500 828 500 874.5 471 c 128,-1,61
 921 442 921 442 947.5 413 c 128,-1,62
 974 384 974 384 989.5 348.5 c 128,-1,63
 1005 313 1005 313 1010 283.5 c 128,-1,64
 1015 254 1015 254 1015 219 c 0,65,66
 1015 148 1015 148 989.5 92.5 c 128,-1,67
 964 37 964 37 923.5 2.5 c 128,-1,68
 883 -32 883 -32 827.5 -55 c 128,-1,69
 772 -78 772 -78 715.5 -87 c 128,-1,70
 659 -96 659 -96 599 -96 c 0,71,72
 503 -96 503 -96 393.5 -58.5 c 128,-1,73
 284 -21 284 -21 235 20 c 1,0,-1
614 600 m 0,74,75
 731 600 731 600 792 639 c 128,-1,76
 853 678 853 678 853 751 c 0,77,78
 853 786 853 786 842 813 c 128,-1,79
 831 840 831 840 810 856.5 c 128,-1,80
 789 873 789 873 766.5 883.5 c 128,-1,81
 744 894 744 894 713.5 898.5 c 128,-1,82
 683 903 683 903 662 904.5 c 128,-1,83
 641 906 641 906 614 906 c 0,84,85
 489 906 489 906 434 867 c 128,-1,86
 379 828 379 828 379 753 c 0,87,88
 379 600 379 600 614 600 c 0,74,75
EndSplineSet
EndChar

StartChar: dieresis
Encoding: 168 168 105
Width: 952
Flags: W
HStem: 381 230<153.489 310.058 643.489 800.058>
VStem: 121 220<416.066 575.934> 611 220<416.066 575.934>
LayerCount: 2
Fore
SplineSet
233 611 m 0,0,1
 281 611 281 611 311 577.5 c 128,-1,2
 341 544 341 544 341 496 c 128,-1,3
 341 448 341 448 311 414.5 c 128,-1,4
 281 381 281 381 233 381 c 0,5,6
 184 381 184 381 152.5 415 c 128,-1,7
 121 449 121 449 121 496 c 128,-1,8
 121 543 121 543 152.5 577 c 128,-1,9
 184 611 184 611 233 611 c 0,0,1
723 611 m 0,10,11
 771 611 771 611 801 577.5 c 128,-1,12
 831 544 831 544 831 496 c 128,-1,13
 831 448 831 448 801 414.5 c 128,-1,14
 771 381 771 381 723 381 c 0,15,16
 674 381 674 381 642.5 415 c 128,-1,17
 611 449 611 449 611 496 c 128,-1,18
 611 543 611 543 642.5 577 c 128,-1,19
 674 611 674 611 723 611 c 0,10,11
EndSplineSet
EndChar

StartChar: copyright
Encoding: 169 169 106
Width: 2101
Flags: W
HStem: -23 124<775.262 1302.74> 336 128<843.955 1281.06> 1198 128<843.955 1281.06> 1562 125<792.034 1285.97>
VStem: 164 148<567.456 1087.72> 554 162<594.012 1067.99> 1766 148<567.456 1087.72>
LayerCount: 2
Fore
SplineSet
554 831 m 128,-1,1
 554 774 554 774 561 723.5 c 128,-1,2
 568 673 568 673 585 622.5 c 128,-1,3
 602 572 602 572 628 530 c 128,-1,4
 654 488 654 488 695.5 451.5 c 128,-1,5
 737 415 737 415 790 390 c 128,-1,6
 843 365 843 365 916 350.5 c 128,-1,7
 989 336 989 336 1076 336 c 0,8,9
 1203 336 1203 336 1356 414 c 1,10,-1
 1356 540 l 1,11,12
 1205 464 1205 464 1062 464 c 0,13,14
 972 464 972 464 910 481 c 128,-1,15
 848 498 848 498 802.5 540 c 128,-1,16
 757 582 757 582 736.5 653.5 c 128,-1,17
 716 725 716 725 716 831 c 128,-1,18
 716 937 716 937 736.5 1008.5 c 128,-1,19
 757 1080 757 1080 802.5 1122 c 128,-1,20
 848 1164 848 1164 910 1181 c 128,-1,21
 972 1198 972 1198 1062 1198 c 0,22,23
 1205 1198 1205 1198 1356 1122 c 1,24,-1
 1356 1248 l 1,25,26
 1203 1326 1203 1326 1076 1326 c 0,27,28
 989 1326 989 1326 916 1311.5 c 128,-1,29
 843 1297 843 1297 790 1272 c 128,-1,30
 737 1247 737 1247 695.5 1210.5 c 128,-1,31
 654 1174 654 1174 628 1132 c 128,-1,32
 602 1090 602 1090 585 1039.5 c 128,-1,33
 568 989 568 989 561 938.5 c 128,-1,0
 554 888 554 888 554 831 c 128,-1,1
1039 1687 m 128,-1,35
 932 1687 932 1687 825 1659.5 c 128,-1,36
 718 1632 718 1632 621 1580.5 c 128,-1,37
 524 1529 524 1529 440.5 1452.5 c 128,-1,38
 357 1376 357 1376 295.5 1283 c 128,-1,39
 234 1190 234 1190 199 1073 c 128,-1,40
 164 956 164 956 164 830 c 0,41,42
 164 706 164 706 197.5 590 c 128,-1,43
 231 474 231 474 290 381 c 128,-1,44
 349 288 349 288 431.5 211.5 c 128,-1,45
 514 135 514 135 611 83.5 c 128,-1,46
 708 32 708 32 817.5 4.5 c 128,-1,47
 927 -23 927 -23 1039 -23 c 128,-1,48
 1151 -23 1151 -23 1260.5 4.5 c 128,-1,49
 1370 32 1370 32 1467 83.5 c 128,-1,50
 1564 135 1564 135 1646.5 211.5 c 128,-1,51
 1729 288 1729 288 1788 381 c 128,-1,52
 1847 474 1847 474 1880.5 590 c 128,-1,53
 1914 706 1914 706 1914 830 c 0,54,55
 1914 956 1914 956 1879 1073 c 128,-1,56
 1844 1190 1844 1190 1782.5 1283 c 128,-1,57
 1721 1376 1721 1376 1637.5 1452.5 c 128,-1,58
 1554 1529 1554 1529 1457 1580.5 c 128,-1,59
 1360 1632 1360 1632 1253 1659.5 c 128,-1,34
 1146 1687 1146 1687 1039 1687 c 128,-1,35
1039 101 m 128,-1,61
 879 101 879 101 742.5 158 c 128,-1,62
 606 215 606 215 512 313.5 c 128,-1,63
 418 412 418 412 365 545.5 c 128,-1,64
 312 679 312 679 312 829 c 0,65,66
 312 960 312 960 353 1077 c 128,-1,67
 394 1194 394 1194 465.5 1281.5 c 128,-1,68
 537 1369 537 1369 630 1433 c 128,-1,69
 723 1497 723 1497 828 1529.5 c 128,-1,70
 933 1562 933 1562 1039 1562 c 128,-1,71
 1145 1562 1145 1562 1250 1529.5 c 128,-1,72
 1355 1497 1355 1497 1448 1433 c 128,-1,73
 1541 1369 1541 1369 1612.5 1281.5 c 128,-1,74
 1684 1194 1684 1194 1725 1077 c 128,-1,75
 1766 960 1766 960 1766 829 c 0,76,77
 1766 679 1766 679 1713 545.5 c 128,-1,78
 1660 412 1660 412 1566 313.5 c 128,-1,79
 1472 215 1472 215 1335.5 158 c 128,-1,60
 1199 101 1199 101 1039 101 c 128,-1,61
EndSplineSet
EndChar

StartChar: ordfeminine
Encoding: 170 170 107
Width: 1186
Flags: W
HStem: 446 129<270 954> 668 113<411.36 701.576> 1158 100<435.233 797.398> 1513 125<372.073 752.976>
VStem: 206 161<823.797 1092.44> 799 161<855.465 1147.62 1218 1466.7> 844 116<686 761.397>
LayerCount: 2
Fore
SplineSet
270 575 m 1,0,-1
 954 575 l 1,1,-1
 954 446 l 1,2,-1
 270 446 l 1,3,-1
 270 575 l 1,0,-1
561 781 m 0,4,5
 603 781 603 781 643 793.5 c 128,-1,6
 683 806 683 806 710.5 823.5 c 128,-1,7
 738 841 738 841 759 859.5 c 128,-1,8
 780 878 780 878 790 890 c 128,-1,9
 800 902 800 902 799 903 c 1,10,-1
 799 1141 l 1,11,12
 697 1158 697 1158 623 1158 c 0,13,14
 367 1158 367 1158 367 971 c 0,15,16
 367 866 367 866 410 823.5 c 128,-1,17
 453 781 453 781 561 781 c 0,4,5
206 960 m 0,18,19
 206 1102 206 1102 304.5 1180 c 128,-1,20
 403 1258 403 1258 565 1258 c 0,21,22
 613 1258 613 1258 670.5 1250 c 128,-1,23
 728 1242 728 1242 764.5 1232.5 c 128,-1,24
 801 1223 801 1223 799 1218 c 1,25,-1
 799 1276 l 2,26,27
 799 1327 799 1327 795.5 1360 c 128,-1,28
 792 1393 792 1393 780.5 1424.5 c 128,-1,29
 769 1456 769 1456 748 1473.5 c 128,-1,30
 727 1491 727 1491 692 1502 c 128,-1,31
 657 1513 657 1513 607 1513 c 0,32,33
 538 1513 538 1513 464.5 1495 c 128,-1,34
 391 1477 391 1477 355 1461.5 c 128,-1,35
 319 1446 319 1446 316 1443 c 1,36,-1
 263 1552 l 1,37,38
 263 1552 263 1552 272 1556.5 c 128,-1,39
 281 1561 281 1561 297.5 1568.5 c 128,-1,40
 314 1576 314 1576 336.5 1585 c 128,-1,41
 359 1594 359 1594 388.5 1603.5 c 128,-1,42
 418 1613 418 1613 450 1620.5 c 128,-1,43
 482 1628 482 1628 521 1633 c 128,-1,44
 560 1638 560 1638 599 1638 c 0,45,46
 701 1638 701 1638 770 1616 c 128,-1,47
 839 1594 839 1594 881.5 1544.5 c 128,-1,48
 924 1495 924 1495 942 1420.5 c 128,-1,49
 960 1346 960 1346 960 1235 c 2,50,-1
 960 686 l 1,51,-1
 844 686 l 1,52,-1
 817 828 l 1,53,54
 817 828 817 828 811.5 819 c 128,-1,55
 806 810 806 810 795.5 796 c 128,-1,56
 785 782 785 782 769.5 765 c 128,-1,57
 754 748 754 748 730 731 c 128,-1,58
 706 714 706 714 677.5 699.5 c 128,-1,59
 649 685 649 685 608.5 676.5 c 128,-1,60
 568 668 568 668 523 668 c 0,61,62
 375 668 375 668 290.5 744 c 128,-1,63
 206 820 206 820 206 960 c 0,18,19
EndSplineSet
EndChar

StartChar: guillemotleft
Encoding: 171 171 108
Width: 1533
Flags: W
LayerCount: 2
Fore
SplineSet
1366 842 m 1,0,-1
 929 577 l 1,1,-1
 1366 306 l 1,2,-1
 1366 99 l 1,3,-1
 758 481 l 1,4,-1
 758 666 l 1,5,-1
 1366 1049 l 1,6,-1
 1366 842 l 1,0,-1
758 842 m 1,7,-1
 322 577 l 1,8,-1
 758 306 l 1,9,-1
 758 99 l 1,10,-1
 150 481 l 1,11,-1
 150 666 l 1,12,-1
 758 1049 l 1,13,-1
 758 842 l 1,7,-1
EndSplineSet
EndChar

StartChar: logicalnot
Encoding: 172 172 109
Width: 1724
Flags: W
LayerCount: 2
Fore
SplineSet
1448 338 m 1,0,-1
 1448 1174 l 1,1,-1
 94 1174 l 1,2,-1
 94 1023 l 1,3,-1
 1272 1023 l 1,4,-1
 1272 338 l 1,5,-1
 1448 338 l 1,0,-1
EndSplineSet
EndChar

StartChar: uni00AD
Encoding: 173 173 110
Width: 864
Flags: W
HStem: 508 131<154 622>
VStem: 154 468<508 639>
LayerCount: 2
Fore
SplineSet
622 508 m 1,0,-1
 154 508 l 1,1,-1
 154 639 l 1,2,-1
 622 639 l 1,3,-1
 622 508 l 1,0,-1
EndSplineSet
EndChar

StartChar: registered
Encoding: 174 174 111
Width: 1334
Flags: W
HStem: 542 99<474.034 906.126> 1068 82<620 683.544> 1326 82<620 776.277> 1572 102<475.778 905.798>
VStem: 102 108<903.081 1308.72> 511 106<807 1068 1150 1326> 816 104<1172.11 1309.58> 1173 108<903.932 1309.47>
LayerCount: 2
Fore
SplineSet
668 1150 m 2,0,1
 741 1150 741 1150 778.5 1173.5 c 128,-1,2
 816 1197 816 1197 816 1256 c 0,3,4
 816 1292 816 1292 777.5 1309 c 128,-1,5
 739 1326 739 1326 620 1326 c 1,6,-1
 620 1150 l 1,7,-1
 668 1150 l 2,0,1
920 1261 m 0,8,9
 920 1187 920 1187 884.5 1148.5 c 128,-1,10
 849 1110 849 1110 754 1086 c 1,11,-1
 934 836 l 1,12,13
 925 833 925 833 906 823 c 2,14,-1
 861 799 l 2,15,16
 838 787 838 787 834 785 c 1,17,18
 661 1067 661 1067 660 1068 c 1,19,-1
 617 1068 l 1,20,-1
 617 807 l 1,21,-1
 511 807 l 1,22,-1
 511 1408 l 1,23,-1
 631 1408 l 2,24,25
 724 1408 724 1408 781 1395 c 128,-1,26
 838 1382 838 1382 879 1344 c 128,-1,27
 920 1306 920 1306 920 1261 c 0,8,9
691 542 m 0,28,29
 567 542 567 542 456.5 587.5 c 128,-1,30
 346 633 346 633 269 709 c 128,-1,31
 192 785 192 785 147 889.5 c 128,-1,32
 102 994 102 994 102 1108 c 128,-1,33
 102 1222 102 1222 147 1326 c 128,-1,34
 192 1430 192 1430 269 1506.5 c 128,-1,35
 346 1583 346 1583 456.5 1628.5 c 128,-1,36
 567 1674 567 1674 691 1674 c 0,37,38
 813 1674 813 1674 922.5 1629.5 c 128,-1,39
 1032 1585 1032 1585 1110.5 1509.5 c 128,-1,40
 1189 1434 1189 1434 1235 1329.5 c 128,-1,41
 1281 1225 1281 1225 1281 1108 c 128,-1,42
 1281 991 1281 991 1235 886.5 c 128,-1,43
 1189 782 1189 782 1110.5 706.5 c 128,-1,44
 1032 631 1032 631 922.5 586.5 c 128,-1,45
 813 542 813 542 691 542 c 0,28,29
690 1572 m 128,-1,47
 483 1572 483 1572 346.5 1437.5 c 128,-1,48
 210 1303 210 1303 210 1105.5 c 128,-1,49
 210 908 210 908 346.5 774.5 c 128,-1,50
 483 641 483 641 690 641 c 0,51,52
 898 641 898 641 1035.5 775.5 c 128,-1,53
 1173 910 1173 910 1173 1106 c 0,54,55
 1173 1305 1173 1305 1035 1438.5 c 128,-1,46
 897 1572 897 1572 690 1572 c 128,-1,47
EndSplineSet
EndChar

StartChar: macron
Encoding: 175 175 112
Width: 1003
Flags: W
HStem: 98 117<98 780>
LayerCount: 2
Fore
SplineSet
780 98 m 1,0,-1
 98 98 l 1,1,-1
 98 215 l 1,2,-1
 780 215 l 1,3,-1
 780 98 l 1,0,-1
EndSplineSet
EndChar

StartChar: degree
Encoding: 176 176 113
Width: 780
Flags: W
HStem: 660 90<281.82 486.915> 1048 91<281.562 486.595>
VStem: 143 97<793.864 1004.89> 526 97<791.945 1007.06>
LayerCount: 2
Fore
SplineSet
385 1048 m 256,0,1
 322 1048 322 1048 281 1004.5 c 128,-1,2
 240 961 240 961 240 899.5 c 128,-1,3
 240 838 240 838 281.5 794 c 128,-1,4
 323 750 323 750 385 750 c 0,5,6
 448 750 448 750 487 793.5 c 128,-1,7
 526 837 526 837 526 899 c 0,8,9
 526 962 526 962 487 1005 c 128,-1,10
 448 1048 448 1048 385 1048 c 256,0,1
387 1139 m 0,11,12
 492 1139 492 1139 557.5 1071.5 c 128,-1,13
 623 1004 623 1004 623 899 c 0,14,15
 623 796 623 796 558 728 c 128,-1,16
 493 660 493 660 387 660 c 0,17,18
 279 660 279 660 211 728.5 c 128,-1,19
 143 797 143 797 143 899.5 c 128,-1,20
 143 1002 143 1002 211 1070.5 c 128,-1,21
 279 1139 279 1139 387 1139 c 0,11,12
EndSplineSet
EndChar

StartChar: plusminus
Encoding: 177 177 114
Width: 1143
Flags: W
HStem: -55 139<240 941> 578 133<206 519 660 974>
VStem: 519 141<234 578 711 1055>
LayerCount: 2
Fore
SplineSet
974 578 m 5,0,-1
 660 578 l 5,1,-1
 660 234 l 5,2,-1
 519 234 l 5,3,-1
 519 578 l 5,4,-1
 206 578 l 5,5,-1
 206 711 l 5,6,-1
 519 711 l 5,7,-1
 519 1055 l 5,8,-1
 660 1055 l 5,9,-1
 660 711 l 5,10,-1
 974 711 l 5,11,-1
 974 578 l 5,0,-1
941 -55 m 1,12,-1
 240 -55 l 1,13,-1
 240 84 l 1,14,-1
 941 84 l 1,15,-1
 941 -55 l 1,12,-1
EndSplineSet
EndChar

StartChar: uni00B2
Encoding: 178 178 115
Width: 1126
Flags: W
HStem: 668 152<485 891> 1495 143<298.644 693.367>
VStem: 747 172<1225.29 1453.71>
LayerCount: 2
Fore
SplineSet
485 820 m 1,0,-1
 891 820 l 1,1,-1
 891 668 l 1,2,-1
 253 668 l 1,3,-1
 253 805 l 1,4,-1
 524 1045 l 2,5,6
 657 1162 657 1162 702 1224.5 c 128,-1,7
 747 1287 747 1287 747 1354 c 0,8,9
 747 1424 747 1424 695 1459.5 c 128,-1,10
 643 1495 643 1495 558 1495 c 0,11,12
 537 1495 537 1495 509.5 1492 c 128,-1,13
 482 1489 482 1489 455.5 1484.5 c 128,-1,14
 429 1480 429 1480 401.5 1474.5 c 128,-1,15
 374 1469 374 1469 351 1463.5 c 128,-1,16
 328 1458 328 1458 309.5 1453 c 128,-1,17
 291 1448 291 1448 280.5 1445.5 c 128,-1,18
 270 1443 270 1443 270 1443 c 1,19,-1
 270 1588 l 1,20,21
 281 1593 281 1593 309.5 1602 c 128,-1,22
 338 1611 338 1611 416.5 1624.5 c 128,-1,23
 495 1638 495 1638 576 1638 c 0,24,25
 653 1638 653 1638 714 1619.5 c 128,-1,26
 775 1601 775 1601 812.5 1572 c 128,-1,27
 850 1543 850 1543 875 1504.5 c 128,-1,28
 900 1466 900 1466 909.5 1429.5 c 128,-1,29
 919 1393 919 1393 919 1357 c 0,30,31
 919 1264 919 1264 866 1181.5 c 128,-1,32
 813 1099 813 1099 676 982 c 2,33,-1
 485 820 l 1,0,-1
EndSplineSet
EndChar

StartChar: uni00B3
Encoding: 179 179 116
Width: 1208
Flags: W
HStem: 540 132<415.832 780.792> 1541 136<399.086 777.79>
VStem: 832 154<1276.53 1490.37> 851 166<738.689 979.372>
LayerCount: 2
Fore
SplineSet
832 1383 m 1,0,1
 832 1458 832 1458 777 1499.5 c 128,-1,2
 722 1541 722 1541 608 1541 c 0,3,4
 549 1541 549 1541 490.5 1526.5 c 128,-1,5
 432 1512 432 1512 403 1498 c 2,6,-1
 374 1484 l 1,7,-1
 327 1611 l 1,8,9
 332 1614 332 1614 342 1618.5 c 128,-1,10
 352 1623 352 1623 383.5 1634.5 c 128,-1,11
 415 1646 415 1646 446.5 1654.5 c 128,-1,12
 478 1663 478 1663 524 1670 c 128,-1,13
 570 1677 570 1677 613 1677 c 0,14,15
 660 1677 660 1677 707 1669.5 c 128,-1,16
 754 1662 754 1662 806 1642.5 c 128,-1,17
 858 1623 858 1623 896.5 1592.5 c 128,-1,18
 935 1562 935 1562 960.5 1510.5 c 128,-1,19
 986 1459 986 1459 986 1394 c 1,20,21
 985 1341 985 1341 966.5 1296.5 c 128,-1,22
 948 1252 948 1252 920.5 1224 c 128,-1,23
 893 1196 893 1196 859 1177 c 128,-1,24
 825 1158 825 1158 795 1150 c 128,-1,25
 765 1142 765 1142 741 1142 c 1,26,27
 775 1135 775 1135 806.5 1124 c 128,-1,28
 838 1113 838 1113 878 1089.5 c 128,-1,29
 918 1066 918 1066 947.5 1034 c 128,-1,30
 977 1002 977 1002 997 950 c 128,-1,31
 1017 898 1017 898 1017 835 c 0,32,33
 1017 775 1017 775 994 725.5 c 128,-1,34
 971 676 971 676 932.5 642 c 128,-1,35
 894 608 894 608 843.5 584.5 c 128,-1,36
 793 561 793 561 738.5 550.5 c 128,-1,37
 684 540 684 540 628 540 c 0,38,39
 462 540 462 540 314 610 c 0,40,41
 299 618 299 618 300 618 c 2,42,-1
 351 745 l 1,43,44
 356 742 356 742 366 737 c 128,-1,45
 376 732 376 732 407 719.5 c 128,-1,46
 438 707 438 707 469.5 697 c 128,-1,47
 501 687 501 687 545.5 679.5 c 128,-1,48
 590 672 590 672 631 672 c 0,49,50
 727 673 727 673 789 722.5 c 128,-1,51
 851 772 851 772 851 851 c 0,52,53
 852 943 852 943 787 1000 c 128,-1,54
 722 1057 722 1057 589 1072 c 1,55,-1
 589 1207 l 1,56,57
 653 1207 653 1207 706 1225 c 128,-1,58
 759 1243 759 1243 795 1284 c 128,-1,59
 831 1325 831 1325 832 1383 c 1,0,1
EndSplineSet
EndChar

StartChar: acute
Encoding: 180 180 117
Width: 1097
Flags: W
HStem: 328 637
VStem: 489 391
LayerCount: 2
Fore
SplineSet
546 328 m 1,0,-1
 489 354 l 1,1,-1
 648 965 l 1,2,-1
 880 874 l 1,3,-1
 546 328 l 1,0,-1
EndSplineSet
EndChar

StartChar: paragraph
Encoding: 182 182 118
Width: 1314
Flags: W
VStem: 128 679<1077.52 1421.17>
LayerCount: 2
Fore
SplineSet
662 1577 m 2,0,1
 596 1577 596 1577 541.5 1573.5 c 128,-1,2
 487 1570 487 1570 431 1560.5 c 128,-1,3
 375 1551 375 1551 331 1536 c 128,-1,4
 287 1521 287 1521 248 1495.5 c 128,-1,5
 209 1470 209 1470 183.5 1436.5 c 128,-1,6
 158 1403 158 1403 143 1355.5 c 128,-1,7
 128 1308 128 1308 128 1250 c 0,8,9
 128 1172 128 1172 155 1111.5 c 128,-1,10
 182 1051 182 1051 227.5 1012.5 c 128,-1,11
 273 974 273 974 337 949.5 c 128,-1,12
 401 925 401 925 469.5 915 c 128,-1,13
 538 905 538 905 617 905 c 1,14,-1
 617 0 l 1,15,-1
 807 0 l 1,16,-1
 807 916 l 1,17,-1
 807 1428 l 1,18,-1
 942 1428 l 1,19,-1
 942 0 l 1,20,-1
 1128 0 l 1,21,-1
 1128 1578 l 1,22,-1
 662 1577 l 2,0,1
EndSplineSet
EndChar

StartChar: periodcentered
Encoding: 183 183 119
Width: 518
Flags: W
HStem: 535 230<165.489 322.058>
VStem: 133 220<570.066 729.934>
LayerCount: 2
Fore
SplineSet
245 765 m 0,0,1
 293 765 293 765 323 731.5 c 128,-1,2
 353 698 353 698 353 650 c 128,-1,3
 353 602 353 602 323 568.5 c 128,-1,4
 293 535 293 535 245 535 c 0,5,6
 196 535 196 535 164.5 569 c 128,-1,7
 133 603 133 603 133 650 c 128,-1,8
 133 697 133 697 164.5 731 c 128,-1,9
 196 765 196 765 245 765 c 0,0,1
EndSplineSet
EndChar

StartChar: cedilla
Encoding: 184 184 120
Width: 575
Flags: W
HStem: -578 114<136.5 418.191> -186 88<307 396.264>
VStem: 186 121<-98 76> 439 133<-446.704 -226.899>
LayerCount: 2
Fore
SplineSet
136 -540 m 1,0,-1
 136 -423 l 1,1,2
 136 -423 136 -423 168 -433 c 256,3,4
 200 -443 200 -443 241 -453.5 c 128,-1,5
 282 -464 282 -464 300 -464 c 0,6,7
 327 -464 327 -464 342 -463 c 128,-1,8
 357 -462 357 -462 378.5 -455 c 128,-1,9
 400 -448 400 -448 411 -434 c 128,-1,10
 422 -420 422 -420 430.5 -393.5 c 128,-1,11
 439 -367 439 -367 439 -328 c 0,12,13
 439 -249 439 -249 379.5 -217.5 c 128,-1,14
 320 -186 320 -186 186 -186 c 1,15,-1
 186 76 l 1,16,-1
 307 76 l 1,17,-1
 307 -98 l 1,18,19
 432 -98 432 -98 502 -152 c 128,-1,20
 572 -206 572 -206 572 -342 c 0,21,22
 572 -578 572 -578 320 -578 c 0,23,24
 303 -578 303 -578 283.5 -576 c 128,-1,25
 264 -574 264 -574 247 -570.5 c 128,-1,26
 230 -567 230 -567 213 -563 c 128,-1,27
 196 -559 196 -559 182.5 -555 c 128,-1,28
 169 -551 169 -551 158.5 -547.5 c 128,-1,29
 148 -544 148 -544 142 -542 c 2,30,-1
 136 -540 l 1,0,-1
EndSplineSet
EndChar

StartChar: uni00B9
Encoding: 185 185 121
Width: 740
Flags: W
VStem: 327 169<478 1304>
LayerCount: 2
Fore
SplineSet
327 478 m 1,0,-1
 327 1304 l 1,1,-1
 156 1232 l 1,2,-1
 119 1345 l 1,3,-1
 356 1440 l 1,4,-1
 496 1414 l 1,5,-1
 496 478 l 1,6,-1
 327 478 l 1,0,-1
EndSplineSet
EndChar

StartChar: ordmasculine
Encoding: 186 186 122
Width: 1276
Flags: W
HStem: 446 129<300 984> 670 127<487.313 789.187> 1512 126<486.926 789.074>
VStem: 214 157<927.986 1380.18> 905 158<927.964 1378.67>
LayerCount: 2
Fore
SplineSet
300 575 m 1,0,-1
 984 575 l 1,1,-1
 984 446 l 1,2,-1
 300 446 l 1,3,-1
 300 575 l 1,0,-1
371 1154 m 256,4,5
 371 1075 371 1075 386 1011 c 128,-1,6
 401 947 401 947 432.5 898.5 c 128,-1,7
 464 850 464 850 516 823.5 c 128,-1,8
 568 797 568 797 638 797 c 128,-1,9
 708 797 708 797 760 823.5 c 128,-1,10
 812 850 812 850 843.5 898.5 c 128,-1,11
 875 947 875 947 890 1010.5 c 128,-1,12
 905 1074 905 1074 905 1154 c 0,13,14
 905 1233 905 1233 890 1296.5 c 128,-1,15
 875 1360 875 1360 843.5 1409 c 128,-1,16
 812 1458 812 1458 760 1485 c 128,-1,17
 708 1512 708 1512 638 1512 c 128,-1,18
 568 1512 568 1512 516 1485.5 c 128,-1,19
 464 1459 464 1459 432.5 1410 c 128,-1,20
 401 1361 401 1361 386 1297 c 128,-1,21
 371 1233 371 1233 371 1154 c 256,4,5
214 1152 m 0,22,23
 214 1232 214 1232 230 1303.5 c 128,-1,24
 246 1375 246 1375 280 1436.5 c 128,-1,25
 314 1498 314 1498 363 1542.5 c 128,-1,26
 412 1587 412 1587 482.5 1612.5 c 128,-1,27
 553 1638 553 1638 638 1638 c 128,-1,28
 723 1638 723 1638 793.5 1612.5 c 128,-1,29
 864 1587 864 1587 913.5 1542.5 c 128,-1,30
 963 1498 963 1498 997 1436.5 c 128,-1,31
 1031 1375 1031 1375 1047 1303.5 c 128,-1,32
 1063 1232 1063 1232 1063 1152 c 0,33,34
 1063 1050 1063 1050 1037 964 c 128,-1,35
 1011 878 1011 878 960 811.5 c 128,-1,36
 909 745 909 745 826.5 707.5 c 128,-1,37
 744 670 744 670 638.5 670 c 128,-1,38
 533 670 533 670 450.5 707.5 c 128,-1,39
 368 745 368 745 317 811.5 c 128,-1,40
 266 878 266 878 240 964 c 128,-1,41
 214 1050 214 1050 214 1152 c 0,22,23
EndSplineSet
EndChar

StartChar: guillemotright
Encoding: 187 187 123
Width: 1533
Flags: W
LayerCount: 2
Fore
SplineSet
167 842 m 1,0,-1
 614 577 l 1,1,-1
 167 306 l 1,2,-1
 167 99 l 1,3,-1
 776 481 l 1,4,-1
 776 666 l 1,5,-1
 167 1049 l 1,6,-1
 167 842 l 1,0,-1
774 842 m 1,7,-1
 1221 577 l 1,8,-1
 774 306 l 1,9,-1
 774 99 l 1,10,-1
 1383 481 l 1,11,-1
 1383 666 l 1,12,-1
 774 1049 l 1,13,-1
 774 842 l 1,7,-1
EndSplineSet
EndChar

StartChar: onequarter
Encoding: 188 188 124
Width: 1816
Flags: W
HStem: 34 110<997 1385 1530 1681>
VStem: 345 160<568 1413> 1385 145<-227 34 145 703>
LayerCount: 2
Fore
SplineSet
1402 946 m 1,0,-1
 1530 915 l 1,1,-1
 1530 145 l 1,2,-1
 1681 145 l 1,3,-1
 1681 34 l 1,4,-1
 1530 34 l 1,5,-1
 1530 -227 l 1,6,-1
 1385 -250 l 1,7,-1
 1385 34 l 1,8,-1
 860 34 l 1,9,-1
 838 144 l 1,10,-1
 1402 946 l 1,0,-1
997 144 m 1,11,-1
 1385 144 l 1,12,-1
 1385 703 l 1,13,-1
 1263 514 l 1,14,-1
 997 144 l 1,11,-1
345 568 m 5,15,-1
 345 1413 l 5,16,-1
 175 1341 l 5,17,-1
 137 1434 l 5,18,-1
 375 1529 l 5,19,-1
 505 1503 l 5,20,-1
 505 568 l 5,21,-1
 345 568 l 5,15,-1
233 -30 m 1,22,-1
 1272 1365 l 1,23,-1
 1394 1272 l 1,24,-1
 353 -123 l 1,25,-1
 233 -30 l 1,22,-1
EndSplineSet
EndChar

StartChar: onehalf
Encoding: 189 189 125
Width: 2068
Flags: W
HStem: -172 152<1435 1841> 655 143<1248.64 1643.37>
VStem: 401 160<568 1413> 1697 172<385.291 613.706>
LayerCount: 2
Fore
SplineSet
401 568 m 1,0,-1
 401 1413 l 1,1,-1
 231 1341 l 1,2,-1
 193 1434 l 1,3,-1
 431 1529 l 1,4,-1
 561 1503 l 1,5,-1
 561 568 l 1,6,-1
 401 568 l 1,0,-1
263 -30 m 1,7,-1
 1302 1365 l 1,8,-1
 1424 1272 l 1,9,-1
 383 -123 l 1,10,-1
 263 -30 l 1,7,-1
1435 -20 m 1,11,-1
 1841 -20 l 1,12,-1
 1841 -172 l 1,13,-1
 1203 -172 l 1,14,-1
 1203 -35 l 1,15,-1
 1474 205 l 2,16,17
 1607 322 1607 322 1652 384.5 c 128,-1,18
 1697 447 1697 447 1697 514 c 0,19,20
 1697 584 1697 584 1645 619.5 c 128,-1,21
 1593 655 1593 655 1508 655 c 0,22,23
 1487 655 1487 655 1459.5 652 c 128,-1,24
 1432 649 1432 649 1405.5 644.5 c 128,-1,25
 1379 640 1379 640 1351.5 634.5 c 128,-1,26
 1324 629 1324 629 1301 623.5 c 128,-1,27
 1278 618 1278 618 1259.5 613 c 128,-1,28
 1241 608 1241 608 1230.5 605.5 c 128,-1,29
 1220 603 1220 603 1220 603 c 1,30,-1
 1220 748 l 1,31,32
 1231 753 1231 753 1259.5 762 c 128,-1,33
 1288 771 1288 771 1366.5 784.5 c 128,-1,34
 1445 798 1445 798 1526 798 c 0,35,36
 1603 798 1603 798 1664 779.5 c 128,-1,37
 1725 761 1725 761 1762.5 732 c 128,-1,38
 1800 703 1800 703 1825 664.5 c 128,-1,39
 1850 626 1850 626 1859.5 589.5 c 128,-1,40
 1869 553 1869 553 1869 517 c 0,41,42
 1869 424 1869 424 1816 341.5 c 128,-1,43
 1763 259 1763 259 1626 142 c 2,44,-1
 1435 -20 l 1,11,-1
EndSplineSet
EndChar

StartChar: threequarters
Encoding: 190 190 126
Width: 2159
Flags: W
HStem: 34 110<1303 1691 1836 1987> 540 132<304.865 671.468> 1541 136<290.086 668.79>
VStem: 723 154<1276.53 1490.37> 742 166<738.689 979.372> 1691 145<-227 34 145 703>
LayerCount: 2
Fore
SplineSet
1708 946 m 1,0,-1
 1836 915 l 1,1,-1
 1836 145 l 1,2,-1
 1987 145 l 1,3,-1
 1987 34 l 1,4,-1
 1836 34 l 1,5,-1
 1836 -227 l 1,6,-1
 1691 -250 l 1,7,-1
 1691 34 l 1,8,-1
 1166 34 l 1,9,-1
 1144 144 l 1,10,-1
 1708 946 l 1,0,-1
1303 144 m 1,11,-1
 1691 144 l 1,12,-1
 1691 703 l 1,13,-1
 1569 514 l 1,14,-1
 1303 144 l 1,11,-1
539 -30 m 1,15,-1
 1578 1365 l 1,16,-1
 1700 1272 l 1,17,-1
 659 -123 l 1,18,-1
 539 -30 l 1,15,-1
723 1383 m 1,19,20
 723 1458 723 1458 668 1499.5 c 128,-1,21
 613 1541 613 1541 499 1541 c 0,22,23
 440 1541 440 1541 381.5 1526.5 c 128,-1,24
 323 1512 323 1512 294 1498 c 2,25,-1
 265 1484 l 1,26,-1
 218 1611 l 1,27,28
 223 1614 223 1614 233 1618.5 c 128,-1,29
 243 1623 243 1623 274.5 1634.5 c 128,-1,30
 306 1646 306 1646 337.5 1654.5 c 128,-1,31
 369 1663 369 1663 415 1670 c 128,-1,32
 461 1677 461 1677 504 1677 c 0,33,34
 551 1677 551 1677 598 1669.5 c 128,-1,35
 645 1662 645 1662 697 1642.5 c 128,-1,36
 749 1623 749 1623 787.5 1592.5 c 128,-1,37
 826 1562 826 1562 851.5 1510.5 c 128,-1,38
 877 1459 877 1459 877 1394 c 1,39,40
 876 1341 876 1341 857.5 1296.5 c 128,-1,41
 839 1252 839 1252 811.5 1224 c 128,-1,42
 784 1196 784 1196 750 1177 c 128,-1,43
 716 1158 716 1158 686 1150 c 128,-1,44
 656 1142 656 1142 632 1142 c 1,45,46
 666 1135 666 1135 697.5 1124 c 128,-1,47
 729 1113 729 1113 769 1089.5 c 128,-1,48
 809 1066 809 1066 838.5 1034 c 128,-1,49
 868 1002 868 1002 888 950 c 128,-1,50
 908 898 908 898 908 835 c 0,51,52
 908 775 908 775 885 725.5 c 128,-1,53
 862 676 862 676 823.5 642 c 128,-1,54
 785 608 785 608 734.5 584.5 c 128,-1,55
 684 561 684 561 629.5 550.5 c 128,-1,56
 575 540 575 540 519 540 c 0,57,58
 467 540 467 540 414 548 c 128,-1,59
 361 556 361 556 322.5 567.5 c 128,-1,60
 284 579 284 579 253 590.5 c 128,-1,61
 222 602 222 602 207 610 c 2,62,-1
 191 618 l 1,63,-1
 242 745 l 1,64,65
 247 742 247 742 257 737 c 128,-1,66
 267 732 267 732 298 719.5 c 128,-1,67
 329 707 329 707 360.5 697 c 128,-1,68
 392 687 392 687 436.5 679.5 c 128,-1,69
 481 672 481 672 522 672 c 0,70,71
 618 673 618 673 680 722.5 c 128,-1,72
 742 772 742 772 742 851 c 0,73,74
 743 943 743 943 678 1000 c 128,-1,75
 613 1057 613 1057 480 1072 c 1,76,-1
 480 1207 l 1,77,78
 544 1207 544 1207 597 1225 c 128,-1,79
 650 1243 650 1243 686 1284 c 128,-1,80
 722 1325 722 1325 723 1383 c 1,19,20
EndSplineSet
EndChar

StartChar: questiondown
Encoding: 191 191 127
Width: 1232
Flags: W
HStem: -114 161<477.243 950.609> 1153 20G<738 918> 1296 209<763.972 909.029>
VStem: 204 191<121.896 418.41> 732 209<1327.46 1473.54> 738 180<774.298 1173>
LayerCount: 2
Fore
SplineSet
738 790 m 1,0,-1
 738 1173 l 1,1,-1
 918 1173 l 1,2,-1
 918 688 l 1,3,4
 808 650 808 650 731 617.5 c 128,-1,5
 654 585 654 585 586.5 546.5 c 128,-1,6
 519 508 519 508 479.5 468 c 128,-1,7
 440 428 440 428 417.5 378 c 128,-1,8
 395 328 395 328 395 268 c 0,9,10
 395 146 395 146 468.5 96.5 c 128,-1,11
 542 47 542 47 706 47 c 0,12,13
 760 47 760 47 813.5 55.5 c 128,-1,14
 867 64 867 64 905 76 c 128,-1,15
 943 88 943 88 973.5 101 c 128,-1,16
 1004 114 1004 114 1019 122.5 c 128,-1,17
 1034 131 1034 131 1034 133 c 2,18,-1
 1093 -10 l 2,19,20
 1093 -11 1093 -11 1073.5 -21 c 128,-1,21
 1054 -31 1054 -31 1015.5 -47 c 128,-1,22
 977 -63 977 -63 929.5 -77.5 c 128,-1,23
 882 -92 882 -92 816.5 -103 c 128,-1,24
 751 -114 751 -114 687 -114 c 0,25,26
 603 -114 603 -114 531.5 -101.5 c 128,-1,27
 460 -89 460 -89 399 -61.5 c 128,-1,28
 338 -34 338 -34 295 7.5 c 128,-1,29
 252 49 252 49 228 110.5 c 128,-1,30
 204 172 204 172 204 249 c 0,31,32
 204 304 204 304 215 353.5 c 128,-1,33
 226 403 226 403 244.5 443 c 128,-1,34
 263 483 263 483 292 520.5 c 128,-1,35
 321 558 321 558 350.5 586 c 128,-1,36
 380 614 380 614 421.5 641.5 c 128,-1,37
 463 669 463 669 497.5 688 c 128,-1,38
 532 707 532 707 579 727.5 c 128,-1,39
 626 748 626 748 659 761 c 128,-1,40
 692 774 692 774 738 790 c 1,0,-1
837 1505 m 0,41,42
 879 1505 879 1505 910 1474.5 c 128,-1,43
 941 1444 941 1444 941 1400 c 0,44,45
 941 1357 941 1357 910.5 1326.5 c 128,-1,46
 880 1296 880 1296 837 1296 c 128,-1,47
 794 1296 794 1296 763 1326.5 c 128,-1,48
 732 1357 732 1357 732 1401 c 128,-1,49
 732 1445 732 1445 763 1475 c 128,-1,50
 794 1505 794 1505 837 1505 c 0,41,42
EndSplineSet
EndChar

StartChar: Agrave
Encoding: 192 192 128
Width: 1536
Flags: W
HStem: 0 21G<102 301.423 1234.58 1434> 383 102<451 1085> 1559 20G<611.464 924.536>
LayerCount: 2
Fore
SplineSet
1085 485 m 1,0,-1
 768 1460 l 1,1,-1
 451 485 l 1,2,-1
 1085 485 l 1,0,-1
1118 383 m 1,3,-1
 418 383 l 1,4,-1
 295 0 l 1,5,-1
 102 0 l 1,6,-1
 618 1579 l 1,7,-1
 918 1579 l 1,8,-1
 1434 0 l 1,9,-1
 1241 0 l 1,10,-1
 1118 383 l 1,3,-1
802 1758 m 1,11,-1
 735 1732 l 1,12,-1
 407 2287 l 1,13,-1
 649 2376 l 1,14,-1
 802 1758 l 1,11,-1
EndSplineSet
EndChar

StartChar: glyph130
Encoding: 193 193 129
Width: 1536
Flags: W
HStem: 0 21G<102 301.423 1234.58 1434> 383 102<451 1085> 1559 20G<611.464 924.536>
LayerCount: 2
Fore
SplineSet
1085 485 m 1,0,-1
 768 1460 l 1,1,-1
 451 485 l 1,2,-1
 1085 485 l 1,0,-1
1118 383 m 1,3,-1
 418 383 l 1,4,-1
 295 0 l 1,5,-1
 102 0 l 1,6,-1
 618 1579 l 1,7,-1
 918 1579 l 1,8,-1
 1434 0 l 1,9,-1
 1241 0 l 1,10,-1
 1118 383 l 1,3,-1
797 1732 m 1,11,-1
 740 1758 l 1,12,-1
 899 2369 l 1,13,-1
 1131 2278 l 1,14,-1
 797 1732 l 1,11,-1
EndSplineSet
EndChar

StartChar: glyph131
Encoding: 194 194 130
Width: 1536
Flags: W
HStem: 0 21G<102 301.423 1234.58 1434> 383 102<451 1085> 1559 20G<611.464 924.536>
LayerCount: 2
Fore
SplineSet
1085 485 m 1,0,-1
 768 1460 l 1,1,-1
 451 485 l 1,2,-1
 1085 485 l 1,0,-1
1118 383 m 1,3,-1
 418 383 l 1,4,-1
 295 0 l 1,5,-1
 102 0 l 1,6,-1
 618 1579 l 1,7,-1
 918 1579 l 1,8,-1
 1434 0 l 1,9,-1
 1241 0 l 1,10,-1
 1118 383 l 1,3,-1
767 2139 m 1,11,-1
 979 1762 l 1,12,-1
 1107 1840 l 1,13,-1
 815 2341 l 1,14,-1
 719 2341 l 1,15,-1
 427 1840 l 1,16,-1
 555 1762 l 1,17,-1
 767 2139 l 1,11,-1
EndSplineSet
EndChar

StartChar: Atilde
Encoding: 195 195 131
Width: 1536
Flags: W
HStem: 0 21G<102 301.423 1234.58 1434> 383 102<451 1085> 1559 20G<611.464 924.536> 1732 139<809.677 983.162> 1851 145<556.276 723.933>
VStem: 388 156<1736 1825.72> 992 156<1873.86 1982>
LayerCount: 2
Fore
SplineSet
1085 485 m 1,0,-1
 768 1460 l 1,1,-1
 451 485 l 1,2,-1
 1085 485 l 1,0,-1
1118 383 m 1,3,-1
 418 383 l 1,4,-1
 295 0 l 1,5,-1
 102 0 l 1,6,-1
 618 1579 l 1,7,-1
 918 1579 l 1,8,-1
 1434 0 l 1,9,-1
 1241 0 l 1,10,-1
 1118 383 l 1,3,-1
956 1732 m 0,11,12
 907 1732 907 1732 850 1750.5 c 128,-1,13
 793 1769 793 1769 752 1791.5 c 128,-1,14
 711 1814 711 1814 668.5 1832.5 c 128,-1,15
 626 1851 626 1851 603 1851 c 0,16,17
 574 1851 574 1851 559 1826.5 c 128,-1,18
 544 1802 544 1802 544 1736 c 1,19,-1
 388 1736 l 1,20,21
 388 1996 388 1996 589 1996 c 0,22,23
 639 1996 639 1996 691.5 1976.5 c 128,-1,24
 744 1957 744 1957 780.5 1933.5 c 128,-1,25
 817 1910 817 1910 859 1890.5 c 128,-1,26
 901 1871 901 1871 933 1871 c 0,27,28
 992 1871 992 1871 992 1982 c 1,29,-1
 1148 1982 l 1,30,31
 1148 1868 1148 1868 1096 1800 c 128,-1,32
 1044 1732 1044 1732 956 1732 c 0,11,12
EndSplineSet
EndChar

StartChar: Adieresis
Encoding: 196 196 132
Width: 1536
Flags: W
HStem: 0 21G<102 301.423 1234.58 1434> 383 102<451 1085> 1559 20G<611.464 924.536> 1732 230<445.489 602.058 935.489 1092.06>
VStem: 413 220<1767.07 1926.93> 903 220<1767.07 1926.93>
LayerCount: 2
Fore
SplineSet
1085 485 m 1,0,-1
 768 1460 l 1,1,-1
 451 485 l 1,2,-1
 1085 485 l 1,0,-1
1118 383 m 1,3,-1
 418 383 l 1,4,-1
 295 0 l 1,5,-1
 102 0 l 1,6,-1
 618 1579 l 1,7,-1
 918 1579 l 1,8,-1
 1434 0 l 1,9,-1
 1241 0 l 1,10,-1
 1118 383 l 1,3,-1
525 1962 m 0,11,12
 573 1962 573 1962 603 1928.5 c 128,-1,13
 633 1895 633 1895 633 1847 c 128,-1,14
 633 1799 633 1799 603 1765.5 c 128,-1,15
 573 1732 573 1732 525 1732 c 0,16,17
 476 1732 476 1732 444.5 1766 c 128,-1,18
 413 1800 413 1800 413 1847 c 128,-1,19
 413 1894 413 1894 444.5 1928 c 128,-1,20
 476 1962 476 1962 525 1962 c 0,11,12
1015 1962 m 0,21,22
 1063 1962 1063 1962 1093 1928.5 c 128,-1,23
 1123 1895 1123 1895 1123 1847 c 128,-1,24
 1123 1799 1123 1799 1093 1765.5 c 128,-1,25
 1063 1732 1063 1732 1015 1732 c 0,26,27
 966 1732 966 1732 934.5 1766 c 128,-1,28
 903 1800 903 1800 903 1847 c 128,-1,29
 903 1894 903 1894 934.5 1928 c 128,-1,30
 966 1962 966 1962 1015 1962 c 0,21,22
EndSplineSet
EndChar

StartChar: Aring
Encoding: 197 197 133
Width: 1536
Flags: W
HStem: 0 21G<102 301.423 1234.58 1434> 383 102<451 1085> 1918 91<665.562 870.595>
VStem: 527 97<1663.86 1874.89> 910 97<1661.95 1877.06>
LayerCount: 2
Fore
SplineSet
771 2009 m 0,0,1
 876 2009 876 2009 941.5 1941.5 c 128,-1,2
 1007 1874 1007 1874 1007 1769 c 0,3,4
 1007 1666 1007 1666 942 1598 c 0,5,6
 930.946 1586.44 930.946 1586.44 918.706 1576.84 c 1,7,-1
 1434 0 l 1,8,-1
 1241 0 l 1,9,-1
 1118 383 l 1,10,-1
 418 383 l 1,11,-1
 295 0 l 1,12,-1
 102 0 l 1,13,-1
 617.782 1578.33 l 1,14,15
 605.879 1587.54 605.879 1587.54 595 1598.5 c 0,16,17
 527 1667 527 1667 527 1769.5 c 128,-1,18
 527 1872 527 1872 595 1940.5 c 128,-1,19
 663 2009 663 2009 771 2009 c 0,0,1
769 1918 m 128,-1,21
 706 1918 706 1918 665 1874.5 c 128,-1,22
 624 1831 624 1831 624 1769.5 c 128,-1,23
 624 1708 624 1708 665.5 1664 c 128,-1,24
 707 1620 707 1620 769 1620 c 0,25,26
 832 1620 832 1620 871 1663.5 c 128,-1,27
 910 1707 910 1707 910 1769 c 0,28,29
 910 1832 910 1832 871 1875 c 128,-1,20
 832 1918 832 1918 769 1918 c 128,-1,21
1085 485 m 1,30,-1
 768 1460 l 1,31,-1
 451 485 l 1,32,-1
 1085 485 l 1,30,-1
EndSplineSet
EndChar

StartChar: AE
Encoding: 198 198 134
Width: 1873
Flags: W
HStem: 0 143<1171 1845> 371 122<514 1004> 764 127<1171 1774> 1436 143<1169 1817>
VStem: 1004 167<143 371 493 764 891 1436>
LayerCount: 2
Fore
SplineSet
1845 0 m 1,0,-1
 1006 0 l 1,1,-1
 1006 371 l 1,2,-1
 454 371 l 1,3,-1
 262 0 l 1,4,-1
 53 0 l 1,5,-1
 879 1579 l 1,6,-1
 1817 1579 l 1,7,-1
 1817 1436 l 1,8,-1
 1169 1436 l 1,9,-1
 1169 891 l 1,10,-1
 1774 891 l 1,11,-1
 1774 764 l 1,12,-1
 1171 764 l 1,13,-1
 1171 143 l 1,14,-1
 1845 143 l 1,15,-1
 1845 0 l 1,0,-1
1004 1459 m 1,16,-1
 514 493 l 1,17,-1
 1004 493 l 1,18,-1
 1004 1459 l 1,16,-1
EndSplineSet
EndChar

StartChar: Ccedilla
Encoding: 199 199 135
Width: 1267
Flags: W
HStem: -673 114<678.5 960.191> -281 88<849 938.264> -41 22<728 847> 1458 152<587.943 1085.92>
VStem: 129 201<430.198 1141.25> 728 121<-193 -19> 981 133<-541.704 -321.899>
LayerCount: 2
Fore
SplineSet
1089 1412 m 2,0,1
 1086 1413 1086 1413 1062 1420.5 c 128,-1,2
 1038 1428 1038 1428 1026.5 1431 c 128,-1,3
 1015 1434 1015 1434 987.5 1440.5 c 128,-1,4
 960 1447 960 1447 937 1450 c 128,-1,5
 914 1453 914 1453 879.5 1455.5 c 128,-1,6
 845 1458 845 1458 809 1458 c 0,7,8
 676 1458 676 1458 582 1411 c 128,-1,9
 488 1364 488 1364 433.5 1273 c 128,-1,10
 379 1182 379 1182 354.5 1063.5 c 128,-1,11
 330 945 330 945 330 788 c 0,12,13
 330 635 330 635 353 518 c 128,-1,14
 376 401 376 401 417 324.5 c 128,-1,15
 458 248 458 248 519.5 199.5 c 128,-1,16
 581 151 581 151 651.5 131 c 128,-1,17
 722 111 722 111 809 111 c 0,18,19
 826 111 826 111 845 113 c 128,-1,20
 864 115 864 115 881 117.5 c 128,-1,21
 898 120 898 120 918 124.5 c 128,-1,22
 938 129 938 129 953 133 c 128,-1,23
 968 137 968 137 988 143.5 c 128,-1,24
 1008 150 1008 150 1019.5 154 c 128,-1,25
 1031 158 1031 158 1048.5 164.5 c 128,-1,26
 1066 171 1066 171 1073 173.5 c 128,-1,27
 1080 176 1080 176 1094.5 182 c 128,-1,28
 1109 188 1109 188 1110 189 c 2,29,-1
 1183 218 l 1,30,-1
 1239 79 l 1,31,-1
 1170 51 l 2,32,33
 1169 51 1169 51 1137 36 c 128,-1,34
 1105 21 1105 21 1077 11 c 128,-1,35
 1049 1 1049 1 1003.5 -12.5 c 128,-1,36
 958 -26 958 -26 902.5 -33.5 c 128,-1,37
 847 -41 847 -41 789 -41 c 0,38,39
 679 -41 679 -41 586.5 -16 c 128,-1,40
 494 9 494 9 427 52 c 128,-1,41
 360 95 360 95 308 157.5 c 128,-1,42
 256 220 256 220 222.5 291 c 128,-1,43
 189 362 189 362 167.5 446.5 c 128,-1,44
 146 531 146 531 137.5 614 c 128,-1,45
 129 697 129 697 129 788 c 0,46,47
 129 936 129 936 153 1058 c 128,-1,48
 177 1180 177 1180 216 1264 c 128,-1,49
 255 1348 255 1348 311.5 1411.5 c 128,-1,50
 368 1475 368 1475 426.5 1512 c 128,-1,51
 485 1549 485 1549 555.5 1572 c 128,-1,52
 626 1595 626 1595 685.5 1602.5 c 128,-1,53
 745 1610 745 1610 809 1610 c 0,54,55
 870 1610 870 1610 924.5 1603.5 c 128,-1,56
 979 1597 979 1597 1006 1590.5 c 128,-1,57
 1033 1584 1033 1584 1074 1571.5 c 128,-1,58
 1115 1559 1115 1559 1125 1556 c 2,59,-1
 1211 1530 l 1,60,-1
 1166 1385 l 1,61,-1
 1089 1412 l 2,0,1
678 -635 m 1,62,-1
 678 -518 l 1,63,64
 678 -518 678 -518 710 -528 c 256,65,66
 742 -538 742 -538 783 -548.5 c 128,-1,67
 824 -559 824 -559 842 -559 c 0,68,69
 869 -559 869 -559 884 -558 c 128,-1,70
 899 -557 899 -557 920.5 -550 c 128,-1,71
 942 -543 942 -543 953 -529 c 128,-1,72
 964 -515 964 -515 972.5 -488.5 c 128,-1,73
 981 -462 981 -462 981 -423 c 0,74,75
 981 -344 981 -344 921.5 -312.5 c 128,-1,76
 862 -281 862 -281 728 -281 c 1,77,-1
 728 -19 l 1,78,-1
 849 -19 l 1,79,-1
 849 -193 l 1,80,81
 974 -193 974 -193 1044 -247 c 128,-1,82
 1114 -301 1114 -301 1114 -437 c 0,83,84
 1114 -673 1114 -673 862 -673 c 0,85,86
 845 -673 845 -673 825.5 -671 c 128,-1,87
 806 -669 806 -669 789 -665.5 c 128,-1,88
 772 -662 772 -662 755 -658 c 128,-1,89
 738 -654 738 -654 724.5 -650 c 128,-1,90
 711 -646 711 -646 700.5 -642.5 c 128,-1,91
 690 -639 690 -639 684 -637 c 2,92,-1
 678 -635 l 1,62,-1
EndSplineSet
EndChar

StartChar: Egrave
Encoding: 200 200 136
Width: 1183
Flags: W
HStem: 0 143<340 1129> 776 115<340 1018> 1436 143<340 1116>
VStem: 146 194<143 776 891 1436>
LayerCount: 2
Fore
SplineSet
1129 0 m 1,0,-1
 146 0 l 1,1,-1
 146 1579 l 1,2,-1
 1116 1579 l 1,3,-1
 1116 1436 l 1,4,-1
 340 1436 l 1,5,-1
 340 891 l 1,6,-1
 1018 891 l 1,7,-1
 1018 776 l 1,8,-1
 340 776 l 1,9,-1
 340 143 l 1,10,-1
 1129 143 l 1,11,-1
 1129 0 l 1,0,-1
665 1758 m 1,12,-1
 598 1732 l 1,13,-1
 270 2287 l 1,14,-1
 512 2376 l 1,15,-1
 665 1758 l 1,12,-1
EndSplineSet
EndChar

StartChar: Eacute
Encoding: 201 201 137
Width: 1183
Flags: W
HStem: 0 143<340 1129> 776 115<340 1018> 1436 143<340 1116>
VStem: 146 194<143 776 891 1436>
LayerCount: 2
Fore
SplineSet
1129 0 m 1,0,-1
 146 0 l 1,1,-1
 146 1579 l 1,2,-1
 1116 1579 l 1,3,-1
 1116 1436 l 1,4,-1
 340 1436 l 1,5,-1
 340 891 l 1,6,-1
 1018 891 l 1,7,-1
 1018 776 l 1,8,-1
 340 776 l 1,9,-1
 340 143 l 1,10,-1
 1129 143 l 1,11,-1
 1129 0 l 1,0,-1
660 1732 m 1,12,-1
 603 1758 l 1,13,-1
 762 2369 l 1,14,-1
 994 2278 l 1,15,-1
 660 1732 l 1,12,-1
EndSplineSet
EndChar

StartChar: Ecircumflex
Encoding: 202 202 138
Width: 1183
Flags: W
HStem: 0 143<340 1129> 776 115<340 1018> 1436 143<340 1116>
VStem: 146 194<143 776 891 1436>
LayerCount: 2
Fore
SplineSet
1129 0 m 1,0,-1
 146 0 l 1,1,-1
 146 1579 l 1,2,-1
 1116 1579 l 1,3,-1
 1116 1436 l 1,4,-1
 340 1436 l 1,5,-1
 340 891 l 1,6,-1
 1018 891 l 1,7,-1
 1018 776 l 1,8,-1
 340 776 l 1,9,-1
 340 143 l 1,10,-1
 1129 143 l 1,11,-1
 1129 0 l 1,0,-1
630 2139 m 1,12,-1
 842 1762 l 1,13,-1
 970 1840 l 1,14,-1
 678 2341 l 1,15,-1
 582 2341 l 1,16,-1
 290 1840 l 1,17,-1
 418 1762 l 1,18,-1
 630 2139 l 1,12,-1
EndSplineSet
EndChar

StartChar: Edieresis
Encoding: 203 203 139
Width: 1183
Flags: W
HStem: 0 143<340 1129> 776 115<340 1018> 1436 143<340 1116> 1732 230<308.489 465.058 798.489 955.058>
VStem: 146 194<143 776 891 1436> 276 220<1767.07 1926.93> 766 220<1767.07 1926.93>
LayerCount: 2
Fore
SplineSet
1129 0 m 1,0,-1
 146 0 l 1,1,-1
 146 1579 l 1,2,-1
 1116 1579 l 1,3,-1
 1116 1436 l 1,4,-1
 340 1436 l 1,5,-1
 340 891 l 1,6,-1
 1018 891 l 1,7,-1
 1018 776 l 1,8,-1
 340 776 l 1,9,-1
 340 143 l 1,10,-1
 1129 143 l 1,11,-1
 1129 0 l 1,0,-1
388 1962 m 0,12,13
 436 1962 436 1962 466 1928.5 c 128,-1,14
 496 1895 496 1895 496 1847 c 128,-1,15
 496 1799 496 1799 466 1765.5 c 128,-1,16
 436 1732 436 1732 388 1732 c 0,17,18
 339 1732 339 1732 307.5 1766 c 128,-1,19
 276 1800 276 1800 276 1847 c 128,-1,20
 276 1894 276 1894 307.5 1928 c 128,-1,21
 339 1962 339 1962 388 1962 c 0,12,13
878 1962 m 0,22,23
 926 1962 926 1962 956 1928.5 c 128,-1,24
 986 1895 986 1895 986 1847 c 128,-1,25
 986 1799 986 1799 956 1765.5 c 128,-1,26
 926 1732 926 1732 878 1732 c 0,27,28
 829 1732 829 1732 797.5 1766 c 128,-1,29
 766 1800 766 1800 766 1847 c 128,-1,30
 766 1894 766 1894 797.5 1928 c 128,-1,31
 829 1962 829 1962 878 1962 c 0,22,23
EndSplineSet
EndChar

StartChar: Igrave
Encoding: 204 204 140
Width: 983
Flags: W
HStem: 0 112<195 399 582 788> 1461 118<195 399 582 788>
VStem: 399 183<112 1461>
LayerCount: 2
Fore
SplineSet
195 112 m 1,0,-1
 399 112 l 1,1,-1
 399 1461 l 1,2,-1
 195 1461 l 1,3,-1
 195 1579 l 1,4,-1
 788 1579 l 1,5,-1
 788 1461 l 1,6,-1
 582 1461 l 1,7,-1
 582 112 l 1,8,-1
 788 112 l 1,9,-1
 788 0 l 1,10,-1
 195 0 l 1,11,-1
 195 112 l 1,0,-1
536 1758 m 1,12,-1
 469 1732 l 1,13,-1
 141 2287 l 1,14,-1
 383 2376 l 1,15,-1
 536 1758 l 1,12,-1
EndSplineSet
EndChar

StartChar: Iacute
Encoding: 205 205 141
Width: 983
Flags: W
HStem: 0 112<195 399 582 788> 1461 118<195 399 582 788>
VStem: 399 183<112 1461>
LayerCount: 2
Fore
SplineSet
195 112 m 1,0,-1
 399 112 l 1,1,-1
 399 1461 l 1,2,-1
 195 1461 l 1,3,-1
 195 1579 l 1,4,-1
 788 1579 l 1,5,-1
 788 1461 l 1,6,-1
 582 1461 l 1,7,-1
 582 112 l 1,8,-1
 788 112 l 1,9,-1
 788 0 l 1,10,-1
 195 0 l 1,11,-1
 195 112 l 1,0,-1
481 1732 m 5,12,-1
 424 1758 l 5,13,-1
 583 2369 l 5,14,-1
 815 2278 l 5,15,-1
 481 1732 l 5,12,-1
EndSplineSet
EndChar

StartChar: Icircumflex
Encoding: 206 206 142
Width: 983
Flags: W
HStem: 0 112<195 399 582 788> 1461 118<195 399 582 788>
VStem: 399 183<112 1461>
LayerCount: 2
Fore
SplineSet
195 112 m 1,0,-1
 399 112 l 1,1,-1
 399 1461 l 1,2,-1
 195 1461 l 1,3,-1
 195 1579 l 1,4,-1
 788 1579 l 1,5,-1
 788 1461 l 1,6,-1
 582 1461 l 1,7,-1
 582 112 l 1,8,-1
 788 112 l 1,9,-1
 788 0 l 1,10,-1
 195 0 l 1,11,-1
 195 112 l 1,0,-1
491 2135 m 1,12,-1
 703 1762 l 1,13,-1
 831 1840 l 1,14,-1
 539 2341 l 1,15,-1
 443 2341 l 1,16,-1
 151 1840 l 1,17,-1
 279 1762 l 1,18,-1
 491 2135 l 1,12,-1
EndSplineSet
EndChar

StartChar: Idieresis
Encoding: 207 207 143
Width: 983
Flags: W
HStem: 0 112<195 399 582 788> 1461 118<195 399 582 788> 1732 230<172.489 329.058 662.489 819.058>
VStem: 140 220<1767.07 1926.93> 399 183<112 1461> 630 220<1767.07 1926.93>
LayerCount: 2
Fore
SplineSet
195 112 m 1,0,-1
 399 112 l 1,1,-1
 399 1461 l 1,2,-1
 195 1461 l 1,3,-1
 195 1579 l 1,4,-1
 788 1579 l 1,5,-1
 788 1461 l 1,6,-1
 582 1461 l 1,7,-1
 582 112 l 1,8,-1
 788 112 l 1,9,-1
 788 0 l 1,10,-1
 195 0 l 1,11,-1
 195 112 l 1,0,-1
252 1962 m 0,12,13
 300 1962 300 1962 330 1928.5 c 128,-1,14
 360 1895 360 1895 360 1847 c 128,-1,15
 360 1799 360 1799 330 1765.5 c 128,-1,16
 300 1732 300 1732 252 1732 c 0,17,18
 203 1732 203 1732 171.5 1766 c 128,-1,19
 140 1800 140 1800 140 1847 c 128,-1,20
 140 1894 140 1894 171.5 1928 c 128,-1,21
 203 1962 203 1962 252 1962 c 0,12,13
742 1962 m 0,22,23
 790 1962 790 1962 820 1928.5 c 128,-1,24
 850 1895 850 1895 850 1847 c 128,-1,25
 850 1799 850 1799 820 1765.5 c 128,-1,26
 790 1732 790 1732 742 1732 c 0,27,28
 693 1732 693 1732 661.5 1766 c 128,-1,29
 630 1800 630 1800 630 1847 c 128,-1,30
 630 1894 630 1894 661.5 1928 c 128,-1,31
 693 1962 693 1962 742 1962 c 0,22,23
EndSplineSet
EndChar

StartChar: Eth
Encoding: 208 208 144
Width: 1491
Flags: W
HStem: 0 143<350 916.064> 764 131<-6 584> 1436 143<350 919.891>
VStem: 156 194<143 1436> 1167 201<439.068 1139.07>
LayerCount: 2
Fore
SplineSet
1167 789 m 128,-1,1
 1167 909 1167 909 1154 1004 c 128,-1,2
 1141 1099 1141 1099 1108.5 1182 c 128,-1,3
 1076 1265 1076 1265 1024.5 1319.5 c 128,-1,4
 973 1374 973 1374 893.5 1405 c 128,-1,5
 814 1436 814 1436 709 1436 c 2,6,-1
 350 1436 l 1,7,-1
 350 143 l 1,8,-1
 709 143 l 2,9,10
 814 143 814 143 893.5 174 c 128,-1,11
 973 205 973 205 1024.5 259 c 128,-1,12
 1076 313 1076 313 1108 395.5 c 128,-1,13
 1140 478 1140 478 1153.5 573.5 c 128,-1,0
 1167 669 1167 669 1167 789 c 128,-1,1
709 1579 m 1,14,15
 1046 1572 1046 1572 1207 1372.5 c 128,-1,16
 1368 1173 1368 1173 1368 788 c 0,17,18
 1368 0 1368 0 709 0 c 2,19,-1
 156 0 l 1,20,-1
 156 1579 l 1,21,-1
 709 1579 l 1,14,15
584 764 m 1,22,-1
 -6 764 l 1,23,-1
 -6 895 l 1,24,-1
 584 895 l 1,25,-1
 584 764 l 1,22,-1
EndSplineSet
EndChar

StartChar: Ntilde
Encoding: 209 209 145
Width: 1665
Flags: W
HStem: 0 21G<206 368 1185.44 1459> 1559 20G<206 479.562 1297 1459> 1732 139<874.677 1048.16> 1851 145<621.276 788.933>
VStem: 206 162<0 1434> 453 156<1736 1825.72> 1057 156<1873.86 1982> 1297 162<145 1579>
LayerCount: 2
Fore
SplineSet
1297 145 m 1,0,-1
 1297 1579 l 1,1,-1
 1459 1579 l 1,2,-1
 1459 0 l 1,3,-1
 1197 0 l 1,4,-1
 368 1434 l 1,5,-1
 368 0 l 1,6,-1
 206 0 l 1,7,-1
 206 1579 l 1,8,-1
 468 1579 l 1,9,-1
 1297 145 l 1,0,-1
1021 1732 m 0,10,11
 972 1732 972 1732 915 1750.5 c 128,-1,12
 858 1769 858 1769 817 1791.5 c 128,-1,13
 776 1814 776 1814 733.5 1832.5 c 128,-1,14
 691 1851 691 1851 668 1851 c 0,15,16
 639 1851 639 1851 624 1826.5 c 128,-1,17
 609 1802 609 1802 609 1736 c 1,18,-1
 453 1736 l 1,19,20
 453 1996 453 1996 654 1996 c 0,21,22
 704 1996 704 1996 756.5 1976.5 c 128,-1,23
 809 1957 809 1957 845.5 1933.5 c 128,-1,24
 882 1910 882 1910 924 1890.5 c 128,-1,25
 966 1871 966 1871 998 1871 c 0,26,27
 1057 1871 1057 1871 1057 1982 c 1,28,-1
 1213 1982 l 1,29,30
 1213 1868 1213 1868 1161 1800 c 128,-1,31
 1109 1732 1109 1732 1021 1732 c 0,10,11
EndSplineSet
EndChar

StartChar: Ograve
Encoding: 210 210 146
Width: 1558
Flags: W
HStem: -41 152<573.226 987.738> 1458 152<572.69 987.869>
VStem: 124 200<422.044 1146.71> 1234 200<420.082 1149.55>
LayerCount: 2
Fore
SplineSet
1434 784 m 0,0,1
 1434 639 1434 639 1413 517 c 128,-1,2
 1392 395 1392 395 1342 290.5 c 128,-1,3
 1292 186 1292 186 1217 113.5 c 128,-1,4
 1142 41 1142 41 1031 0 c 128,-1,5
 920 -41 920 -41 778 -41 c 0,6,7
 716 -41 716 -41 659 -33.5 c 128,-1,8
 602 -26 602 -26 534 -3 c 128,-1,9
 466 20 466 20 410 57 c 128,-1,10
 354 94 354 94 299 158 c 128,-1,11
 244 222 244 222 207 306 c 128,-1,12
 170 390 170 390 147 512.5 c 128,-1,13
 124 635 124 635 124 784 c 0,14,15
 124 930 124 930 146 1050.5 c 128,-1,16
 168 1171 168 1171 205 1255 c 128,-1,17
 242 1339 242 1339 295 1403.5 c 128,-1,18
 348 1468 348 1468 404 1506.5 c 128,-1,19
 460 1545 460 1545 526 1569 c 128,-1,20
 592 1593 592 1593 648 1601.5 c 128,-1,21
 704 1610 704 1610 764 1610 c 0,22,23
 910 1610 910 1610 1024 1569.5 c 128,-1,24
 1138 1529 1138 1529 1214 1457 c 128,-1,25
 1290 1385 1290 1385 1340 1280.5 c 128,-1,26
 1390 1176 1390 1176 1412 1053.5 c 128,-1,27
 1434 931 1434 931 1434 784 c 0,0,1
1234 784 m 0,28,29
 1234 972 1234 972 1202 1105 c 128,-1,30
 1170 1238 1170 1238 1108 1314 c 128,-1,31
 1046 1390 1046 1390 966 1424 c 128,-1,32
 886 1458 886 1458 780 1458 c 128,-1,33
 674 1458 674 1458 593 1423 c 128,-1,34
 512 1388 512 1388 462 1328.5 c 128,-1,35
 412 1269 412 1269 380 1181 c 128,-1,36
 348 1093 348 1093 336 997.5 c 128,-1,37
 324 902 324 902 324 784 c 0,38,39
 324 601 324 601 356 469 c 128,-1,40
 388 337 388 337 450 259.5 c 128,-1,41
 512 182 512 182 593 146.5 c 128,-1,42
 674 111 674 111 780 111 c 0,43,44
 868 111 868 111 939 135 c 128,-1,45
 1010 159 1010 159 1059 205 c 128,-1,46
 1108 251 1108 251 1143 310.5 c 128,-1,47
 1178 370 1178 370 1197 448 c 128,-1,48
 1216 526 1216 526 1225 607 c 128,-1,49
 1234 688 1234 688 1234 784 c 0,28,29
797 1758 m 1,50,-1
 730 1732 l 1,51,-1
 402 2287 l 1,52,-1
 644 2376 l 1,53,-1
 797 1758 l 1,50,-1
EndSplineSet
EndChar

StartChar: Oacute
Encoding: 211 211 147
Width: 1558
Flags: W
HStem: -41 152<573.226 987.738> 1458 152<572.69 987.869>
VStem: 124 200<422.044 1146.71> 1234 200<420.082 1149.55>
LayerCount: 2
Fore
SplineSet
1434 784 m 0,0,1
 1434 639 1434 639 1413 517 c 128,-1,2
 1392 395 1392 395 1342 290.5 c 128,-1,3
 1292 186 1292 186 1217 113.5 c 128,-1,4
 1142 41 1142 41 1031 0 c 128,-1,5
 920 -41 920 -41 778 -41 c 0,6,7
 716 -41 716 -41 659 -33.5 c 128,-1,8
 602 -26 602 -26 534 -3 c 128,-1,9
 466 20 466 20 410 57 c 128,-1,10
 354 94 354 94 299 158 c 128,-1,11
 244 222 244 222 207 306 c 128,-1,12
 170 390 170 390 147 512.5 c 128,-1,13
 124 635 124 635 124 784 c 0,14,15
 124 930 124 930 146 1050.5 c 128,-1,16
 168 1171 168 1171 205 1255 c 128,-1,17
 242 1339 242 1339 295 1403.5 c 128,-1,18
 348 1468 348 1468 404 1506.5 c 128,-1,19
 460 1545 460 1545 526 1569 c 128,-1,20
 592 1593 592 1593 648 1601.5 c 128,-1,21
 704 1610 704 1610 764 1610 c 0,22,23
 910 1610 910 1610 1024 1569.5 c 128,-1,24
 1138 1529 1138 1529 1214 1457 c 128,-1,25
 1290 1385 1290 1385 1340 1280.5 c 128,-1,26
 1390 1176 1390 1176 1412 1053.5 c 128,-1,27
 1434 931 1434 931 1434 784 c 0,0,1
1234 784 m 0,28,29
 1234 972 1234 972 1202 1105 c 128,-1,30
 1170 1238 1170 1238 1108 1314 c 128,-1,31
 1046 1390 1046 1390 966 1424 c 128,-1,32
 886 1458 886 1458 780 1458 c 128,-1,33
 674 1458 674 1458 593 1423 c 128,-1,34
 512 1388 512 1388 462 1328.5 c 128,-1,35
 412 1269 412 1269 380 1181 c 128,-1,36
 348 1093 348 1093 336 997.5 c 128,-1,37
 324 902 324 902 324 784 c 0,38,39
 324 601 324 601 356 469 c 128,-1,40
 388 337 388 337 450 259.5 c 128,-1,41
 512 182 512 182 593 146.5 c 128,-1,42
 674 111 674 111 780 111 c 0,43,44
 868 111 868 111 939 135 c 128,-1,45
 1010 159 1010 159 1059 205 c 128,-1,46
 1108 251 1108 251 1143 310.5 c 128,-1,47
 1178 370 1178 370 1197 448 c 128,-1,48
 1216 526 1216 526 1225 607 c 128,-1,49
 1234 688 1234 688 1234 784 c 0,28,29
792 1732 m 1,50,-1
 735 1758 l 1,51,-1
 894 2369 l 1,52,-1
 1126 2278 l 1,53,-1
 792 1732 l 1,50,-1
EndSplineSet
EndChar

StartChar: Ocircumflex
Encoding: 212 212 148
Width: 1558
Flags: W
HStem: -41 152<573.226 987.738> 1458 152<572.69 987.869>
VStem: 124 200<422.044 1146.71> 1234 200<420.082 1149.55>
LayerCount: 2
Fore
SplineSet
1434 784 m 0,0,1
 1434 639 1434 639 1413 517 c 128,-1,2
 1392 395 1392 395 1342 290.5 c 128,-1,3
 1292 186 1292 186 1217 113.5 c 128,-1,4
 1142 41 1142 41 1031 0 c 128,-1,5
 920 -41 920 -41 778 -41 c 0,6,7
 716 -41 716 -41 659 -33.5 c 128,-1,8
 602 -26 602 -26 534 -3 c 128,-1,9
 466 20 466 20 410 57 c 128,-1,10
 354 94 354 94 299 158 c 128,-1,11
 244 222 244 222 207 306 c 128,-1,12
 170 390 170 390 147 512.5 c 128,-1,13
 124 635 124 635 124 784 c 0,14,15
 124 930 124 930 146 1050.5 c 128,-1,16
 168 1171 168 1171 205 1255 c 128,-1,17
 242 1339 242 1339 295 1403.5 c 128,-1,18
 348 1468 348 1468 404 1506.5 c 128,-1,19
 460 1545 460 1545 526 1569 c 128,-1,20
 592 1593 592 1593 648 1601.5 c 128,-1,21
 704 1610 704 1610 764 1610 c 0,22,23
 910 1610 910 1610 1024 1569.5 c 128,-1,24
 1138 1529 1138 1529 1214 1457 c 128,-1,25
 1290 1385 1290 1385 1340 1280.5 c 128,-1,26
 1390 1176 1390 1176 1412 1053.5 c 128,-1,27
 1434 931 1434 931 1434 784 c 0,0,1
1234 784 m 0,28,29
 1234 972 1234 972 1202 1105 c 128,-1,30
 1170 1238 1170 1238 1108 1314 c 128,-1,31
 1046 1390 1046 1390 966 1424 c 128,-1,32
 886 1458 886 1458 780 1458 c 128,-1,33
 674 1458 674 1458 593 1423 c 128,-1,34
 512 1388 512 1388 462 1328.5 c 128,-1,35
 412 1269 412 1269 380 1181 c 128,-1,36
 348 1093 348 1093 336 997.5 c 128,-1,37
 324 902 324 902 324 784 c 0,38,39
 324 601 324 601 356 469 c 128,-1,40
 388 337 388 337 450 259.5 c 128,-1,41
 512 182 512 182 593 146.5 c 128,-1,42
 674 111 674 111 780 111 c 0,43,44
 868 111 868 111 939 135 c 128,-1,45
 1010 159 1010 159 1059 205 c 128,-1,46
 1108 251 1108 251 1143 310.5 c 128,-1,47
 1178 370 1178 370 1197 448 c 128,-1,48
 1216 526 1216 526 1225 607 c 128,-1,49
 1234 688 1234 688 1234 784 c 0,28,29
764 2139 m 1,50,-1
 976 1762 l 1,51,-1
 1104 1840 l 1,52,-1
 812 2341 l 1,53,-1
 716 2341 l 1,54,-1
 424 1840 l 1,55,-1
 552 1762 l 1,56,-1
 764 2139 l 1,50,-1
EndSplineSet
EndChar

StartChar: Otilde
Encoding: 213 213 149
Width: 1558
Flags: W
HStem: -41 152<573.226 987.738> 1458 152<572.69 987.869> 1732 139<805.677 979.162> 1851 145<552.276 719.933>
VStem: 124 200<422.044 1146.71> 384 156<1736 1825.72> 988 156<1873.86 1982> 1234 200<420.082 1149.55>
LayerCount: 2
Fore
SplineSet
1434 784 m 0,0,1
 1434 639 1434 639 1413 517 c 128,-1,2
 1392 395 1392 395 1342 290.5 c 128,-1,3
 1292 186 1292 186 1217 113.5 c 128,-1,4
 1142 41 1142 41 1031 0 c 128,-1,5
 920 -41 920 -41 778 -41 c 0,6,7
 716 -41 716 -41 659 -33.5 c 128,-1,8
 602 -26 602 -26 534 -3 c 128,-1,9
 466 20 466 20 410 57 c 128,-1,10
 354 94 354 94 299 158 c 128,-1,11
 244 222 244 222 207 306 c 128,-1,12
 170 390 170 390 147 512.5 c 128,-1,13
 124 635 124 635 124 784 c 0,14,15
 124 930 124 930 146 1050.5 c 128,-1,16
 168 1171 168 1171 205 1255 c 128,-1,17
 242 1339 242 1339 295 1403.5 c 128,-1,18
 348 1468 348 1468 404 1506.5 c 128,-1,19
 460 1545 460 1545 526 1569 c 128,-1,20
 592 1593 592 1593 648 1601.5 c 128,-1,21
 704 1610 704 1610 764 1610 c 0,22,23
 910 1610 910 1610 1024 1569.5 c 128,-1,24
 1138 1529 1138 1529 1214 1457 c 128,-1,25
 1290 1385 1290 1385 1340 1280.5 c 128,-1,26
 1390 1176 1390 1176 1412 1053.5 c 128,-1,27
 1434 931 1434 931 1434 784 c 0,0,1
1234 784 m 0,28,29
 1234 972 1234 972 1202 1105 c 128,-1,30
 1170 1238 1170 1238 1108 1314 c 128,-1,31
 1046 1390 1046 1390 966 1424 c 128,-1,32
 886 1458 886 1458 780 1458 c 128,-1,33
 674 1458 674 1458 593 1423 c 128,-1,34
 512 1388 512 1388 462 1328.5 c 128,-1,35
 412 1269 412 1269 380 1181 c 128,-1,36
 348 1093 348 1093 336 997.5 c 128,-1,37
 324 902 324 902 324 784 c 0,38,39
 324 601 324 601 356 469 c 128,-1,40
 388 337 388 337 450 259.5 c 128,-1,41
 512 182 512 182 593 146.5 c 128,-1,42
 674 111 674 111 780 111 c 0,43,44
 868 111 868 111 939 135 c 128,-1,45
 1010 159 1010 159 1059 205 c 128,-1,46
 1108 251 1108 251 1143 310.5 c 128,-1,47
 1178 370 1178 370 1197 448 c 128,-1,48
 1216 526 1216 526 1225 607 c 128,-1,49
 1234 688 1234 688 1234 784 c 0,28,29
952 1732 m 0,50,51
 903 1732 903 1732 846 1750.5 c 128,-1,52
 789 1769 789 1769 748 1791.5 c 128,-1,53
 707 1814 707 1814 664.5 1832.5 c 128,-1,54
 622 1851 622 1851 599 1851 c 0,55,56
 570 1851 570 1851 555 1826.5 c 128,-1,57
 540 1802 540 1802 540 1736 c 1,58,-1
 384 1736 l 1,59,60
 384 1996 384 1996 585 1996 c 0,61,62
 635 1996 635 1996 687.5 1976.5 c 128,-1,63
 740 1957 740 1957 776.5 1933.5 c 128,-1,64
 813 1910 813 1910 855 1890.5 c 128,-1,65
 897 1871 897 1871 929 1871 c 0,66,67
 988 1871 988 1871 988 1982 c 1,68,-1
 1144 1982 l 1,69,70
 1144 1868 1144 1868 1092 1800 c 128,-1,71
 1040 1732 1040 1732 952 1732 c 0,50,51
EndSplineSet
EndChar

StartChar: Odieresis
Encoding: 214 214 150
Width: 1558
Flags: W
HStem: -41 152<573.226 987.738> 1458 152<572.69 987.869> 1732 230<441.489 598.058 931.489 1088.06>
VStem: 124 200<422.044 1146.71> 409 220<1767.07 1926.93> 899 220<1767.07 1926.93> 1234 200<420.082 1149.55>
LayerCount: 2
Fore
SplineSet
1434 784 m 0,0,1
 1434 639 1434 639 1413 517 c 128,-1,2
 1392 395 1392 395 1342 290.5 c 128,-1,3
 1292 186 1292 186 1217 113.5 c 128,-1,4
 1142 41 1142 41 1031 0 c 128,-1,5
 920 -41 920 -41 778 -41 c 0,6,7
 716 -41 716 -41 659 -33.5 c 128,-1,8
 602 -26 602 -26 534 -3 c 128,-1,9
 466 20 466 20 410 57 c 128,-1,10
 354 94 354 94 299 158 c 128,-1,11
 244 222 244 222 207 306 c 128,-1,12
 170 390 170 390 147 512.5 c 128,-1,13
 124 635 124 635 124 784 c 0,14,15
 124 930 124 930 146 1050.5 c 128,-1,16
 168 1171 168 1171 205 1255 c 128,-1,17
 242 1339 242 1339 295 1403.5 c 128,-1,18
 348 1468 348 1468 404 1506.5 c 128,-1,19
 460 1545 460 1545 526 1569 c 128,-1,20
 592 1593 592 1593 648 1601.5 c 128,-1,21
 704 1610 704 1610 764 1610 c 0,22,23
 910 1610 910 1610 1024 1569.5 c 128,-1,24
 1138 1529 1138 1529 1214 1457 c 128,-1,25
 1290 1385 1290 1385 1340 1280.5 c 128,-1,26
 1390 1176 1390 1176 1412 1053.5 c 128,-1,27
 1434 931 1434 931 1434 784 c 0,0,1
1234 784 m 0,28,29
 1234 972 1234 972 1202 1105 c 128,-1,30
 1170 1238 1170 1238 1108 1314 c 128,-1,31
 1046 1390 1046 1390 966 1424 c 128,-1,32
 886 1458 886 1458 780 1458 c 128,-1,33
 674 1458 674 1458 593 1423 c 128,-1,34
 512 1388 512 1388 462 1328.5 c 128,-1,35
 412 1269 412 1269 380 1181 c 128,-1,36
 348 1093 348 1093 336 997.5 c 128,-1,37
 324 902 324 902 324 784 c 0,38,39
 324 601 324 601 356 469 c 128,-1,40
 388 337 388 337 450 259.5 c 128,-1,41
 512 182 512 182 593 146.5 c 128,-1,42
 674 111 674 111 780 111 c 0,43,44
 868 111 868 111 939 135 c 128,-1,45
 1010 159 1010 159 1059 205 c 128,-1,46
 1108 251 1108 251 1143 310.5 c 128,-1,47
 1178 370 1178 370 1197 448 c 128,-1,48
 1216 526 1216 526 1225 607 c 128,-1,49
 1234 688 1234 688 1234 784 c 0,28,29
521 1962 m 0,50,51
 569 1962 569 1962 599 1928.5 c 128,-1,52
 629 1895 629 1895 629 1847 c 128,-1,53
 629 1799 629 1799 599 1765.5 c 128,-1,54
 569 1732 569 1732 521 1732 c 0,55,56
 472 1732 472 1732 440.5 1766 c 128,-1,57
 409 1800 409 1800 409 1847 c 128,-1,58
 409 1894 409 1894 440.5 1928 c 128,-1,59
 472 1962 472 1962 521 1962 c 0,50,51
1011 1962 m 0,60,61
 1059 1962 1059 1962 1089 1928.5 c 128,-1,62
 1119 1895 1119 1895 1119 1847 c 128,-1,63
 1119 1799 1119 1799 1089 1765.5 c 128,-1,64
 1059 1732 1059 1732 1011 1732 c 0,65,66
 962 1732 962 1732 930.5 1766 c 128,-1,67
 899 1800 899 1800 899 1847 c 128,-1,68
 899 1894 899 1894 930.5 1928 c 128,-1,69
 962 1962 962 1962 1011 1962 c 0,60,61
EndSplineSet
EndChar

StartChar: multiply
Encoding: 215 215 151
Width: 1365
Flags: W
LayerCount: 2
Fore
SplineSet
278 863 m 1,0,-1
 380 965 l 1,1,-1
 697 648 l 1,2,-1
 1014 965 l 1,3,-1
 1116 863 l 1,4,-1
 799 546 l 1,5,-1
 1116 229 l 1,6,-1
 1014 127 l 1,7,-1
 697 444 l 1,8,-1
 380 127 l 1,9,-1
 278 229 l 1,10,-1
 595 546 l 1,11,-1
 278 863 l 1,0,-1
EndSplineSet
EndChar

StartChar: Oslash
Encoding: 216 216 152
Width: 1557
Flags: W
HStem: -41 152<562.481 987.023> 1458 152<572.13 987.192>
VStem: 123 201<422.044 1148.34> 1233 201<418.289 1149.55>
LayerCount: 2
Fore
SplineSet
349 -113 m 1,0,-1
 1174 1710 l 1,1,-1
 1275 1668 l 1,2,-1
 450 -159 l 1,3,-1
 349 -113 l 1,0,-1
1434 784 m 0,4,5
 1434 639 1434 639 1412.5 517 c 128,-1,6
 1391 395 1391 395 1341.5 290.5 c 128,-1,7
 1292 186 1292 186 1217 113.5 c 128,-1,8
 1142 41 1142 41 1030.5 0 c 128,-1,9
 919 -41 919 -41 778 -41 c 0,10,11
 716 -41 716 -41 659 -33.5 c 128,-1,12
 602 -26 602 -26 534 -3 c 128,-1,13
 466 20 466 20 409.5 57 c 128,-1,14
 353 94 353 94 298.5 158 c 128,-1,15
 244 222 244 222 206.5 306 c 128,-1,16
 169 390 169 390 146 512.5 c 128,-1,17
 123 635 123 635 123 784 c 0,18,19
 123 930 123 930 145.5 1050.5 c 128,-1,20
 168 1171 168 1171 205 1255 c 128,-1,21
 242 1339 242 1339 295 1403.5 c 128,-1,22
 348 1468 348 1468 404 1506.5 c 128,-1,23
 460 1545 460 1545 525.5 1569 c 128,-1,24
 591 1593 591 1593 647.5 1601.5 c 128,-1,25
 704 1610 704 1610 764 1610 c 0,26,27
 909 1610 909 1610 1023 1569.5 c 128,-1,28
 1137 1529 1137 1529 1213.5 1457 c 128,-1,29
 1290 1385 1290 1385 1340 1280.5 c 128,-1,30
 1390 1176 1390 1176 1412 1053.5 c 128,-1,31
 1434 931 1434 931 1434 784 c 0,4,5
1233 784 m 0,32,33
 1233 972 1233 972 1201 1105 c 128,-1,34
 1169 1238 1169 1238 1107.5 1314 c 128,-1,35
 1046 1390 1046 1390 965.5 1424 c 128,-1,36
 885 1458 885 1458 779 1458 c 128,-1,37
 673 1458 673 1458 592.5 1423 c 128,-1,38
 512 1388 512 1388 461.5 1328.5 c 128,-1,39
 411 1269 411 1269 379.5 1181 c 128,-1,40
 348 1093 348 1093 336 997.5 c 128,-1,41
 324 902 324 902 324 784 c 0,42,43
 324 601 324 601 356 469 c 128,-1,44
 388 337 388 337 449.5 259.5 c 128,-1,45
 511 182 511 182 592 146.5 c 128,-1,46
 673 111 673 111 779 111 c 0,47,48
 868 111 868 111 938.5 135 c 128,-1,49
 1009 159 1009 159 1058 205 c 128,-1,50
 1107 251 1107 251 1142 310.5 c 128,-1,51
 1177 370 1177 370 1196.5 448 c 128,-1,52
 1216 526 1216 526 1224.5 607 c 128,-1,53
 1233 688 1233 688 1233 784 c 0,32,33
EndSplineSet
EndChar

StartChar: Ugrave
Encoding: 217 217 153
Width: 1664
Flags: W
HStem: -41 141<599.276 1060.74> 1559 20G<204 396 1264 1460>
VStem: 204 192<355.22 1579> 1264 196<356.41 1579>
LayerCount: 2
Fore
SplineSet
830 -41 m 0,0,1
 662 -41 662 -41 541 8.5 c 128,-1,2
 420 58 420 58 346 157 c 128,-1,3
 272 256 272 256 238 393 c 128,-1,4
 204 530 204 530 204 715 c 2,5,-1
 204 1579 l 1,6,-1
 396 1579 l 1,7,-1
 396 711 l 2,8,9
 396 582 396 582 410 484 c 128,-1,10
 424 386 424 386 452 320 c 128,-1,11
 480 254 480 254 516 210 c 128,-1,12
 552 166 552 166 603 142 c 128,-1,13
 654 118 654 118 707 109 c 128,-1,14
 760 100 760 100 830 100 c 0,15,16
 916 100 916 100 977 113 c 128,-1,17
 1038 126 1038 126 1095 165 c 128,-1,18
 1152 204 1152 204 1187 270.5 c 128,-1,19
 1222 337 1222 337 1243 447.5 c 128,-1,20
 1264 558 1264 558 1264 711 c 2,21,-1
 1264 1579 l 1,22,-1
 1460 1579 l 1,23,-1
 1460 715 l 2,24,25
 1460 582 1460 582 1443 474.5 c 128,-1,26
 1426 367 1426 367 1383 268.5 c 128,-1,27
 1340 170 1340 170 1270 103.5 c 128,-1,28
 1200 37 1200 37 1089 -2 c 128,-1,29
 978 -41 978 -41 830 -41 c 0,0,1
831 1758 m 1,30,-1
 764 1732 l 1,31,-1
 436 2287 l 1,32,-1
 678 2376 l 1,33,-1
 831 1758 l 1,30,-1
EndSplineSet
EndChar

StartChar: Uacute
Encoding: 218 218 154
Width: 1664
Flags: W
HStem: -41 141<599.276 1060.74> 1559 20G<204 396 1264 1460>
VStem: 204 192<355.22 1579> 1264 196<356.41 1579>
LayerCount: 2
Fore
SplineSet
830 -41 m 0,0,1
 662 -41 662 -41 541 8.5 c 128,-1,2
 420 58 420 58 346 157 c 128,-1,3
 272 256 272 256 238 393 c 128,-1,4
 204 530 204 530 204 715 c 2,5,-1
 204 1579 l 1,6,-1
 396 1579 l 1,7,-1
 396 711 l 2,8,9
 396 582 396 582 410 484 c 128,-1,10
 424 386 424 386 452 320 c 128,-1,11
 480 254 480 254 516 210 c 128,-1,12
 552 166 552 166 603 142 c 128,-1,13
 654 118 654 118 707 109 c 128,-1,14
 760 100 760 100 830 100 c 0,15,16
 916 100 916 100 977 113 c 128,-1,17
 1038 126 1038 126 1095 165 c 128,-1,18
 1152 204 1152 204 1187 270.5 c 128,-1,19
 1222 337 1222 337 1243 447.5 c 128,-1,20
 1264 558 1264 558 1264 711 c 2,21,-1
 1264 1579 l 1,22,-1
 1460 1579 l 1,23,-1
 1460 715 l 2,24,25
 1460 582 1460 582 1443 474.5 c 128,-1,26
 1426 367 1426 367 1383 268.5 c 128,-1,27
 1340 170 1340 170 1270 103.5 c 128,-1,28
 1200 37 1200 37 1089 -2 c 128,-1,29
 978 -41 978 -41 830 -41 c 0,0,1
826 1732 m 1,30,-1
 769 1758 l 1,31,-1
 928 2369 l 1,32,-1
 1160 2278 l 1,33,-1
 826 1732 l 1,30,-1
EndSplineSet
EndChar

StartChar: Ucircumflex
Encoding: 219 219 155
Width: 1664
Flags: W
HStem: -41 141<599.276 1060.74> 1559 20G<204 396 1264 1460>
VStem: 204 192<355.22 1579> 1264 196<356.41 1579>
LayerCount: 2
Fore
SplineSet
830 -41 m 0,0,1
 662 -41 662 -41 541 8.5 c 128,-1,2
 420 58 420 58 346 157 c 128,-1,3
 272 256 272 256 238 393 c 128,-1,4
 204 530 204 530 204 715 c 2,5,-1
 204 1579 l 1,6,-1
 396 1579 l 1,7,-1
 396 711 l 2,8,9
 396 582 396 582 410 484 c 128,-1,10
 424 386 424 386 452 320 c 128,-1,11
 480 254 480 254 516 210 c 128,-1,12
 552 166 552 166 603 142 c 128,-1,13
 654 118 654 118 707 109 c 128,-1,14
 760 100 760 100 830 100 c 0,15,16
 916 100 916 100 977 113 c 128,-1,17
 1038 126 1038 126 1095 165 c 128,-1,18
 1152 204 1152 204 1187 270.5 c 128,-1,19
 1222 337 1222 337 1243 447.5 c 128,-1,20
 1264 558 1264 558 1264 711 c 2,21,-1
 1264 1579 l 1,22,-1
 1460 1579 l 1,23,-1
 1460 715 l 2,24,25
 1460 582 1460 582 1443 474.5 c 128,-1,26
 1426 367 1426 367 1383 268.5 c 128,-1,27
 1340 170 1340 170 1270 103.5 c 128,-1,28
 1200 37 1200 37 1089 -2 c 128,-1,29
 978 -41 978 -41 830 -41 c 0,0,1
797 2139 m 1,30,-1
 1009 1762 l 1,31,-1
 1137 1840 l 1,32,-1
 845 2341 l 1,33,-1
 749 2341 l 1,34,-1
 457 1840 l 1,35,-1
 585 1762 l 1,36,-1
 797 2139 l 1,30,-1
EndSplineSet
EndChar

StartChar: Udieresis
Encoding: 220 220 156
Width: 1664
Flags: W
HStem: -41 141<599.276 1060.74> 1559 20G<204 396 1264 1460> 1732 230<515.489 672.058 1005.49 1162.06>
VStem: 204 192<355.22 1579> 483 220<1767.07 1926.93> 973 220<1767.07 1926.93> 1264 196<356.41 1579>
LayerCount: 2
Fore
SplineSet
830 -41 m 0,0,1
 662 -41 662 -41 541 8.5 c 128,-1,2
 420 58 420 58 346 157 c 128,-1,3
 272 256 272 256 238 393 c 128,-1,4
 204 530 204 530 204 715 c 2,5,-1
 204 1579 l 1,6,-1
 396 1579 l 1,7,-1
 396 711 l 2,8,9
 396 582 396 582 410 484 c 128,-1,10
 424 386 424 386 452 320 c 128,-1,11
 480 254 480 254 516 210 c 128,-1,12
 552 166 552 166 603 142 c 128,-1,13
 654 118 654 118 707 109 c 128,-1,14
 760 100 760 100 830 100 c 0,15,16
 916 100 916 100 977 113 c 128,-1,17
 1038 126 1038 126 1095 165 c 128,-1,18
 1152 204 1152 204 1187 270.5 c 128,-1,19
 1222 337 1222 337 1243 447.5 c 128,-1,20
 1264 558 1264 558 1264 711 c 2,21,-1
 1264 1579 l 1,22,-1
 1460 1579 l 1,23,-1
 1460 715 l 2,24,25
 1460 582 1460 582 1443 474.5 c 128,-1,26
 1426 367 1426 367 1383 268.5 c 128,-1,27
 1340 170 1340 170 1270 103.5 c 128,-1,28
 1200 37 1200 37 1089 -2 c 128,-1,29
 978 -41 978 -41 830 -41 c 0,0,1
595 1962 m 0,30,31
 643 1962 643 1962 673 1928.5 c 128,-1,32
 703 1895 703 1895 703 1847 c 128,-1,33
 703 1799 703 1799 673 1765.5 c 128,-1,34
 643 1732 643 1732 595 1732 c 0,35,36
 546 1732 546 1732 514.5 1766 c 128,-1,37
 483 1800 483 1800 483 1847 c 128,-1,38
 483 1894 483 1894 514.5 1928 c 128,-1,39
 546 1962 546 1962 595 1962 c 0,30,31
1085 1962 m 0,40,41
 1133 1962 1133 1962 1163 1928.5 c 128,-1,42
 1193 1895 1193 1895 1193 1847 c 128,-1,43
 1193 1799 1193 1799 1163 1765.5 c 128,-1,44
 1133 1732 1133 1732 1085 1732 c 0,45,46
 1036 1732 1036 1732 1004.5 1766 c 128,-1,47
 973 1800 973 1800 973 1847 c 128,-1,48
 973 1894 973 1894 1004.5 1928 c 128,-1,49
 1036 1962 1036 1962 1085 1962 c 0,40,41
EndSplineSet
EndChar

StartChar: Yacute
Encoding: 221 221 157
Width: 1272
Flags: W
HStem: 0 21G<541 731> 1559 20G<27 233.159 1044.82 1245>
VStem: 541 190<0 485>
LayerCount: 2
Fore
SplineSet
641 677 m 1,0,-1
 699 806 l 1,1,-1
 1054 1579 l 1,2,-1
 1245 1579 l 1,3,-1
 731 485 l 1,4,-1
 731 0 l 1,5,-1
 541 0 l 1,6,-1
 541 485 l 1,7,-1
 27 1579 l 1,8,-1
 224 1579 l 1,9,-1
 578 806 l 1,10,-1
 641 677 l 1,0,-1
692 1732 m 1,11,-1
 635 1758 l 1,12,-1
 794 2369 l 1,13,-1
 1026 2278 l 1,14,-1
 692 1732 l 1,11,-1
EndSplineSet
EndChar

StartChar: Thorn
Encoding: 222 222 158
Width: 1456
Flags: W
HStem: 0 21G<156 350> 504 145<350 878.884> 1300 144<350 907.717> 1559 20G<156 350>
VStem: 156 194<0 504 649 1300 1444 1579> 1063 182<790.564 1167.93>
LayerCount: 2
Fore
SplineSet
1245 973 m 0,0,1
 1245 885 1245 885 1224 816 c 128,-1,2
 1203 747 1203 747 1152 687 c 128,-1,3
 1101 627 1101 627 1018.5 587.5 c 128,-1,4
 936 548 936 548 808.5 526 c 128,-1,5
 681 504 681 504 512 504 c 2,6,-1
 350 504 l 1,7,-1
 350 0 l 1,8,-1
 156 0 l 1,9,-1
 156 1579 l 1,10,-1
 350 1579 l 1,11,-1
 350 1444 l 1,12,-1
 547 1444 l 2,13,14
 713 1444 713 1444 835.5 1423 c 128,-1,15
 958 1402 958 1402 1036 1364.5 c 128,-1,16
 1114 1327 1114 1327 1161 1267 c 128,-1,17
 1208 1207 1208 1207 1226.5 1137 c 128,-1,18
 1245 1067 1245 1067 1245 973 c 0,0,1
512 649 m 2,19,20
 649 649 649 649 748 664 c 128,-1,21
 847 679 847 679 907 704 c 128,-1,22
 967 729 967 729 1002.5 770 c 128,-1,23
 1038 811 1038 811 1050.5 855 c 128,-1,24
 1063 899 1063 899 1063 959 c 0,25,26
 1063 1036 1063 1036 1051.5 1087.5 c 128,-1,27
 1040 1139 1040 1139 1009 1182.5 c 128,-1,28
 978 1226 978 1226 921.5 1250 c 128,-1,29
 865 1274 865 1274 776.5 1287 c 128,-1,30
 688 1300 688 1300 559 1300 c 2,31,-1
 350 1300 l 1,32,-1
 350 649 l 1,33,-1
 512 649 l 2,19,20
EndSplineSet
EndChar

StartChar: germandbls
Encoding: 223 223 159
Width: 1407
Flags: W
HStem: -129 156<531 890.023> -6 21G<161 337.364> 774 131<499 835.75> 1436 143<452.258 850.87>
VStem: 161 194<16 1329.81> 951 172<1004.79 1346.47> 1123 182<213.854 598.82>
LayerCount: 2
Fore
SplineSet
523 905 m 1,0,1
 726 917 726 917 792 934 c 0,2,3
 889 959 889 959 923 1032 c 0,4,5
 951 1090 951 1090 951 1200 c 0,6,7
 951 1268 951 1268 929 1314.5 c 128,-1,8
 907 1361 907 1361 863 1387.5 c 128,-1,9
 819 1414 819 1414 763 1425 c 128,-1,10
 707 1436 707 1436 630 1436 c 0,11,12
 572 1436 572 1436 529.5 1426.5 c 128,-1,13
 487 1417 487 1417 456 1394.5 c 128,-1,14
 425 1372 425 1372 406 1341 c 128,-1,15
 387 1310 387 1310 375.5 1261 c 128,-1,16
 364 1212 364 1212 359.5 1155 c 128,-1,17
 355 1098 355 1098 355 1018 c 2,18,-1
 355 16 l 1,19,-1
 161 -6 l 1,20,-1
 161 991 l 1,21,22
 156 1143 156 1143 178.5 1251 c 128,-1,23
 201 1359 201 1359 256 1433.5 c 128,-1,24
 311 1508 311 1508 403.5 1543.5 c 128,-1,25
 496 1579 496 1579 630 1579 c 0,26,27
 1123 1579 1123 1579 1123 1176 c 0,28,29
 1123 1037 1123 1037 1060 948 c 128,-1,30
 997 859 997 859 877 844 c 1,31,32
 971 844 971 844 1049.5 814 c 128,-1,33
 1128 784 1128 784 1184.5 728.5 c 128,-1,34
 1241 673 1241 673 1273 588.5 c 128,-1,35
 1305 504 1305 504 1305 399 c 2,36,-1
 1305 395 l 2,37,38
 1305 307 1305 307 1281.5 234 c 128,-1,39
 1258 161 1258 161 1217.5 107.5 c 128,-1,40
 1177 54 1177 54 1118.5 12.5 c 128,-1,41
 1060 -29 1060 -29 994 -55 c 128,-1,42
 928 -81 928 -81 849 -98 c 128,-1,43
 770 -115 770 -115 693 -122 c 128,-1,44
 616 -129 616 -129 531 -129 c 1,45,-1
 531 27 l 1,46,47
 677 27 677 27 783.5 46 c 128,-1,48
 890 65 890 65 954.5 97.5 c 128,-1,49
 1019 130 1019 130 1057.5 182 c 128,-1,50
 1096 234 1096 234 1109.5 290.5 c 128,-1,51
 1123 347 1123 347 1123 424 c 2,52,-1
 1123 432 l 2,53,54
 1123 495 1123 495 1104.5 546.5 c 128,-1,55
 1086 598 1086 598 1043.5 641 c 128,-1,56
 1001 684 1001 684 935.5 713 c 128,-1,57
 870 742 870 742 772.5 758 c 128,-1,58
 675 774 675 774 550 774 c 2,59,-1
 499 774 l 1,60,-1
 499 905 l 1,61,-1
 523 905 l 1,0,1
EndSplineSet
EndChar

StartChar: ae
Encoding: 230 230 166
Width: 1897
Flags: W
HStem: -23 142<379.219 716.568 1220.58 1578.98> 567 115<1054 1654> 569 96<652.532 864> 590 125<398.363 849.139> 1047 143<385.208 791.803 1188.88 1552.2>
VStem: 116 191<192.237 504.406> 864 190<299.241 567 682 898.577> 1654 168<682 932.445>
LayerCount: 2
Fore
SplineSet
864 665 m 1,0,-1
 864 713 l 2,1,2
 864 813 864 813 855 872 c 128,-1,3
 846 931 846 931 818.5 973 c 128,-1,4
 791 1015 791 1015 742 1031 c 128,-1,5
 693 1047 693 1047 612 1047 c 0,6,7
 499 1047 499 1047 393.5 1006 c 4,8,9
 291 966 291 966 249 934 c 5,10,-1
 182 1059 l 1,11,12
 247 1114 247 1114 374.5 1152 c 128,-1,13
 502 1190 502 1190 602 1190 c 0,14,15
 763 1190 763 1190 855.5 1140 c 128,-1,16
 948 1090 948 1090 984 970 c 1,17,18
 1037 1080 1037 1080 1144.5 1135 c 128,-1,19
 1252 1190 1252 1190 1379 1190 c 0,20,21
 1593 1190 1593 1190 1707.5 1050.5 c 128,-1,22
 1822 911 1822 911 1822 676 c 0,23,24
 1822 628 1822 628 1814 567 c 1,25,-1
 1054 567 l 1,26,27
 1054 465 1054 465 1069.5 390 c 128,-1,28
 1085 315 1085 315 1122.5 253 c 128,-1,29
 1160 191 1160 191 1229.5 159 c 128,-1,30
 1299 127 1299 127 1400 127 c 0,31,32
 1570 127 1570 127 1706 244 c 1,33,-1
 1768 99 l 1,34,35
 1690 42 1690 42 1577.5 9.5 c 128,-1,36
 1465 -23 1465 -23 1388 -23 c 0,37,38
 1238 -23 1238 -23 1128.5 36.5 c 128,-1,39
 1019 96 1019 96 955 207 c 1,40,41
 921 162 921 162 876.5 122.5 c 128,-1,42
 832 83 832 83 775.5 49.5 c 128,-1,43
 719 16 719 16 649.5 -3.5 c 128,-1,44
 580 -23 580 -23 508 -23 c 0,45,46
 322 -23 322 -23 219 70 c 128,-1,47
 116 163 116 163 116 339 c 2,48,-1
 116 343 l 2,49,50
 116 521 116 521 237 618 c 128,-1,51
 358 715 358 715 560 715 c 0,52,53
 632 715 632 715 721.5 700.5 c 128,-1,54
 811 686 811 686 864 665 c 1,0,-1
555 119 m 0,55,56
 702 119 702 119 864 271 c 1,57,-1
 864 569 l 1,58,59
 736 590 736 590 633 590 c 0,60,61
 537 590 537 590 472 574 c 128,-1,62
 407 558 407 558 371.5 525.5 c 128,-1,63
 336 493 336 493 321.5 452.5 c 128,-1,64
 307 412 307 412 307 356 c 0,65,66
 307 228 307 228 366.5 173.5 c 128,-1,67
 426 119 426 119 555 119 c 0,55,56
1654 717 m 2,68,69
 1654 802 1654 802 1635.5 865.5 c 128,-1,70
 1617 929 1617 929 1589.5 964.5 c 128,-1,71
 1562 1000 1562 1000 1523.5 1022 c 128,-1,72
 1485 1044 1485 1044 1451.5 1050.5 c 128,-1,73
 1418 1057 1418 1057 1380 1057 c 0,74,75
 1337 1057 1337 1057 1297 1049 c 128,-1,76
 1257 1041 1257 1041 1211 1016 c 128,-1,77
 1165 991 1165 991 1131.5 951 c 128,-1,78
 1098 911 1098 911 1076 842 c 128,-1,79
 1054 773 1054 773 1054 682 c 1,80,-1
 1654 682 l 1,81,-1
 1654 717 l 2,68,69
EndSplineSet
EndChar

StartChar: ccedilla
Encoding: 231 231 167
Width: 1122
Flags: W
HStem: -655 114<425.5 707.191> -520 20G<425 425> -263 88<596 685.264> -23 150<459.105 839.729> -1 128<475 596> 1040 150<461.761 839.486>
VStem: 108 190<312.683 850.923> 475 121<-175 -7.5> 728 133<-523.704 -303.899>
LayerCount: 2
Fore
SplineSet
298 580 m 0,0,1
 298 815 298 815 385.5 927.5 c 128,-1,2
 473 1040 473 1040 636 1040 c 0,3,4
 817 1040 817 1040 950 924 c 1,5,-1
 1007 1057 l 1,6,7
 819 1190 819 1190 619 1190 c 0,8,9
 552 1190 552 1190 486.5 1173.5 c 128,-1,10
 421 1157 421 1157 351 1114 c 128,-1,11
 281 1071 281 1071 228.5 1004.5 c 128,-1,12
 176 938 176 938 142 828.5 c 128,-1,13
 108 719 108 719 108 580 c 0,14,15
 108 440 108 440 142 331 c 128,-1,16
 176 222 176 222 228.5 157 c 128,-1,17
 281 92 281 92 351 50 c 128,-1,18
 421 8 421 8 485.5 -7.5 c 128,-1,19
 550 -23 550 -23 616 -23 c 0,20,21
 820 -23 820 -23 1007 111 c 1,22,-1
 950 245 l 1,23,24
 823 127 823 127 621 127 c 0,25,26
 555 127 555 127 499.5 150 c 128,-1,27
 444 173 444 173 397.5 223 c 128,-1,28
 351 273 351 273 324.5 364 c 128,-1,29
 298 455 298 455 298 580 c 0,0,1
425 -617 m 1,30,-1
 425 -500 l 1,31,32
 425 -500 425 -500 457 -510 c 256,33,34
 489 -520 489 -520 530 -530.5 c 128,-1,35
 571 -541 571 -541 589 -541 c 0,36,37
 616 -541 616 -541 631 -540 c 128,-1,38
 646 -539 646 -539 667.5 -532 c 128,-1,39
 689 -525 689 -525 700 -511 c 128,-1,40
 711 -497 711 -497 719.5 -470.5 c 128,-1,41
 728 -444 728 -444 728 -405 c 0,42,43
 728 -326 728 -326 668.5 -294.5 c 128,-1,44
 609 -263 609 -263 475 -263 c 1,45,-1
 475 -1 l 1,46,-1
 596 -1 l 1,47,-1
 596 -175 l 1,48,49
 721 -175 721 -175 791 -229 c 128,-1,50
 861 -283 861 -283 861 -419 c 0,51,52
 861 -655 861 -655 609 -655 c 0,53,54
 592 -655 592 -655 572.5 -653 c 128,-1,55
 553 -651 553 -651 536 -647.5 c 128,-1,56
 519 -644 519 -644 502 -640 c 128,-1,57
 485 -636 485 -636 471.5 -632 c 128,-1,58
 458 -628 458 -628 447.5 -624.5 c 128,-1,59
 437 -621 437 -621 431 -619 c 2,60,-1
 425 -617 l 1,30,-1
EndSplineSet
EndChar

StartChar: egrave
Encoding: 232 232 168
Width: 1145
Flags: W
HStem: -23 150<450.97 838.715> 567 115<298 898> 1057 133<447.839 781.57>
VStem: 108 190<301.461 567 682 853.906> 898 168<682 932.445>
LayerCount: 2
Fore
SplineSet
898 717 m 2,0,1
 898 802 898 802 879.5 865.5 c 128,-1,2
 861 929 861 929 833.5 964.5 c 128,-1,3
 806 1000 806 1000 767.5 1022 c 128,-1,4
 729 1044 729 1044 695.5 1050.5 c 128,-1,5
 662 1057 662 1057 624 1057 c 0,6,7
 581 1057 581 1057 541 1049 c 128,-1,8
 501 1041 501 1041 455 1016 c 128,-1,9
 409 991 409 991 375.5 951 c 128,-1,10
 342 911 342 911 320 842 c 128,-1,11
 298 773 298 773 298 682 c 1,12,-1
 898 682 l 1,13,-1
 898 717 l 2,0,1
298 567 m 1,14,15
 298 465 298 465 313.5 390 c 128,-1,16
 329 315 329 315 366.5 253 c 128,-1,17
 404 191 404 191 473.5 159 c 128,-1,18
 543 127 543 127 644 127 c 0,19,20
 814 127 814 127 950 244 c 1,21,-1
 1012 99 l 1,22,23
 934 42 934 42 821.5 9.5 c 128,-1,24
 709 -23 709 -23 632 -23 c 0,25,26
 381 -23 381 -23 244.5 138 c 128,-1,27
 108 299 108 299 108 578 c 0,28,29
 108 723 108 723 147 839.5 c 128,-1,30
 186 956 186 956 255 1032.5 c 128,-1,31
 324 1109 324 1109 418 1149.5 c 128,-1,32
 512 1190 512 1190 623 1190 c 0,33,34
 837 1190 837 1190 951.5 1050.5 c 128,-1,35
 1066 911 1066 911 1066 676 c 0,36,37
 1066 628 1066 628 1058 567 c 1,38,-1
 298 567 l 1,14,15
657 1338 m 1,39,-1
 590 1312 l 1,40,-1
 262 1867 l 1,41,-1
 504 1956 l 1,42,-1
 657 1338 l 1,39,-1
EndSplineSet
EndChar

StartChar: eacute
Encoding: 233 233 169
Width: 1145
Flags: W
HStem: -23 150<450.97 838.715> 567 115<298 898> 1057 133<447.839 781.57>
VStem: 108 190<301.461 567 682 853.906> 898 168<682 932.445>
LayerCount: 2
Fore
SplineSet
898 717 m 2,0,1
 898 802 898 802 879.5 865.5 c 128,-1,2
 861 929 861 929 833.5 964.5 c 128,-1,3
 806 1000 806 1000 767.5 1022 c 128,-1,4
 729 1044 729 1044 695.5 1050.5 c 128,-1,5
 662 1057 662 1057 624 1057 c 0,6,7
 581 1057 581 1057 541 1049 c 128,-1,8
 501 1041 501 1041 455 1016 c 128,-1,9
 409 991 409 991 375.5 951 c 128,-1,10
 342 911 342 911 320 842 c 128,-1,11
 298 773 298 773 298 682 c 1,12,-1
 898 682 l 1,13,-1
 898 717 l 2,0,1
298 567 m 1,14,15
 298 465 298 465 313.5 390 c 128,-1,16
 329 315 329 315 366.5 253 c 128,-1,17
 404 191 404 191 473.5 159 c 128,-1,18
 543 127 543 127 644 127 c 0,19,20
 814 127 814 127 950 244 c 1,21,-1
 1012 99 l 1,22,23
 934 42 934 42 821.5 9.5 c 128,-1,24
 709 -23 709 -23 632 -23 c 0,25,26
 381 -23 381 -23 244.5 138 c 128,-1,27
 108 299 108 299 108 578 c 0,28,29
 108 723 108 723 147 839.5 c 128,-1,30
 186 956 186 956 255 1032.5 c 128,-1,31
 324 1109 324 1109 418 1149.5 c 128,-1,32
 512 1190 512 1190 623 1190 c 0,33,34
 837 1190 837 1190 951.5 1050.5 c 128,-1,35
 1066 911 1066 911 1066 676 c 0,36,37
 1066 628 1066 628 1058 567 c 1,38,-1
 298 567 l 1,14,15
652 1312 m 1,39,-1
 595 1338 l 1,40,-1
 754 1949 l 1,41,-1
 986 1858 l 1,42,-1
 652 1312 l 1,39,-1
EndSplineSet
EndChar

StartChar: ecircumflex
Encoding: 234 234 170
Width: 1145
Flags: W
HStem: -23 150<450.97 838.715> 567 115<298 898> 1057 133<447.839 781.57>
VStem: 108 190<301.461 567 682 853.906> 898 168<682 932.445>
LayerCount: 2
Fore
SplineSet
898 717 m 2,0,1
 898 802 898 802 879.5 865.5 c 128,-1,2
 861 929 861 929 833.5 964.5 c 128,-1,3
 806 1000 806 1000 767.5 1022 c 128,-1,4
 729 1044 729 1044 695.5 1050.5 c 128,-1,5
 662 1057 662 1057 624 1057 c 0,6,7
 581 1057 581 1057 541 1049 c 128,-1,8
 501 1041 501 1041 455 1016 c 128,-1,9
 409 991 409 991 375.5 951 c 128,-1,10
 342 911 342 911 320 842 c 128,-1,11
 298 773 298 773 298 682 c 1,12,-1
 898 682 l 1,13,-1
 898 717 l 2,0,1
298 567 m 1,14,15
 298 465 298 465 313.5 390 c 128,-1,16
 329 315 329 315 366.5 253 c 128,-1,17
 404 191 404 191 473.5 159 c 128,-1,18
 543 127 543 127 644 127 c 0,19,20
 814 127 814 127 950 244 c 1,21,-1
 1012 99 l 1,22,23
 934 42 934 42 821.5 9.5 c 128,-1,24
 709 -23 709 -23 632 -23 c 0,25,26
 381 -23 381 -23 244.5 138 c 128,-1,27
 108 299 108 299 108 578 c 0,28,29
 108 723 108 723 147 839.5 c 128,-1,30
 186 956 186 956 255 1032.5 c 128,-1,31
 324 1109 324 1109 418 1149.5 c 128,-1,32
 512 1190 512 1190 623 1190 c 0,33,34
 837 1190 837 1190 951.5 1050.5 c 128,-1,35
 1066 911 1066 911 1066 676 c 0,36,37
 1066 628 1066 628 1058 567 c 1,38,-1
 298 567 l 1,14,15
622 1719 m 1,39,-1
 834 1342 l 1,40,-1
 962 1420 l 1,41,-1
 670 1921 l 1,42,-1
 574 1921 l 1,43,-1
 282 1420 l 1,44,-1
 410 1342 l 1,45,-1
 622 1719 l 1,39,-1
EndSplineSet
EndChar

StartChar: edieresis
Encoding: 235 235 171
Width: 1145
Flags: W
HStem: -23 150<450.97 838.715> 567 115<298 898> 1057 133<447.839 781.57> 1352 230<300.489 457.058 790.489 947.058>
VStem: 108 190<301.461 567 682 853.906> 268 220<1387.07 1546.93> 758 220<1387.07 1546.93> 898 168<682 932.445>
LayerCount: 2
Fore
SplineSet
898 717 m 2,0,1
 898 802 898 802 879.5 865.5 c 128,-1,2
 861 929 861 929 833.5 964.5 c 128,-1,3
 806 1000 806 1000 767.5 1022 c 128,-1,4
 729 1044 729 1044 695.5 1050.5 c 128,-1,5
 662 1057 662 1057 624 1057 c 0,6,7
 581 1057 581 1057 541 1049 c 128,-1,8
 501 1041 501 1041 455 1016 c 128,-1,9
 409 991 409 991 375.5 951 c 128,-1,10
 342 911 342 911 320 842 c 128,-1,11
 298 773 298 773 298 682 c 1,12,-1
 898 682 l 1,13,-1
 898 717 l 2,0,1
298 567 m 1,14,15
 298 465 298 465 313.5 390 c 128,-1,16
 329 315 329 315 366.5 253 c 128,-1,17
 404 191 404 191 473.5 159 c 128,-1,18
 543 127 543 127 644 127 c 0,19,20
 814 127 814 127 950 244 c 1,21,-1
 1012 99 l 1,22,23
 934 42 934 42 821.5 9.5 c 128,-1,24
 709 -23 709 -23 632 -23 c 0,25,26
 381 -23 381 -23 244.5 138 c 128,-1,27
 108 299 108 299 108 578 c 0,28,29
 108 723 108 723 147 839.5 c 128,-1,30
 186 956 186 956 255 1032.5 c 128,-1,31
 324 1109 324 1109 418 1149.5 c 128,-1,32
 512 1190 512 1190 623 1190 c 0,33,34
 837 1190 837 1190 951.5 1050.5 c 128,-1,35
 1066 911 1066 911 1066 676 c 0,36,37
 1066 628 1066 628 1058 567 c 1,38,-1
 298 567 l 1,14,15
380 1582 m 0,39,40
 428 1582 428 1582 458 1548.5 c 128,-1,41
 488 1515 488 1515 488 1467 c 128,-1,42
 488 1419 488 1419 458 1385.5 c 128,-1,43
 428 1352 428 1352 380 1352 c 0,44,45
 331 1352 331 1352 299.5 1386 c 128,-1,46
 268 1420 268 1420 268 1467 c 128,-1,47
 268 1514 268 1514 299.5 1548 c 128,-1,48
 331 1582 331 1582 380 1582 c 0,39,40
870 1582 m 0,49,50
 918 1582 918 1582 948 1548.5 c 128,-1,51
 978 1515 978 1515 978 1467 c 128,-1,52
 978 1419 978 1419 948 1385.5 c 128,-1,53
 918 1352 918 1352 870 1352 c 0,54,55
 821 1352 821 1352 789.5 1386 c 128,-1,56
 758 1420 758 1420 758 1467 c 128,-1,57
 758 1514 758 1514 789.5 1548 c 128,-1,58
 821 1582 821 1582 870 1582 c 0,49,50
EndSplineSet
EndChar

StartChar: igrave
Encoding: 236 236 172
Width: 600
Flags: W
HStem: 0 21G<226 408> 1149 20G<226 408>
VStem: 226 182<0 1169>
LayerCount: 2
Fore
SplineSet
408 0 m 1,0,-1
 226 0 l 1,1,-1
 226 1169 l 1,2,-1
 408 1169 l 1,3,-1
 408 0 l 1,0,-1
349 1338 m 1,4,-1
 282 1312 l 1,5,-1
 -46 1867 l 1,6,-1
 196 1956 l 1,7,-1
 349 1338 l 1,4,-1
EndSplineSet
EndChar

StartChar: iacute
Encoding: 237 237 173
Width: 600
Flags: W
HStem: 0 21G<226 408> 1149 20G<226 408>
VStem: 226 182<0 1169>
LayerCount: 2
Fore
SplineSet
408 0 m 1,0,-1
 226 0 l 1,1,-1
 226 1169 l 1,2,-1
 408 1169 l 1,3,-1
 408 0 l 1,0,-1
344 1312 m 1,4,-1
 287 1338 l 1,5,-1
 446 1949 l 1,6,-1
 678 1858 l 1,7,-1
 344 1312 l 1,4,-1
EndSplineSet
EndChar

StartChar: icircumflex
Encoding: 238 238 174
Width: 600
Flags: W
HStem: 0 21G<226 408> 1149 20G<226 408>
VStem: 226 182<0 1169>
LayerCount: 2
Fore
SplineSet
408 0 m 1,0,-1
 226 0 l 1,1,-1
 226 1169 l 1,2,-1
 408 1169 l 1,3,-1
 408 0 l 1,0,-1
316 1719 m 1,4,-1
 528 1342 l 1,5,-1
 656 1420 l 1,6,-1
 364 1921 l 1,7,-1
 268 1921 l 1,8,-1
 -24 1420 l 1,9,-1
 104 1342 l 1,10,-1
 316 1719 l 1,4,-1
EndSplineSet
EndChar

StartChar: idieresis
Encoding: 239 239 175
Width: 600
Flags: W
HStem: 0 21G<226 408> 1149 20G<226 408> 1352 230<-6.51135 150.058 483.489 640.058>
VStem: -39 220<1387.07 1546.93> 226 182<0 1169> 451 220<1387.07 1546.93>
LayerCount: 2
Fore
SplineSet
408 0 m 1,0,-1
 226 0 l 1,1,-1
 226 1169 l 1,2,-1
 408 1169 l 1,3,-1
 408 0 l 1,0,-1
73 1582 m 0,4,5
 121 1582 121 1582 151 1548.5 c 128,-1,6
 181 1515 181 1515 181 1467 c 128,-1,7
 181 1419 181 1419 151 1385.5 c 128,-1,8
 121 1352 121 1352 73 1352 c 0,9,10
 24 1352 24 1352 -7.5 1386 c 128,-1,11
 -39 1420 -39 1420 -39 1467 c 128,-1,12
 -39 1514 -39 1514 -7.5 1548 c 128,-1,13
 24 1582 24 1582 73 1582 c 0,4,5
563 1582 m 0,14,15
 611 1582 611 1582 641 1548.5 c 128,-1,16
 671 1515 671 1515 671 1467 c 128,-1,17
 671 1419 671 1419 641 1385.5 c 128,-1,18
 611 1352 611 1352 563 1352 c 0,19,20
 514 1352 514 1352 482.5 1386 c 128,-1,21
 451 1420 451 1420 451 1467 c 128,-1,22
 451 1514 451 1514 482.5 1548 c 128,-1,23
 514 1582 514 1582 563 1582 c 0,14,15
EndSplineSet
EndChar

StartChar: eth
Encoding: 240 240 176
Width: 1265
Flags: W
HStem: -20 143<439.246 776.517> 1047 143<439.989 778.426> 1573 20G<1033.5 1110.33>
VStem: 112 182<302.539 869.467> 945 184<343.754 878.34>
LayerCount: 2
Fore
SplineSet
453 1401 m 1,0,-1
 1101 1593 l 1,1,-1
 1143 1503 l 1,2,-1
 495 1311 l 1,3,-1
 453 1401 l 1,0,-1
1129 690 m 0,4,5
 1129 -20 1129 -20 596 -20 c 0,6,7
 470 -20 470 -20 374.5 29 c 128,-1,8
 279 78 279 78 223 164 c 128,-1,9
 167 250 167 250 139.5 355.5 c 128,-1,10
 112 461 112 461 112 584 c 0,11,12
 112 754 112 754 163.5 889.5 c 128,-1,13
 215 1025 215 1025 321.5 1107.5 c 128,-1,14
 428 1190 428 1190 574 1190 c 0,15,16
 691 1190 691 1190 791 1139 c 128,-1,17
 891 1088 891 1088 939 1028 c 1,18,19
 885 1193 885 1193 748 1361.5 c 128,-1,20
 611 1530 611 1530 435 1641 c 1,21,-1
 519 1743 l 1,22,23
 606 1695 606 1695 688 1629 c 128,-1,24
 770 1563 770 1563 851.5 1465.5 c 128,-1,25
 933 1368 933 1368 993.5 1255.5 c 128,-1,26
 1054 1143 1054 1143 1091.5 995.5 c 128,-1,27
 1129 848 1129 848 1129 690 c 0,4,5
945 666 m 0,28,29
 945 754 945 754 922.5 823 c 128,-1,30
 900 892 900 892 865.5 933 c 128,-1,31
 831 974 831 974 785.5 1000.5 c 128,-1,32
 740 1027 740 1027 699 1037 c 128,-1,33
 658 1047 658 1047 618 1047 c 0,34,35
 582 1047 582 1047 551.5 1043 c 128,-1,36
 521 1039 521 1039 487 1026.5 c 128,-1,37
 453 1014 453 1014 426 993.5 c 128,-1,38
 399 973 399 973 373.5 937.5 c 128,-1,39
 348 902 348 902 331 855 c 128,-1,40
 314 808 314 808 304 739.5 c 128,-1,41
 294 671 294 671 294 587 c 0,42,43
 294 123 294 123 592 123 c 0,44,45
 710 123 710 123 785.5 173 c 128,-1,46
 861 223 861 223 903 344.5 c 128,-1,47
 945 466 945 466 945 666 c 0,28,29
EndSplineSet
EndChar

StartChar: ntilde
Encoding: 241 241 177
Width: 1371
Flags: W
HStem: 0 21G<191 381 985 1175> 1047 141<589.787 901.234> 1149 20G<191 333.567> 1312 139<719.677 893.162> 1431 145<466.276 633.933>
VStem: 191 190<0 915.461> 191 140<1057.3 1169> 298 156<1316 1405.72> 902 156<1453.86 1562> 985 190<0 953.708>
LayerCount: 2
Fore
SplineSet
381 880 m 1,0,-1
 381 0 l 1,1,-1
 191 0 l 1,2,-1
 191 1169 l 1,3,-1
 331 1169 l 1,4,-1
 355 982 l 1,5,6
 417 1060 417 1060 546 1124 c 128,-1,7
 675 1188 675 1188 804 1188 c 0,8,9
 854 1188 854 1188 900 1178.5 c 128,-1,10
 946 1169 946 1169 998 1139 c 128,-1,11
 1050 1109 1050 1109 1087.5 1060 c 128,-1,12
 1125 1011 1125 1011 1150 925.5 c 128,-1,13
 1175 840 1175 840 1175 727 c 2,14,-1
 1175 0 l 1,15,-1
 985 0 l 1,16,-1
 985 727 l 2,17,18
 985 800 985 800 974 856 c 128,-1,19
 963 912 963 912 938.5 956.5 c 128,-1,20
 914 1001 914 1001 869 1024 c 128,-1,21
 824 1047 824 1047 761 1047 c 0,22,23
 659 1047 659 1047 542.5 985.5 c 128,-1,24
 426 924 426 924 381 880 c 1,0,-1
866 1312 m 0,25,26
 817 1312 817 1312 760 1330.5 c 128,-1,27
 703 1349 703 1349 662 1371.5 c 128,-1,28
 621 1394 621 1394 578.5 1412.5 c 128,-1,29
 536 1431 536 1431 513 1431 c 0,30,31
 484 1431 484 1431 469 1406.5 c 128,-1,32
 454 1382 454 1382 454 1316 c 1,33,-1
 298 1316 l 1,34,35
 298 1576 298 1576 499 1576 c 0,36,37
 549 1576 549 1576 601.5 1556.5 c 128,-1,38
 654 1537 654 1537 690.5 1513.5 c 128,-1,39
 727 1490 727 1490 769 1470.5 c 128,-1,40
 811 1451 811 1451 843 1451 c 0,41,42
 902 1451 902 1451 902 1562 c 1,43,-1
 1058 1562 l 1,44,45
 1058 1448 1058 1448 1006 1380 c 128,-1,46
 954 1312 954 1312 866 1312 c 0,25,26
EndSplineSet
EndChar

StartChar: ograve
Encoding: 242 242 178
Width: 1313
Flags: W
HStem: -20 137<478.539 832.18> 1051 139<480.831 831.052>
VStem: 126 182<319.694 845.732> 1004 183<317.997 845.175>
LayerCount: 2
Fore
SplineSet
308 582 m 128,-1,1
 308 479 308 479 328 396 c 128,-1,2
 348 313 348 313 388.5 249.5 c 128,-1,3
 429 186 429 186 497 151.5 c 128,-1,4
 565 117 565 117 656 117 c 128,-1,5
 747 117 747 117 815 151.5 c 128,-1,6
 883 186 883 186 924 249.5 c 128,-1,7
 965 313 965 313 984.5 396 c 128,-1,8
 1004 479 1004 479 1004 582 c 128,-1,9
 1004 685 1004 685 984 768.5 c 128,-1,10
 964 852 964 852 923.5 916 c 128,-1,11
 883 980 883 980 815 1015.5 c 128,-1,12
 747 1051 747 1051 656 1051 c 128,-1,13
 565 1051 565 1051 497 1016 c 128,-1,14
 429 981 429 981 388.5 916.5 c 128,-1,15
 348 852 348 852 328 768.5 c 128,-1,0
 308 685 308 685 308 582 c 128,-1,1
126 582 m 0,16,17
 126 708 126 708 158.5 816.5 c 128,-1,18
 191 925 191 925 254.5 1009 c 128,-1,19
 318 1093 318 1093 421 1141.5 c 128,-1,20
 524 1190 524 1190 656 1190 c 0,21,22
 762 1190 762 1190 850 1158.5 c 128,-1,23
 938 1127 938 1127 1000 1071 c 128,-1,24
 1062 1015 1062 1015 1104.5 938.5 c 128,-1,25
 1147 862 1147 862 1167 772 c 128,-1,26
 1187 682 1187 682 1187 582 c 0,27,28
 1187 456 1187 456 1154.5 348 c 128,-1,29
 1122 240 1122 240 1058 157 c 128,-1,30
 994 74 994 74 891 27 c 128,-1,31
 788 -20 788 -20 656 -20 c 0,32,33
 550 -20 550 -20 462 11 c 128,-1,34
 374 42 374 42 312.5 96.5 c 128,-1,35
 251 151 251 151 208.5 227 c 128,-1,36
 166 303 166 303 146 392 c 128,-1,37
 126 481 126 481 126 582 c 0,16,17
671 1338 m 1,38,-1
 604 1312 l 1,39,-1
 276 1867 l 1,40,-1
 518 1956 l 1,41,-1
 671 1338 l 1,38,-1
EndSplineSet
EndChar

StartChar: oacute
Encoding: 243 243 179
Width: 1313
Flags: W
HStem: -20 137<478.539 832.18> 1051 139<480.831 831.052>
VStem: 126 182<319.694 845.732> 1004 183<317.997 845.175>
LayerCount: 2
Fore
SplineSet
308 582 m 128,-1,1
 308 479 308 479 328 396 c 128,-1,2
 348 313 348 313 388.5 249.5 c 128,-1,3
 429 186 429 186 497 151.5 c 128,-1,4
 565 117 565 117 656 117 c 128,-1,5
 747 117 747 117 815 151.5 c 128,-1,6
 883 186 883 186 924 249.5 c 128,-1,7
 965 313 965 313 984.5 396 c 128,-1,8
 1004 479 1004 479 1004 582 c 128,-1,9
 1004 685 1004 685 984 768.5 c 128,-1,10
 964 852 964 852 923.5 916 c 128,-1,11
 883 980 883 980 815 1015.5 c 128,-1,12
 747 1051 747 1051 656 1051 c 128,-1,13
 565 1051 565 1051 497 1016 c 128,-1,14
 429 981 429 981 388.5 916.5 c 128,-1,15
 348 852 348 852 328 768.5 c 128,-1,0
 308 685 308 685 308 582 c 128,-1,1
126 582 m 0,16,17
 126 708 126 708 158.5 816.5 c 128,-1,18
 191 925 191 925 254.5 1009 c 128,-1,19
 318 1093 318 1093 421 1141.5 c 128,-1,20
 524 1190 524 1190 656 1190 c 0,21,22
 762 1190 762 1190 850 1158.5 c 128,-1,23
 938 1127 938 1127 1000 1071 c 128,-1,24
 1062 1015 1062 1015 1104.5 938.5 c 128,-1,25
 1147 862 1147 862 1167 772 c 128,-1,26
 1187 682 1187 682 1187 582 c 0,27,28
 1187 456 1187 456 1154.5 348 c 128,-1,29
 1122 240 1122 240 1058 157 c 128,-1,30
 994 74 994 74 891 27 c 128,-1,31
 788 -20 788 -20 656 -20 c 0,32,33
 550 -20 550 -20 462 11 c 128,-1,34
 374 42 374 42 312.5 96.5 c 128,-1,35
 251 151 251 151 208.5 227 c 128,-1,36
 166 303 166 303 146 392 c 128,-1,37
 126 481 126 481 126 582 c 0,16,17
666 1312 m 1,38,-1
 609 1338 l 1,39,-1
 768 1949 l 1,40,-1
 1000 1858 l 1,41,-1
 666 1312 l 1,38,-1
EndSplineSet
EndChar

StartChar: ocircumflex
Encoding: 244 244 180
Width: 1313
Flags: W
HStem: -20 137<478.539 832.18> 1051 139<480.831 831.052>
VStem: 126 182<319.694 845.732> 1004 183<317.997 845.175>
LayerCount: 2
Fore
SplineSet
308 582 m 128,-1,1
 308 479 308 479 328 396 c 128,-1,2
 348 313 348 313 388.5 249.5 c 128,-1,3
 429 186 429 186 497 151.5 c 128,-1,4
 565 117 565 117 656 117 c 128,-1,5
 747 117 747 117 815 151.5 c 128,-1,6
 883 186 883 186 924 249.5 c 128,-1,7
 965 313 965 313 984.5 396 c 128,-1,8
 1004 479 1004 479 1004 582 c 128,-1,9
 1004 685 1004 685 984 768.5 c 128,-1,10
 964 852 964 852 923.5 916 c 128,-1,11
 883 980 883 980 815 1015.5 c 128,-1,12
 747 1051 747 1051 656 1051 c 128,-1,13
 565 1051 565 1051 497 1016 c 128,-1,14
 429 981 429 981 388.5 916.5 c 128,-1,15
 348 852 348 852 328 768.5 c 128,-1,0
 308 685 308 685 308 582 c 128,-1,1
126 582 m 0,16,17
 126 708 126 708 158.5 816.5 c 128,-1,18
 191 925 191 925 254.5 1009 c 128,-1,19
 318 1093 318 1093 421 1141.5 c 128,-1,20
 524 1190 524 1190 656 1190 c 0,21,22
 762 1190 762 1190 850 1158.5 c 128,-1,23
 938 1127 938 1127 1000 1071 c 128,-1,24
 1062 1015 1062 1015 1104.5 938.5 c 128,-1,25
 1147 862 1147 862 1167 772 c 128,-1,26
 1187 682 1187 682 1187 582 c 0,27,28
 1187 456 1187 456 1154.5 348 c 128,-1,29
 1122 240 1122 240 1058 157 c 128,-1,30
 994 74 994 74 891 27 c 128,-1,31
 788 -20 788 -20 656 -20 c 0,32,33
 550 -20 550 -20 462 11 c 128,-1,34
 374 42 374 42 312.5 96.5 c 128,-1,35
 251 151 251 151 208.5 227 c 128,-1,36
 166 303 166 303 146 392 c 128,-1,37
 126 481 126 481 126 582 c 0,16,17
638 1719 m 1,38,-1
 850 1342 l 1,39,-1
 978 1420 l 1,40,-1
 686 1921 l 1,41,-1
 590 1921 l 1,42,-1
 298 1420 l 1,43,-1
 426 1342 l 1,44,-1
 638 1719 l 1,38,-1
EndSplineSet
EndChar

StartChar: otilde
Encoding: 245 245 181
Width: 1313
Flags: W
HStem: -20 137<478.539 832.18> 1051 139<480.831 831.052> 1312 139<679.677 853.162> 1431 145<426.276 593.933>
VStem: 126 182<319.694 845.732> 258 156<1316 1405.72> 862 156<1453.86 1562> 1004 183<317.997 845.175>
LayerCount: 2
Fore
SplineSet
308 582 m 128,-1,1
 308 479 308 479 328 396 c 128,-1,2
 348 313 348 313 388.5 249.5 c 128,-1,3
 429 186 429 186 497 151.5 c 128,-1,4
 565 117 565 117 656 117 c 128,-1,5
 747 117 747 117 815 151.5 c 128,-1,6
 883 186 883 186 924 249.5 c 128,-1,7
 965 313 965 313 984.5 396 c 128,-1,8
 1004 479 1004 479 1004 582 c 128,-1,9
 1004 685 1004 685 984 768.5 c 128,-1,10
 964 852 964 852 923.5 916 c 128,-1,11
 883 980 883 980 815 1015.5 c 128,-1,12
 747 1051 747 1051 656 1051 c 128,-1,13
 565 1051 565 1051 497 1016 c 128,-1,14
 429 981 429 981 388.5 916.5 c 128,-1,15
 348 852 348 852 328 768.5 c 128,-1,0
 308 685 308 685 308 582 c 128,-1,1
126 582 m 0,16,17
 126 708 126 708 158.5 816.5 c 128,-1,18
 191 925 191 925 254.5 1009 c 128,-1,19
 318 1093 318 1093 421 1141.5 c 128,-1,20
 524 1190 524 1190 656 1190 c 0,21,22
 762 1190 762 1190 850 1158.5 c 128,-1,23
 938 1127 938 1127 1000 1071 c 128,-1,24
 1062 1015 1062 1015 1104.5 938.5 c 128,-1,25
 1147 862 1147 862 1167 772 c 128,-1,26
 1187 682 1187 682 1187 582 c 0,27,28
 1187 456 1187 456 1154.5 348 c 128,-1,29
 1122 240 1122 240 1058 157 c 128,-1,30
 994 74 994 74 891 27 c 128,-1,31
 788 -20 788 -20 656 -20 c 0,32,33
 550 -20 550 -20 462 11 c 128,-1,34
 374 42 374 42 312.5 96.5 c 128,-1,35
 251 151 251 151 208.5 227 c 128,-1,36
 166 303 166 303 146 392 c 128,-1,37
 126 481 126 481 126 582 c 0,16,17
826 1312 m 0,38,39
 777 1312 777 1312 720 1330.5 c 128,-1,40
 663 1349 663 1349 622 1371.5 c 128,-1,41
 581 1394 581 1394 538.5 1412.5 c 128,-1,42
 496 1431 496 1431 473 1431 c 0,43,44
 444 1431 444 1431 429 1406.5 c 128,-1,45
 414 1382 414 1382 414 1316 c 1,46,-1
 258 1316 l 1,47,48
 258 1576 258 1576 459 1576 c 0,49,50
 509 1576 509 1576 561.5 1556.5 c 128,-1,51
 614 1537 614 1537 650.5 1513.5 c 128,-1,52
 687 1490 687 1490 729 1470.5 c 128,-1,53
 771 1451 771 1451 803 1451 c 0,54,55
 862 1451 862 1451 862 1562 c 1,56,-1
 1018 1562 l 1,57,58
 1018 1448 1018 1448 966 1380 c 128,-1,59
 914 1312 914 1312 826 1312 c 0,38,39
EndSplineSet
EndChar

StartChar: odieresis
Encoding: 246 246 182
Width: 1313
Flags: W
HStem: -20 137<478.539 832.18> 1051 139<480.831 831.052> 1352 230<315.489 472.058 805.489 962.058>
VStem: 126 182<319.694 845.732> 283 220<1387.07 1546.93> 773 220<1387.07 1546.93> 1004 183<317.997 845.175>
LayerCount: 2
Fore
SplineSet
308 582 m 128,-1,1
 308 479 308 479 328 396 c 128,-1,2
 348 313 348 313 388.5 249.5 c 128,-1,3
 429 186 429 186 497 151.5 c 128,-1,4
 565 117 565 117 656 117 c 128,-1,5
 747 117 747 117 815 151.5 c 128,-1,6
 883 186 883 186 924 249.5 c 128,-1,7
 965 313 965 313 984.5 396 c 128,-1,8
 1004 479 1004 479 1004 582 c 128,-1,9
 1004 685 1004 685 984 768.5 c 128,-1,10
 964 852 964 852 923.5 916 c 128,-1,11
 883 980 883 980 815 1015.5 c 128,-1,12
 747 1051 747 1051 656 1051 c 128,-1,13
 565 1051 565 1051 497 1016 c 128,-1,14
 429 981 429 981 388.5 916.5 c 128,-1,15
 348 852 348 852 328 768.5 c 128,-1,0
 308 685 308 685 308 582 c 128,-1,1
126 582 m 0,16,17
 126 708 126 708 158.5 816.5 c 128,-1,18
 191 925 191 925 254.5 1009 c 128,-1,19
 318 1093 318 1093 421 1141.5 c 128,-1,20
 524 1190 524 1190 656 1190 c 0,21,22
 762 1190 762 1190 850 1158.5 c 128,-1,23
 938 1127 938 1127 1000 1071 c 128,-1,24
 1062 1015 1062 1015 1104.5 938.5 c 128,-1,25
 1147 862 1147 862 1167 772 c 128,-1,26
 1187 682 1187 682 1187 582 c 0,27,28
 1187 456 1187 456 1154.5 348 c 128,-1,29
 1122 240 1122 240 1058 157 c 128,-1,30
 994 74 994 74 891 27 c 128,-1,31
 788 -20 788 -20 656 -20 c 0,32,33
 550 -20 550 -20 462 11 c 128,-1,34
 374 42 374 42 312.5 96.5 c 128,-1,35
 251 151 251 151 208.5 227 c 128,-1,36
 166 303 166 303 146 392 c 128,-1,37
 126 481 126 481 126 582 c 0,16,17
395 1582 m 0,38,39
 443 1582 443 1582 473 1548.5 c 128,-1,40
 503 1515 503 1515 503 1467 c 128,-1,41
 503 1419 503 1419 473 1385.5 c 128,-1,42
 443 1352 443 1352 395 1352 c 0,43,44
 346 1352 346 1352 314.5 1386 c 128,-1,45
 283 1420 283 1420 283 1467 c 128,-1,46
 283 1514 283 1514 314.5 1548 c 128,-1,47
 346 1582 346 1582 395 1582 c 0,38,39
885 1582 m 0,48,49
 933 1582 933 1582 963 1548.5 c 128,-1,50
 993 1515 993 1515 993 1467 c 128,-1,51
 993 1419 993 1419 963 1385.5 c 128,-1,52
 933 1352 933 1352 885 1352 c 0,53,54
 836 1352 836 1352 804.5 1386 c 128,-1,55
 773 1420 773 1420 773 1467 c 128,-1,56
 773 1514 773 1514 804.5 1548 c 128,-1,57
 836 1582 836 1582 885 1582 c 0,48,49
EndSplineSet
EndChar

StartChar: divide
Encoding: 247 247 183
Width: 1068
Flags: W
HStem: 185 230<481.489 638.058> 508 131<224 906> 720 230<483.489 640.058>
VStem: 449 220<220.066 379.934 755.066 914.934>
LayerCount: 2
Fore
SplineSet
906 508 m 1,0,-1
 224 508 l 1,1,-1
 224 639 l 1,2,-1
 906 639 l 1,3,-1
 906 508 l 1,0,-1
563 950 m 4,4,5
 611 950 611 950 641 916.5 c 132,-1,6
 671 883 671 883 671 835 c 132,-1,7
 671 787 671 787 641 753.5 c 132,-1,8
 611 720 611 720 563 720 c 4,9,10
 514 720 514 720 482.5 754 c 132,-1,11
 451 788 451 788 451 835 c 132,-1,12
 451 882 451 882 482.5 916 c 132,-1,13
 514 950 514 950 563 950 c 4,4,5
561 415 m 0,14,15
 609 415 609 415 639 381.5 c 128,-1,16
 669 348 669 348 669 300 c 128,-1,17
 669 252 669 252 639 218.5 c 128,-1,18
 609 185 609 185 561 185 c 0,19,20
 512 185 512 185 480.5 219 c 128,-1,21
 449 253 449 253 449 300 c 128,-1,22
 449 347 449 347 480.5 381 c 128,-1,23
 512 415 512 415 561 415 c 0,14,15
EndSplineSet
EndChar

StartChar: oslash
Encoding: 248 248 184
Width: 1277
Flags: W
HStem: -20 137<515.683 814.18> 1051 139<462.701 769.007>
VStem: 108 182<319.455 845.732> 986 183<317.813 845.175>
LayerCount: 2
Fore
SplineSet
334 -168 m 1,0,-1
 863 1365 l 1,1,-1
 944 1335 l 1,2,-1
 422 -198 l 1,3,-1
 334 -168 l 1,0,-1
290 582 m 128,-1,5
 290 479 290 479 310 396 c 128,-1,6
 330 313 330 313 370.5 249.5 c 128,-1,7
 411 186 411 186 479 151.5 c 128,-1,8
 547 117 547 117 638 117 c 128,-1,9
 729 117 729 117 797 151.5 c 128,-1,10
 865 186 865 186 906 249.5 c 128,-1,11
 947 313 947 313 966.5 396 c 128,-1,12
 986 479 986 479 986 582 c 128,-1,13
 986 685 986 685 966 768.5 c 128,-1,14
 946 852 946 852 905.5 916 c 128,-1,15
 865 980 865 980 797 1015.5 c 128,-1,16
 729 1051 729 1051 638 1051 c 128,-1,17
 547 1051 547 1051 479 1016 c 128,-1,18
 411 981 411 981 370.5 916.5 c 128,-1,19
 330 852 330 852 310 768.5 c 128,-1,4
 290 685 290 685 290 582 c 128,-1,5
108 582 m 128,-1,21
 108 708 108 708 140.5 816.5 c 128,-1,22
 173 925 173 925 236 1009 c 128,-1,23
 299 1093 299 1093 402.5 1141.5 c 128,-1,24
 506 1190 506 1190 638 1190 c 0,25,26
 744 1190 744 1190 832.5 1158.5 c 128,-1,27
 921 1127 921 1127 982.5 1071 c 128,-1,28
 1044 1015 1044 1015 1086.5 938.5 c 128,-1,29
 1129 862 1129 862 1149 772 c 128,-1,30
 1169 682 1169 682 1169 582 c 0,31,32
 1169 455 1169 455 1136.5 347.5 c 128,-1,33
 1104 240 1104 240 1040 157 c 128,-1,34
 976 74 976 74 873 27 c 128,-1,35
 770 -20 770 -20 638 -20 c 128,-1,36
 506 -20 506 -20 403 27 c 128,-1,37
 300 74 300 74 236.5 157.5 c 128,-1,38
 173 241 173 241 140.5 348.5 c 128,-1,20
 108 456 108 456 108 582 c 128,-1,21
EndSplineSet
EndChar

StartChar: ugrave
Encoding: 249 249 185
Width: 1264
Flags: W
HStem: -20 143<408.781 740.085> 0 21G<953.932 1098> 1149 20G<132 322 908 1098>
VStem: 132 190<218.827 1169> 908 190<238.609 1169> 957 141<0 93.4495>
LayerCount: 2
Fore
SplineSet
322 442 m 2,0,1
 322 288 322 288 374.5 205.5 c 128,-1,2
 427 123 427 123 554 123 c 0,3,4
 747 123 747 123 908 274 c 1,5,-1
 908 1169 l 1,6,-1
 1098 1169 l 1,7,-1
 1098 0 l 1,8,-1
 957 0 l 1,9,-1
 930 176 l 1,10,11
 840 75 840 75 747 27.5 c 128,-1,12
 654 -20 654 -20 544 -20 c 0,13,14
 349 -20 349 -20 240.5 91 c 128,-1,15
 132 202 132 202 132 442 c 2,16,-1
 132 1169 l 1,17,-1
 322 1169 l 1,18,-1
 322 442 l 2,0,1
649 1338 m 1,19,-1
 582 1312 l 1,20,-1
 254 1867 l 1,21,-1
 496 1956 l 1,22,-1
 649 1338 l 1,19,-1
EndSplineSet
EndChar

StartChar: uacute
Encoding: 250 250 186
Width: 1264
Flags: W
HStem: -20 143<408.781 740.085> 0 21G<953.932 1098> 1149 20G<132 322 908 1098>
VStem: 132 190<218.827 1169> 908 190<238.609 1169> 957 141<0 93.4495>
LayerCount: 2
Fore
SplineSet
322 442 m 2,0,1
 322 288 322 288 374.5 205.5 c 128,-1,2
 427 123 427 123 554 123 c 0,3,4
 747 123 747 123 908 274 c 1,5,-1
 908 1169 l 1,6,-1
 1098 1169 l 1,7,-1
 1098 0 l 1,8,-1
 957 0 l 1,9,-1
 930 176 l 1,10,11
 840 75 840 75 747 27.5 c 128,-1,12
 654 -20 654 -20 544 -20 c 0,13,14
 349 -20 349 -20 240.5 91 c 128,-1,15
 132 202 132 202 132 442 c 2,16,-1
 132 1169 l 1,17,-1
 322 1169 l 1,18,-1
 322 442 l 2,0,1
644 1312 m 1,19,-1
 587 1338 l 1,20,-1
 746 1949 l 1,21,-1
 978 1858 l 1,22,-1
 644 1312 l 1,19,-1
EndSplineSet
EndChar

StartChar: ucircumflex
Encoding: 251 251 187
Width: 1264
Flags: W
HStem: -20 143<408.781 740.085> 0 21G<953.932 1098> 1149 20G<132 322 908 1098>
VStem: 132 190<218.827 1169> 908 190<238.609 1169> 957 141<0 93.4495>
LayerCount: 2
Fore
SplineSet
322 442 m 2,0,1
 322 288 322 288 374.5 205.5 c 128,-1,2
 427 123 427 123 554 123 c 0,3,4
 747 123 747 123 908 274 c 1,5,-1
 908 1169 l 1,6,-1
 1098 1169 l 1,7,-1
 1098 0 l 1,8,-1
 957 0 l 1,9,-1
 930 176 l 1,10,11
 840 75 840 75 747 27.5 c 128,-1,12
 654 -20 654 -20 544 -20 c 0,13,14
 349 -20 349 -20 240.5 91 c 128,-1,15
 132 202 132 202 132 442 c 2,16,-1
 132 1169 l 1,17,-1
 322 1169 l 1,18,-1
 322 442 l 2,0,1
614 1719 m 1,19,-1
 826 1342 l 1,20,-1
 954 1420 l 1,21,-1
 662 1921 l 1,22,-1
 566 1921 l 1,23,-1
 274 1420 l 1,24,-1
 402 1342 l 1,25,-1
 614 1719 l 1,19,-1
EndSplineSet
EndChar

StartChar: udieresis
Encoding: 252 252 188
Width: 1264
Flags: W
HStem: -20 143<408.781 740.085> 0 21G<953.932 1098> 1149 20G<132 322 908 1098> 1352 230<292.489 449.058 782.489 939.058>
VStem: 132 190<218.827 1169> 260 220<1387.07 1546.93> 750 220<1387.07 1546.93> 908 190<238.609 1169> 957 141<0 93.4495>
LayerCount: 2
Fore
SplineSet
322 442 m 2,0,1
 322 288 322 288 374.5 205.5 c 128,-1,2
 427 123 427 123 554 123 c 0,3,4
 747 123 747 123 908 274 c 1,5,-1
 908 1169 l 1,6,-1
 1098 1169 l 1,7,-1
 1098 0 l 1,8,-1
 957 0 l 1,9,-1
 930 176 l 1,10,11
 840 75 840 75 747 27.5 c 128,-1,12
 654 -20 654 -20 544 -20 c 0,13,14
 349 -20 349 -20 240.5 91 c 128,-1,15
 132 202 132 202 132 442 c 2,16,-1
 132 1169 l 1,17,-1
 322 1169 l 1,18,-1
 322 442 l 2,0,1
372 1582 m 0,19,20
 420 1582 420 1582 450 1548.5 c 128,-1,21
 480 1515 480 1515 480 1467 c 128,-1,22
 480 1419 480 1419 450 1385.5 c 128,-1,23
 420 1352 420 1352 372 1352 c 0,24,25
 323 1352 323 1352 291.5 1386 c 128,-1,26
 260 1420 260 1420 260 1467 c 128,-1,27
 260 1514 260 1514 291.5 1548 c 128,-1,28
 323 1582 323 1582 372 1582 c 0,19,20
862 1582 m 0,29,30
 910 1582 910 1582 940 1548.5 c 128,-1,31
 970 1515 970 1515 970 1467 c 128,-1,32
 970 1419 970 1419 940 1385.5 c 128,-1,33
 910 1352 910 1352 862 1352 c 0,34,35
 813 1352 813 1352 781.5 1386 c 128,-1,36
 750 1420 750 1420 750 1467 c 128,-1,37
 750 1514 750 1514 781.5 1548 c 128,-1,38
 813 1582 813 1582 862 1582 c 0,29,30
EndSplineSet
EndChar

StartChar: yacute
Encoding: 253 253 189
Width: 1223
Flags: W
HStem: -459 21G<246.84 289> 1149 20G<93 282.717 924.457 1126>
LayerCount: 2
Fore
SplineSet
630 249 m 1,0,-1
 931 1169 l 1,1,-1
 1126 1169 l 1,2,-1
 689 -37 l 2,3,4
 641 -169 641 -169 626 -203 c 0,5,6
 537 -393 537 -393 381 -441 c 0,7,8
 323 -459 323 -459 255 -459 c 1,9,-1
 204 -334 l 1,10,11
 355 -308 355 -308 421 -239 c 128,-1,12
 487 -170 487 -170 544 23 c 1,13,-1
 93 1169 l 1,14,-1
 275 1169 l 1,15,-1
 630 249 l 1,0,-1
569 1312 m 1,16,-1
 512 1338 l 1,17,-1
 671 1949 l 1,18,-1
 903 1858 l 1,19,-1
 569 1312 l 1,16,-1
EndSplineSet
EndChar

StartChar: thorn
Encoding: 254 254 190
Width: 1361
Flags: W
HStem: -487 21G<129 298.091> -20 143<457.698 822.731> 1047 143<493.221 817.803>
VStem: 129 209<311.184 929.987> 129 186<-465 117 216.134 590.481 1004 1565> 961 182<305.794 859.778>
LayerCount: 2
Fore
SplineSet
1143 584 m 0,0,1
 1143 466 1143 466 1115.5 360.5 c 128,-1,2
 1088 255 1088 255 1033.5 168.5 c 128,-1,3
 979 82 979 82 886.5 31 c 128,-1,4
 794 -20 794 -20 674 -20 c 0,5,6
 425 -20 425 -20 315 117 c 1,7,-1
 315 -465 l 1,8,-1
 129 -487 l 1,9,-1
 129 1565 l 1,10,-1
 313 1565 l 1,11,-1
 313 1004 l 1,12,13
 377 1083 377 1083 470.5 1136.5 c 128,-1,14
 564 1190 564 1190 674 1190 c 0,15,16
 773 1190 773 1190 853 1155.5 c 128,-1,17
 933 1121 933 1121 986 1063.5 c 128,-1,18
 1039 1006 1039 1006 1075 927.5 c 128,-1,19
 1111 849 1111 849 1127 763 c 128,-1,20
 1143 677 1143 677 1143 584 c 0,0,1
961 543 m 0,21,22
 961 593 961 593 958 638.5 c 128,-1,23
 955 684 955 684 947 736 c 128,-1,24
 939 788 939 788 926 831.5 c 128,-1,25
 913 875 913 875 890.5 916 c 128,-1,26
 868 957 868 957 839 985 c 128,-1,27
 810 1013 810 1013 767.5 1030 c 128,-1,28
 725 1047 725 1047 674 1047 c 0,29,30
 614 1047 614 1047 554.5 1027.5 c 128,-1,31
 495 1008 495 1008 450.5 978.5 c 128,-1,32
 406 949 406 949 380.5 928 c 128,-1,33
 355 907 355 907 338 890 c 1,34,-1
 322 244 l 1,35,36
 383 192 383 192 483 157.5 c 128,-1,37
 583 123 583 123 682 123 c 0,38,39
 733 123 733 123 778 141 c 128,-1,40
 823 159 823 159 866.5 210.5 c 128,-1,41
 910 262 910 262 932 343 c 0,42,43
 961 449 961 449 961 543 c 0,21,22
EndSplineSet
EndChar

StartChar: ydieresis
Encoding: 255 255 191
Width: 1223
Flags: W
HStem: -459 21G<246.84 289> 1149 20G<93 282.717 924.457 1126> 1352 230<217.489 374.058 707.489 864.058>
VStem: 185 220<1387.07 1546.93> 675 220<1387.07 1546.93>
LayerCount: 2
Fore
SplineSet
630 249 m 1,0,-1
 931 1169 l 1,1,-1
 1126 1169 l 1,2,-1
 689 -37 l 2,3,4
 641 -169 641 -169 626 -203 c 0,5,6
 537 -393 537 -393 381 -441 c 0,7,8
 323 -459 323 -459 255 -459 c 1,9,-1
 204 -334 l 1,10,11
 355 -308 355 -308 421 -239 c 128,-1,12
 487 -170 487 -170 544 23 c 1,13,-1
 93 1169 l 1,14,-1
 275 1169 l 1,15,-1
 630 249 l 1,0,-1
297 1582 m 0,16,17
 345 1582 345 1582 375 1548.5 c 128,-1,18
 405 1515 405 1515 405 1467 c 128,-1,19
 405 1419 405 1419 375 1385.5 c 128,-1,20
 345 1352 345 1352 297 1352 c 0,21,22
 248 1352 248 1352 216.5 1386 c 128,-1,23
 185 1420 185 1420 185 1467 c 128,-1,24
 185 1514 185 1514 216.5 1548 c 128,-1,25
 248 1582 248 1582 297 1582 c 0,16,17
787 1582 m 0,26,27
 835 1582 835 1582 865 1548.5 c 128,-1,28
 895 1515 895 1515 895 1467 c 128,-1,29
 895 1419 895 1419 865 1385.5 c 128,-1,30
 835 1352 835 1352 787 1352 c 0,31,32
 738 1352 738 1352 706.5 1386 c 128,-1,33
 675 1420 675 1420 675 1467 c 128,-1,34
 675 1514 675 1514 706.5 1548 c 128,-1,35
 738 1582 738 1582 787 1582 c 0,26,27
EndSplineSet
EndChar

StartChar: dotlessi
Encoding: 305 305 192
Width: 600
Flags: W
HStem: 0 21G<226 408> 1149 20G<226 408>
VStem: 226 182<0 1169>
LayerCount: 2
Fore
SplineSet
408 0 m 1,0,-1
 226 0 l 1,1,-1
 226 1169 l 1,2,-1
 408 1169 l 1,3,-1
 408 0 l 1,0,-1
EndSplineSet
EndChar

